<svg width="18" height="22" viewBox="0 0 18 22" fill="none" xmlns="http://www.w3.org/2000/svg">
<path fill-rule="evenodd" clip-rule="evenodd" d="M4.53322 5.26768V4.63324C4.53322 3.45539 5.00112 2.32578 5.83399 1.49291C6.66686 0.660039 7.79647 0.192139 8.97433 0.192139C10.1522 0.192139 11.2818 0.660039 12.1147 1.49291C12.9475 2.32578 13.4154 3.45539 13.4154 4.63324V5.26768H17.2221V21.7632H0.726562V5.26768H4.53322ZM5.80211 4.63324C5.80211 3.79192 6.13632 2.98505 6.73123 2.39015C7.32614 1.79524 8.133 1.46103 8.97433 1.46103C9.81565 1.46103 10.6225 1.79524 11.2174 2.39015C11.8123 2.98505 12.1465 3.79192 12.1465 4.63324V5.26768H5.80211V4.63324ZM4.53322 6.53657V8.4399H5.80211V6.53657H12.1465V8.4399H13.4154V6.53657H15.9532V20.4943H1.99545V6.53657H4.53322Z" fill="white"/>
</svg>
