<svg width="34" height="34" viewBox="0 0 34 34" fill="none" xmlns="http://www.w3.org/2000/svg">
<path fill-rule="evenodd" clip-rule="evenodd" d="M11.3337 9.71447V8.90495C11.3337 7.40205 11.9307 5.96072 12.9934 4.89801C14.0561 3.8353 15.4975 3.23828 17.0004 3.23828C18.5033 3.23828 19.9446 3.8353 21.0073 4.89801C22.07 5.96072 22.667 7.40205 22.667 8.90495V9.71447H27.5242V30.7621H6.47656V9.71447H11.3337ZM12.9528 8.90495C12.9528 7.83145 13.3792 6.80193 14.1383 6.04285C14.8974 5.28377 15.9269 4.85733 17.0004 4.85733C18.0739 4.85733 19.1034 5.28377 19.8625 6.04285C20.6215 6.80193 21.048 7.83145 21.048 8.90495V9.71447H12.9528V8.90495ZM11.3337 11.3335V13.7621H12.9528V11.3335H21.048V13.7621H22.667V11.3335H25.9051V29.143H8.09561V11.3335H11.3337Z" fill="white"/>
</svg>
