<svg width="20" height="19" viewBox="0 0 20 19" fill="none" xmlns="http://www.w3.org/2000/svg">
<g clip-path="url(#clip0_52_2906)">
<g clip-path="url(#clip1_52_2906)">
<g clip-path="url(#clip2_52_2906)">
<path d="M19.5259 5.78324C19.6241 8.39517 17.9907 11.1733 16.195 13.0801C14.2931 15.0233 12.163 16.7545 9.84645 18.2415C9.816 18.2695 9.77498 18.285 9.73272 18.285C9.69045 18.285 9.64943 18.2695 9.61898 18.2415C5.90144 15.6492 1.19874 12.3256 0.166955 7.7687C-0.606261 4.34924 1.48091 0.651065 5.49617 0.732651C6.58638 0.739202 7.64056 1.10247 8.48028 1.75992C8.89983 2.11009 9.28954 2.49061 9.64694 2.89795C9.71718 2.97059 9.75446 2.97893 9.82781 2.89795C10.0677 2.64545 10.3133 2.39534 10.5588 2.15177C11.1057 1.59675 11.795 1.18465 12.5602 0.95597C16.054 -0.0861859 19.3998 2.38402 19.5259 5.78324Z" fill="#841A10"/>
</g>
</g>
</g>
<defs>
<clipPath id="clip0_52_2906">
<rect width="19.5423" height="17.5701" fill="white" transform="translate(0 0.714844)"/>
</clipPath>
<clipPath id="clip1_52_2906">
<rect width="19.5423" height="17.5701" fill="white" transform="translate(0 0.714844)"/>
</clipPath>
<clipPath id="clip2_52_2906">
<rect width="19.5224" height="17.5701" fill="white" transform="translate(0.0078125 0.714844)"/>
</clipPath>
</defs>
</svg>
