<svg width="30" height="30" viewBox="0 0 30 30" fill="none" xmlns="http://www.w3.org/2000/svg">
<path d="M15 19.9998C16.3261 19.9998 17.5979 19.473 18.5355 18.5353C19.4732 17.5976 20 16.3258 20 14.9998C20 13.6737 19.4732 12.4019 18.5355 11.4642C17.5979 10.5265 16.3261 9.99976 15 9.99976C13.6739 9.99976 12.4021 10.5265 11.4645 11.4642C10.5268 12.4019 10 13.6737 10 14.9998C10 16.3258 10.5268 17.5976 11.4645 18.5353C12.4021 19.473 13.6739 19.9998 15 19.9998Z" stroke="#841A10" stroke-width="2.18214" stroke-linecap="round" stroke-linejoin="round"/>
<path d="M3.75 20V10C3.75 8.3424 4.40848 6.75268 5.58058 5.58058C6.75268 4.40848 8.3424 3.75 10 3.75H20C21.6576 3.75 23.2473 4.40848 24.4194 5.58058C25.5915 6.75268 26.25 8.3424 26.25 10V20C26.25 21.6576 25.5915 23.2473 24.4194 24.4194C23.2473 25.5915 21.6576 26.25 20 26.25H10C8.3424 26.25 6.75268 25.5915 5.58058 24.4194C4.40848 23.2473 3.75 21.6576 3.75 20Z" stroke="#841A10" stroke-width="2.18214"/>
<path d="M21.875 8.13796L21.8881 8.12354" stroke="#841A10" stroke-width="2.18214" stroke-linecap="round" stroke-linejoin="round"/>
</svg>
