<svg width="24" height="18" viewBox="0 0 24 18" fill="none" xmlns="http://www.w3.org/2000/svg">
<path d="M23.2568 13.6033C23.2568 14.3348 22.9984 14.9882 22.4815 15.5392C21.5501 16.4901 20.2091 16.9778 18.5023 16.9778C17.6002 16.9778 16.7419 16.7242 15.9422 16.2171C15.8837 16.178 15.596 16.0025 15.2693 15.7148C15.2693 15.7148 14.411 14.9736 13.9721 14.0861C13.9429 14.0227 13.9087 13.9495 13.9087 13.9495C13.8551 13.8422 13.8015 13.7203 13.7429 13.5692C13.6649 13.3692 13.6064 13.2034 13.5723 13.0718H12.4117V16.2122H12.9578C13.3089 16.2122 13.5918 16.495 13.5918 16.8461V16.9632C13.5918 17.3143 13.3089 17.5971 12.9578 17.5971H10.4709C10.1198 17.5971 9.83694 17.3143 9.83694 16.9632V16.8461C9.83694 16.495 10.1198 16.2122 10.4709 16.2122H11.017V13.0718H9.85644C9.82231 13.2034 9.76379 13.3741 9.68577 13.5692C9.62725 13.7155 9.56873 13.8422 9.51997 13.9495C9.51997 13.9495 9.48584 14.0227 9.45658 14.0861C9.0177 14.9736 8.15945 15.7148 8.15945 15.7148C7.83273 16.0025 7.54502 16.178 7.4865 16.2171C6.68677 16.7242 5.82852 16.9778 4.92638 16.9778C3.21964 16.9778 1.87862 16.4901 0.947224 15.5392C0.430323 14.9882 0.171875 14.3396 0.171875 13.6033C0.171875 12.6426 0.449835 11.9453 0.854578 11.4187C1.32759 10.8042 1.85424 10.4531 2.38089 10.2386C2.90755 9.99962 3.47321 9.79481 4.04375 9.64364C4.85324 9.39982 5.2336 9.27304 5.42865 9.20477C5.51643 9.17551 5.68223 9.11699 5.89192 9.04385C6.11136 8.9707 6.16012 8.95607 6.34055 8.89268C6.599 8.8049 6.74041 8.75126 6.77455 8.73664C6.92084 8.68299 7.05251 8.62935 7.08664 8.60984C7.35484 8.49281 7.96927 8.06856 8.01316 7.40537C8.03754 7.0689 7.901 6.81044 7.85223 6.71779C7.72545 6.48372 7.53039 6.28379 7.25244 6.12775C6.73066 5.82053 5.98457 5.66449 5.03366 5.66449H4.91664C4.30708 5.66449 3.80968 5.76202 3.4342 5.93757C3.00995 6.13263 2.71249 6.36182 2.26874 6.90798V7.42975C2.26874 7.69795 2.1517 7.90277 1.91763 8.0198C1.68844 8.13196 1.45925 8.13195 1.23006 8.01492C1.00087 7.89789 0.878954 7.69795 0.878954 7.42975V5.72788C0.878954 5.54745 0.947228 5.38653 1.08864 5.24999C1.23006 5.11345 1.39098 5.04518 1.57629 5.04518C1.77134 5.04518 1.93226 5.1037 2.05417 5.22561C2.86366 4.61118 3.82432 4.29909 4.91664 4.29909H5.00928C6.21863 4.29909 7.25732 4.54779 8.10094 5.04031C8.95919 5.5377 9.39806 6.33256 9.39806 7.40049C9.33466 8.48794 8.78363 9.3023 7.75958 9.83383C7.47187 9.97037 6.8672 10.1898 5.90655 10.497L5.14095 10.7213C4.5509 10.892 4.04375 11.0578 3.62925 11.1992C3.00995 11.4089 2.71737 11.5308 2.4004 11.7795C2.25899 11.8917 2.05418 12.0575 1.87375 12.3501C1.5324 12.8962 1.54215 13.4473 1.55678 13.6033C1.62017 14.1933 1.864 14.6517 2.49305 15.0321C3.14162 15.4222 3.9511 15.6124 4.91664 15.6124C5.56032 15.6124 6.17475 15.4271 6.74529 15.0516C6.93547 14.9297 7.11102 14.7931 7.28169 14.642C7.93026 14.0617 8.31062 13.3253 8.4374 12.7889C8.47641 12.6231 8.5008 12.5159 8.56419 12.3257C8.6032 12.2135 8.64709 12.0916 8.74949 11.9599C8.77875 11.9209 8.81289 11.877 8.86653 11.838C8.97869 11.7503 9.12498 11.7015 9.29566 11.7015H11.0122V1.74873H8.33988V2.76302C8.33988 2.79716 8.33988 2.83129 8.335 2.86055V2.86542C8.335 2.88493 8.33012 2.89956 8.32525 2.91419C8.32525 2.92882 8.32037 2.93857 8.31549 2.9532C8.31062 2.96783 8.30574 2.98246 8.30086 2.99709C8.29599 3.01172 8.29111 3.02635 8.28623 3.0361C8.28136 3.05073 8.27161 3.06536 8.26673 3.07999C8.26186 3.08974 8.2521 3.10437 8.24722 3.11412C8.23747 3.12875 8.2326 3.1385 8.22285 3.14826C8.21309 3.15801 8.20822 3.17264 8.19846 3.18239C8.18871 3.19214 8.17896 3.20677 8.16921 3.21653C8.15945 3.22628 8.14969 3.23603 8.13994 3.24578C8.13019 3.25554 8.11556 3.26529 8.10581 3.27504C8.08143 3.29455 8.05704 3.30918 8.02778 3.32868C7.99853 3.34819 7.97414 3.35795 7.94489 3.37258C7.93026 3.37745 7.92051 3.38233 7.91076 3.3872C7.74496 3.44572 7.55965 3.4506 7.39385 3.39208C7.38897 3.39208 7.38898 3.3872 7.3841 3.3872C7.37923 3.3872 7.37435 3.38232 7.36947 3.38232C7.3646 3.37745 7.35972 3.37745 7.35484 3.37258C7.34509 3.3677 7.33533 3.36282 7.32558 3.35794H7.32071C7.31583 3.35794 7.31583 3.35307 7.31095 3.35307C7.30607 3.35307 7.30608 3.34819 7.3012 3.34819C7.2817 3.33844 7.26707 3.32869 7.25244 3.31894C7.23781 3.30918 7.22318 3.29942 7.20855 3.28967C7.19392 3.27992 7.17929 3.26529 7.16466 3.25554C7.1549 3.24579 7.14516 3.24091 7.14028 3.23116C7.1354 3.22628 7.13053 3.2214 7.12565 3.21653C7.12565 3.21165 7.12077 3.21165 7.12077 3.20677C7.11102 3.19702 7.10127 3.18727 7.09151 3.17752C7.09151 3.17752 7.09152 3.17264 7.08664 3.17264L7.08176 3.16776C7.07688 3.16288 7.07201 3.15801 7.07201 3.15313C7.06713 3.14825 7.06226 3.14338 7.06226 3.1385C7.0525 3.12875 7.04763 3.11412 7.03787 3.10437C7.02812 3.08487 7.01837 3.07024 7.00862 3.05073C7.00374 3.0361 6.99886 3.02635 6.99399 3.01172C6.98423 2.98734 6.97935 2.95808 6.97448 2.93369C6.96472 2.88493 6.95985 2.83617 6.95985 2.78253V1.08065C6.95985 0.900226 7.02325 0.739307 7.15491 0.602767C7.16954 0.588138 7.18904 0.57351 7.18904 0.57351C7.19392 0.568633 7.20855 0.558882 7.22805 0.544252C7.24756 0.529623 7.28657 0.500365 7.34021 0.475983C7.35484 0.471106 7.37435 0.461355 7.4036 0.446725C7.4036 0.446725 7.49138 0.417466 7.58891 0.407713C7.61329 0.407713 7.6328 0.402832 7.65718 0.402832H15.7764C15.8008 0.402832 15.8203 0.402837 15.8447 0.407713C15.9422 0.417466 16.03 0.446725 16.03 0.446725C16.0592 0.456478 16.0836 0.471106 16.0934 0.475983C16.147 0.500365 16.186 0.529623 16.2055 0.544252C16.225 0.558882 16.2397 0.568633 16.2445 0.57351C16.2445 0.57351 16.2641 0.588138 16.2787 0.602767C16.4055 0.739307 16.4737 0.900226 16.4737 1.08065V2.78253C16.4737 2.83617 16.4689 2.88493 16.4591 2.93369C16.4542 2.96295 16.4445 2.98734 16.4396 3.01172C16.4347 3.02635 16.4299 3.04098 16.425 3.05073C16.4201 3.06536 16.4103 3.07998 16.4006 3.09949C16.4006 3.09949 16.3957 3.10437 16.3957 3.10925C16.3908 3.12387 16.3811 3.13363 16.3713 3.14338V3.14826C16.3616 3.16289 16.3518 3.17264 16.3421 3.18727C16.3323 3.19702 16.3226 3.20677 16.3128 3.21653C16.3128 3.2214 16.3079 3.22141 16.3079 3.22628C16.3031 3.23116 16.2982 3.23603 16.2933 3.24091C16.2836 3.25066 16.2738 3.26042 16.2689 3.26529C16.2543 3.27992 16.2397 3.28967 16.225 3.29943C16.2104 3.30918 16.1958 3.31893 16.1812 3.32868C16.1665 3.33844 16.147 3.34819 16.1324 3.35794C16.1275 3.35794 16.1275 3.36282 16.1226 3.36282C16.1178 3.36282 16.1178 3.36769 16.1129 3.36769H16.108C16.0983 3.37257 16.0885 3.37745 16.0787 3.38232C16.0739 3.3872 16.069 3.3872 16.0641 3.39208C16.0592 3.39696 16.0544 3.39695 16.0495 3.39695C16.0446 3.39695 16.0446 3.40183 16.0397 3.40183C15.8739 3.46035 15.6886 3.46035 15.5228 3.39695C15.5082 3.39208 15.4985 3.3872 15.4887 3.38232C15.4594 3.36769 15.4302 3.35794 15.4058 3.33844C15.3814 3.32381 15.3522 3.3043 15.3278 3.2848C15.318 3.27504 15.3034 3.26529 15.2937 3.25554C15.2839 3.24579 15.2741 3.23603 15.2644 3.22628C15.2546 3.21653 15.2449 3.20677 15.2351 3.19214C15.2254 3.18239 15.2156 3.16777 15.2107 3.15801C15.201 3.14338 15.1961 3.13363 15.1864 3.12387C15.1815 3.11412 15.1717 3.10437 15.1669 3.08974C15.1571 3.07511 15.1522 3.06048 15.1474 3.04585C15.1425 3.03122 15.1376 3.02147 15.1327 3.00684C15.1278 2.99222 15.123 2.97758 15.1181 2.96295C15.1132 2.94832 15.1132 2.93857 15.1083 2.92394C15.1035 2.90931 15.1035 2.89469 15.0986 2.87518V2.8703C15.0937 2.84104 15.0937 2.80691 15.0937 2.77277V1.75848H12.4214V11.7112H14.1379C14.3086 11.7112 14.4549 11.7551 14.5671 11.8478C14.6207 11.8917 14.6548 11.9307 14.6841 11.9697C14.7865 12.1014 14.8353 12.2281 14.8694 12.3354C14.9328 12.5305 14.9572 12.6378 14.9962 12.7987C15.123 13.3351 15.4985 14.0714 16.1519 14.6517C16.3226 14.8029 16.4981 14.9443 16.6883 15.0613C17.2637 15.4368 17.8781 15.6221 18.517 15.6221C19.4825 15.6221 20.2969 15.4271 20.9405 15.0418C21.5745 14.6615 21.8183 14.2031 21.8768 13.6131C21.8914 13.4619 21.9012 12.9108 21.5599 12.3598C21.3794 12.0721 21.1746 11.9063 21.0332 11.7893C20.7162 11.5357 20.4236 11.4187 19.8043 11.209C19.3898 11.0676 18.8827 10.9018 18.2926 10.7311L17.527 10.5068C16.5664 10.1996 15.9617 9.98012 15.674 9.84358C14.65 9.31205 14.0989 8.49769 14.0355 7.41025C14.0355 6.34231 14.4744 5.54745 15.3327 5.05006C16.1714 4.55754 17.2101 4.30885 18.4243 4.30885H18.517C19.6093 4.30885 20.5699 4.62094 21.3794 5.23536C21.5013 5.11345 21.6623 5.05494 21.8573 5.05494C22.0475 5.05494 22.2084 5.12321 22.3449 5.25975C22.4815 5.39141 22.5546 5.55721 22.5546 5.73763V7.43951C22.5546 7.70771 22.4327 7.91252 22.2035 8.02468C21.9743 8.13683 21.7451 8.14171 21.516 8.02955C21.2868 7.90764 21.1649 7.70771 21.1649 7.43951V6.91773C20.7211 6.37157 20.4236 6.14238 19.9994 5.94732C19.6239 5.77177 19.1265 5.67424 18.517 5.67424H18.3999C17.449 5.67424 16.7029 5.83029 16.1812 6.1375C15.9081 6.29843 15.7081 6.49348 15.5814 6.72755C15.5326 6.8202 15.4009 7.07865 15.4204 7.41512C15.4643 8.07832 16.0788 8.50257 16.347 8.6196C16.386 8.63423 16.5176 8.68787 16.659 8.74638C16.6932 8.76101 16.8346 8.81466 17.0931 8.90243C17.2735 8.96583 17.3222 8.98045 17.5417 9.0536C17.7562 9.12675 17.922 9.18526 18.0049 9.21452C18.2 9.28279 18.5804 9.40958 19.3898 9.6534C19.9604 9.80457 20.526 10.0094 21.0527 10.2483C21.5794 10.4629 22.106 10.8189 22.579 11.4284C22.9789 11.9453 23.2568 12.6426 23.2568 13.6033Z" fill="white"/>
</svg>
