<svg width="20" height="21" viewBox="0 0 20 21" fill="none" xmlns="http://www.w3.org/2000/svg">
<path fill-rule="evenodd" clip-rule="evenodd" d="M19.5 16.1232H15.56C15.4151 16.8278 15.0316 17.4608 14.4741 17.9153C13.9166 18.3699 13.2193 18.6181 12.5 18.6181C11.7807 18.6181 11.0834 18.3699 10.5259 17.9153C9.96841 17.4608 9.58485 16.8278 9.44 16.1232H0.5V14.8782H9.44C9.58485 14.1736 9.96841 13.5406 10.5259 13.0861C11.0834 12.6315 11.7807 12.3833 12.5 12.3833C13.2193 12.3833 13.9166 12.6315 14.4741 13.0861C15.0316 13.5406 15.4151 14.1736 15.56 14.8782H19.5V16.1232ZM10.622 15.5002C10.6162 15.7504 10.6605 15.9992 10.7523 16.2321C10.844 16.4649 10.9814 16.6771 11.1563 16.8561C11.3312 17.0351 11.5402 17.1773 11.7708 17.2744C12.0015 17.3715 12.2492 17.4215 12.4995 17.4215C12.7498 17.4215 12.9975 17.3715 13.2282 17.2744C13.4588 17.1773 13.6678 17.0351 13.8427 16.8561C14.0176 16.6771 14.155 16.4649 14.2467 16.2321C14.3385 15.9992 14.3828 15.7504 14.377 15.5002C14.3657 15.0098 14.1629 14.5432 13.812 14.2003C13.4612 13.8575 12.9901 13.6655 12.4995 13.6655C12.0089 13.6655 11.5378 13.8575 11.187 14.2003C10.8361 14.5432 10.6333 15.0098 10.622 15.5002Z" fill="#252525"/>
<path fill-rule="evenodd" clip-rule="evenodd" d="M0.5 6.12319V4.87819H4.44C4.58485 4.17362 4.96841 3.54061 5.52591 3.08607C6.08341 2.63153 6.78069 2.3833 7.5 2.3833C8.21931 2.3833 8.91659 2.63153 9.47409 3.08607C10.0316 3.54061 10.4151 4.17362 10.56 4.87819H19.5V6.12319H10.56C10.4151 6.82777 10.0316 7.46077 9.47409 7.91532C8.91659 8.36986 8.21931 8.61809 7.5 8.61809C6.78069 8.61809 6.08341 8.36986 5.52591 7.91532C4.96841 7.46077 4.58485 6.82777 4.44 6.12319H0.5ZM5.622 5.50019C5.61623 5.7504 5.66052 5.99923 5.75228 6.23207C5.84403 6.46491 5.98141 6.67707 6.15632 6.85606C6.33123 7.03506 6.54016 7.17729 6.77082 7.2744C7.00149 7.3715 7.24923 7.42153 7.4995 7.42153C7.74977 7.42153 7.99751 7.3715 8.22818 7.2744C8.45884 7.17729 8.66777 7.03506 8.84268 6.85606C9.01759 6.67707 9.15497 6.46491 9.24672 6.23207C9.33848 5.99923 9.38277 5.7504 9.377 5.50019C9.36568 5.00975 9.1629 4.54321 8.81204 4.20035C8.46117 3.85749 7.99007 3.66553 7.4995 3.66553C7.00893 3.66553 6.53783 3.85749 6.18696 4.20035C5.8361 4.54321 5.63332 5.00975 5.622 5.50019Z" fill="#252525"/>
</svg>
