<svg width="33" height="34" viewBox="0 0 33 34" fill="none" xmlns="http://www.w3.org/2000/svg">
<path d="M26.7969 8H21.4688V6.5C21.4688 5.83696 21.2136 5.20107 20.7594 4.73223C20.3052 4.26339 19.6892 4 19.0469 4H13.2344C12.5921 4 11.976 4.26339 11.5219 4.73223C11.0677 5.20107 10.8125 5.83696 10.8125 6.5V8H5.48438C5.35591 8 5.23271 8.05268 5.14187 8.14645C5.05103 8.24021 5 8.36739 5 8.5C5 8.63261 5.05103 8.75979 5.14187 8.85355C5.23271 8.94732 5.35591 9 5.48438 9H6.9375V27.5C6.9375 27.8978 7.0906 28.2794 7.36311 28.5607C7.63562 28.842 8.00523 29 8.39062 29H23.8906C24.276 29 24.6456 28.842 24.9181 28.5607C25.1907 28.2794 25.3438 27.8978 25.3438 27.5V9H26.7969C26.9253 9 27.0485 8.94732 27.1394 8.85355C27.2302 8.75979 27.2812 8.63261 27.2812 8.5C27.2812 8.36739 27.2302 8.24021 27.1394 8.14645C27.0485 8.05268 26.9253 8 26.7969 8ZM11.7812 6.5C11.7812 6.10218 11.9343 5.72064 12.2069 5.43934C12.4794 5.15804 12.849 5 13.2344 5H19.0469C19.4323 5 19.8019 5.15804 20.0744 5.43934C20.3469 5.72064 20.5 6.10218 20.5 6.5V8H11.7812V6.5ZM24.375 27.5C24.375 27.6326 24.324 27.7598 24.2331 27.8536C24.1423 27.9473 24.0191 28 23.8906 28H8.39062C8.26216 28 8.13896 27.9473 8.04812 27.8536C7.95728 27.7598 7.90625 27.6326 7.90625 27.5V9H24.375V27.5ZM13.7188 14.5V22.5C13.7188 22.6326 13.6677 22.7598 13.5769 22.8536C13.486 22.9473 13.3628 23 13.2344 23C13.1059 23 12.9827 22.9473 12.8919 22.8536C12.801 22.7598 12.75 22.6326 12.75 22.5V14.5C12.75 14.3674 12.801 14.2402 12.8919 14.1464C12.9827 14.0527 13.1059 14 13.2344 14C13.3628 14 13.486 14.0527 13.5769 14.1464C13.6677 14.2402 13.7188 14.3674 13.7188 14.5ZM19.5312 14.5V22.5C19.5312 22.6326 19.4802 22.7598 19.3894 22.8536C19.2985 22.9473 19.1753 23 19.0469 23C18.9184 23 18.7952 22.9473 18.7044 22.8536C18.6135 22.7598 18.5625 22.6326 18.5625 22.5V14.5C18.5625 14.3674 18.6135 14.2402 18.7044 14.1464C18.7952 14.0527 18.9184 14 19.0469 14C19.1753 14 19.2985 14.0527 19.3894 14.1464C19.4802 14.2402 19.5312 14.3674 19.5312 14.5Z" fill="black"/>
</svg>
