<svg width="20" height="21" viewBox="0 0 20 21" fill="none" xmlns="http://www.w3.org/2000/svg">
<path d="M17.0508 3.41006C16.134 2.48399 15.042 1.74973 13.8384 1.25011C12.6349 0.750494 11.3439 0.49552 10.0408 0.50006C4.58078 0.50006 0.130781 4.95006 0.130781 10.4101C0.130781 12.1601 0.590781 13.8601 1.45078 15.3601L0.0507812 20.5001L5.30078 19.1201C6.75078 19.9101 8.38078 20.3301 10.0408 20.3301C15.5008 20.3301 19.9508 15.8801 19.9508 10.4201C19.9508 7.77006 18.9208 5.28006 17.0508 3.41006ZM10.0408 18.6501C8.56078 18.6501 7.11078 18.2501 5.84078 17.5001L5.54078 17.3201L2.42078 18.1401L3.25078 15.1001L3.05078 14.7901C2.22853 13.477 1.79192 11.9593 1.79078 10.4101C1.79078 5.87006 5.49078 2.17006 10.0308 2.17006C12.2308 2.17006 14.3008 3.03006 15.8508 4.59006C16.6183 5.35402 17.2265 6.26272 17.6402 7.26348C18.0539 8.26425 18.2648 9.33717 18.2608 10.4201C18.2808 14.9601 14.5808 18.6501 10.0408 18.6501ZM14.5608 12.4901C14.3108 12.3701 13.0908 11.7701 12.8708 11.6801C12.6408 11.6001 12.4808 11.5601 12.3108 11.8001C12.1408 12.0501 11.6708 12.6101 11.5308 12.7701C11.3908 12.9401 11.2408 12.9601 10.9908 12.8301C10.7408 12.7101 9.94078 12.4401 9.00078 11.6001C8.26078 10.9401 7.77078 10.1301 7.62078 9.88006C7.48078 9.63006 7.60078 9.50006 7.73078 9.37006C7.84078 9.26006 7.98078 9.08006 8.10078 8.94006C8.22078 8.80006 8.27078 8.69006 8.35078 8.53006C8.43078 8.36006 8.39078 8.22006 8.33078 8.10006C8.27078 7.98006 7.77078 6.76006 7.57078 6.26006C7.37078 5.78006 7.16078 5.84006 7.01078 5.83006H6.53078C6.36078 5.83006 6.10078 5.89006 5.87078 6.14006C5.65078 6.39006 5.01078 6.99006 5.01078 8.21006C5.01078 9.43006 5.90078 10.6101 6.02078 10.7701C6.14078 10.9401 7.77078 13.4401 10.2508 14.5101C10.8408 14.7701 11.3008 14.9201 11.6608 15.0301C12.2508 15.2201 12.7908 15.1901 13.2208 15.1301C13.7008 15.0601 14.6908 14.5301 14.8908 13.9501C15.1008 13.3701 15.1008 12.8801 15.0308 12.7701C14.9608 12.6601 14.8108 12.6101 14.5608 12.4901Z" fill="#841A10"/>
</svg>
