<svg width="113" height="105" viewBox="0 0 113 105" fill="none" xmlns="http://www.w3.org/2000/svg">
<path d="M104.915 50.086C104.776 51.0092 104.949 51.9548 104.998 52.8904C105.085 54.5324 105.215 56.1732 105.252 57.8127C105.365 62.7525 105.059 67.904 102.606 72.318C102.408 72.6743 102.199 73.0282 101.977 73.3782C101.798 73.661 101.586 73.9202 101.355 74.1619C99.2956 76.3209 97.4506 78.7067 95.7555 81.2258C92.988 85.3383 90.957 90.9757 87.2059 94.2535C84.2475 96.8386 80.183 97.7718 76.4955 98.8083C73.0378 99.7801 70.3989 101.838 67.222 103.396C64.1662 104.893 60.5336 105.239 57.1857 104.856C54.3783 104.534 51.6732 104.761 48.8771 104.084C46.2581 103.45 43.5681 102.418 41.0977 101.661C35.1783 99.8486 28.3901 100.582 23.2783 96.6779C19.2164 93.577 16.4913 89.0347 12.1735 86.2204C10.2961 84.9969 8.39116 83.7374 6.98807 81.9945C3.37926 77.5132 6.11552 71.2042 4.38913 66.0776C4.18441 65.4672 3.94848 64.8592 3.67885 64.2537C3.48287 63.7778 3.27066 63.3093 3.04347 62.8471C-0.43927 55.7483 -0.97354 47.2218 1.65037 39.753C1.78394 39.3743 1.9587 39.008 2.17715 38.6716C3.69508 36.3332 5.76724 34.3099 6.83703 31.7173C7.87561 29.2032 7.97048 26.4225 8.77189 23.8386C9.73806 20.7241 11.7403 17.5048 14.4741 15.6622C17.681 13.5032 21.4533 12.3346 24.6677 9.96373C29.2514 6.58377 33.6816 2.35912 39.2178 0.577572C44.8139 -1.22516 49.9319 1.74991 55.4955 1.948C56.0273 1.96668 56.5591 1.96918 57.0983 1.96918C57.1183 1.96918 57.137 1.96918 57.157 1.96918C59.8183 1.96544 62.069 3.96376 62.3461 6.60619C62.416 7.26649 62.5758 7.90311 62.8642 8.47495C63.5795 9.89521 63.5545 11.5771 62.8567 13.0061C61.5285 15.7257 60.2166 20.0239 62.3037 24.0916C64.2348 27.8577 67.8012 29.1272 70.525 29.5222C72.6233 29.8262 74.306 31.3685 74.854 33.4117C75.5394 35.9706 76.9075 39.084 79.5963 40.2513C82.576 41.5445 86.8202 40.6837 89.6738 39.819C91.4101 39.2933 93.3076 39.6808 94.657 40.8905C96.1412 42.2198 98.4543 43.6463 101.479 43.5316C101.479 43.5316 105.952 43.204 104.913 50.0873L104.915 50.086Z" fill="#841A10"/>
<path d="M19.2152 27.9003C20.5808 24.397 25.2607 22.6453 28.9668 25.5643C32.6718 28.4833 30.124 35.6905 22.6917 35.1012C17.7809 34.7125 17.8508 31.4036 19.2164 27.899L19.2152 27.9003ZM51.8194 7.24176C49.0731 6.40206 46.6152 8.67447 46.9335 11.4926C47.1907 13.7687 49.163 15.6748 51.3675 16.1221C54.2723 16.7114 56.7751 17.3032 56.8562 13.3663C56.8163 12.9191 56.7364 12.4867 56.6178 12.0744C56.0049 9.93153 53.9477 7.89582 51.8181 7.243L51.8194 7.24176ZM42.9615 45.5189C42.2911 45.6597 41.7007 45.3433 41.0291 45.4479C40.1815 45.58 39.3539 46.0086 38.7073 46.5617C33.2073 51.266 44.3571 57.7369 48.8896 53.227C51.4736 50.6555 51.3862 45.5775 47.3991 44.4724C46.5553 44.2382 45.6228 44.2283 44.7902 44.5148C44.1598 44.7316 43.6955 45.3209 43.0588 45.4953C43.0264 45.504 42.9939 45.5115 42.9627 45.5189H42.9615ZM65.0176 31.8496C64.6618 31.6839 64.3622 31.3724 64.1413 30.7819C63.7406 29.7117 64.0938 28.958 63.0902 28.2229C59.6486 25.7026 57.6189 30.6386 57.7762 33.1851C57.956 36.0867 59.5825 39.4866 62.6795 40.1506C64.6331 40.5692 66.8825 39.9276 68.2494 38.4501C69.2168 37.4035 69.8522 35.7553 69.4278 34.3537C68.6476 31.7798 66.8326 32.6968 65.0176 31.8508V31.8496ZM25.1908 61.0022C22.3334 58.3237 17.3502 57.3295 14.8574 61.3087C13.86 62.8012 13.86 64.7908 14.3593 66.2834C16.3528 70.7597 21.8353 68.273 25.7512 68.7763C26.1257 68.6243 26.4029 68.3402 26.5963 67.964C26.7898 67.589 26.8997 67.1218 26.9409 66.6098C26.9821 66.0977 26.9533 65.5371 26.8685 64.9752C26.3205 63.7954 26.3205 62.8012 25.8037 61.9341C25.6039 61.5728 25.3955 61.2551 25.1908 61.0022ZM39.6085 76.6114C36.7874 77.7227 34.2958 81.2048 36.2893 84.1886C38.2829 86.1782 42.2699 84.1886 43.9688 86.9954C44.2073 87.4701 44.4682 87.7218 44.7353 87.8165C45.2696 88.0046 45.8288 87.566 46.2669 86.9842C46.4854 86.6927 46.6751 86.3663 46.8149 86.0636C49.7459 81.7019 46.7563 74.2405 40.7982 76.1392C40.3887 76.2513 39.988 76.4108 39.6085 76.6114ZM72.8756 65.3029C74.2312 62.2443 73.9778 57.6023 70.0669 56.7141C68.4741 56.3515 66.5255 56.9732 66.2222 58.7672C65.5905 62.5035 57.9959 58.609 58.7973 63.9325C59.3853 67.8382 63.4634 69.5861 67.1609 69.1239C69.6025 68.8186 71.8782 67.5504 72.8743 65.3029H72.8756ZM93.9068 51.4529C91.1768 49.7012 84.5459 52.4483 85.9115 56.4275C87.2771 60.4067 92.5424 62.3527 95.6632 60.2124C98.7839 58.0708 99.3219 55.4632 97.7615 53.3229C96.2012 51.1813 93.9081 51.4541 93.9081 51.4541L93.9068 51.4529ZM78.7288 85.9452C79.1495 84.1886 81.143 81.2048 79.1495 80.7065C77.156 80.2094 74.1651 80.2094 72.5323 81.9934C72.2589 82.1815 71.998 82.3871 71.7496 82.6126C71.5024 82.8381 71.2678 83.0823 71.0506 83.3489C70.1019 84.51 69.1619 86.0573 69.4715 87.6134C69.6949 88.7371 70.4938 89.7301 71.5461 90.1885C73.285 90.9473 75.2573 90.2259 76.6616 89.0411C76.9425 88.8044 77.2009 88.5478 77.4281 88.2824C77.7477 87.9086 78.011 87.515 78.2257 87.1188C78.4405 86.7239 78.6027 86.3302 78.7301 85.9452H78.7288Z" fill="#F8F8F8"/>
<path d="M97.7146 36.0704C97.9019 36.8777 97.5761 38.0725 96.5325 37.9429C95.0608 37.7598 91.97 38.7889 91.6679 36.9263C91.3671 35.0713 94.1857 33.8454 96.1006 34.4135C96.8783 34.644 97.5062 35.1709 97.7159 36.0717L97.7146 36.0704ZM110.988 41.379C110.081 40.5243 109.215 40.0995 108.321 41.4973C107.527 42.7394 109.013 44.0675 108.688 45.2971C108.364 46.5268 108.113 47.2805 109.773 47.5783C111.033 47.805 112.533 46.7436 112.898 45.5675C113.326 44.1821 112.355 42.7843 111.442 41.8349C111.289 41.6755 111.136 41.521 110.986 41.379H110.988ZM109.199 35.7964C107.535 35.7964 106.786 37.3524 108.097 37.8719C109.407 38.3902 112.215 36.3159 109.199 35.7964ZM76.9842 2.95352C75.5449 2.1213 74.1144 3.09305 74.987 4.19687C75.8595 5.30193 79.3323 4.91073 76.9842 2.95352ZM102.368 38.3466C101.411 38.3142 99.7444 39.0268 101.891 40.2739C102.62 40.6975 104.343 42.4566 104.489 40.614C104.588 39.3732 103.57 38.3877 102.368 38.3466ZM101.316 31.3848C100.5 32.1971 99.8193 33.4604 100.624 33.8005C101.775 34.2852 104.494 33.9064 104.095 32.1784C103.955 31.5742 103.202 30.9525 102.642 30.7046C102.343 30.5725 101.805 30.8977 101.315 31.3848H101.316ZM65.8332 1.18194C64.4539 0.799463 63.7661 2.76914 64.7198 3.72096C65.6734 4.67278 64.5612 5.61837 66.6284 6.25624C68.6956 6.89536 68.6956 1.97429 65.8332 1.18069V1.18194ZM67.6158 10.2242C66.938 10.2591 66.5023 10.9468 66.6484 11.581C66.8244 12.3422 67.4473 12.3758 68.0627 12.5913C68.4484 12.7259 68.904 13.7213 69.3959 13.2753C69.5207 13.1632 69.5681 12.985 69.5606 12.8168C69.5144 11.7666 68.8953 10.157 67.6145 10.2242H67.6158Z" fill="#841A10"/>
</svg>
