<svg width="364" height="97" viewBox="0 0 364 97" fill="none" xmlns="http://www.w3.org/2000/svg">
<path d="M1.04331 94.5019C0.768211 94.478 0.525802 94.6816 0.50188 94.9567C0.477958 95.2318 0.681581 95.4742 0.956685 95.4981L1.04331 94.5019ZM198.018 54.3997L198.212 54.8605L198.018 54.3997ZM230.111 38.766L229.859 38.3338L230.111 38.766ZM254.224 19.6647L254.649 19.9285L254.224 19.6647ZM215.971 2.26778L215.91 2.76408L215.971 2.26778ZM126.381 16.9611L126.606 17.4075L126.381 16.9611ZM100.741 42.5862L101.241 42.5585L100.741 42.5862ZM122.098 63.8034L122.3 63.3461L122.098 63.8034ZM254.459 81.0239L254.464 81.5239L254.459 81.0239ZM363.378 75.474C363.559 75.2653 363.536 74.9495 363.327 74.7687L359.926 71.822C359.718 71.6411 359.402 71.6637 359.221 71.8724C359.04 72.0811 359.063 72.3969 359.272 72.5777L362.295 75.1971L359.675 78.2202C359.495 78.4289 359.517 78.7446 359.726 78.9255C359.935 79.1063 360.25 79.0837 360.431 78.875L363.378 75.474ZM4.33767 95.7691C4.61307 95.7893 4.85271 95.5824 4.87292 95.307C4.89312 95.0316 4.68625 94.792 4.41084 94.7718L4.33767 95.7691ZM11.1556 95.1769C10.8798 95.164 10.6457 95.3771 10.6327 95.6529C10.6198 95.9288 10.8329 96.1629 11.1087 96.1758L11.1556 95.1769ZM17.8876 96.4073C18.1637 96.4132 18.3923 96.1942 18.3983 95.9181C18.4042 95.6421 18.1852 95.4134 17.9091 95.4075L17.8876 96.4073ZM24.6668 95.4694C24.3906 95.4703 24.1675 95.6948 24.1683 95.9709C24.1691 96.2471 24.3937 96.4703 24.6698 96.4694L24.6668 95.4694ZM31.4511 96.3683C31.7272 96.361 31.945 96.1312 31.9376 95.8552C31.9303 95.5791 31.7005 95.3613 31.4245 95.3687L31.4511 96.3683ZM38.1785 95.1113C37.9027 95.1249 37.6902 95.3596 37.7038 95.6354C37.7174 95.9112 37.9521 96.1237 38.2279 96.1101L38.1785 95.1113ZM44.9968 95.7006C45.2722 95.6809 45.4796 95.4417 45.4599 95.1663C45.4402 94.8908 45.201 94.6835 44.9256 94.7032L44.9968 95.7006ZM51.6627 94.1502C51.3878 94.1757 51.1855 94.4192 51.211 94.6942C51.2364 94.9692 51.48 95.1714 51.755 95.146L51.6627 94.1502ZM58.4998 94.4519C58.7742 94.4208 58.9715 94.1732 58.9405 93.8989C58.9094 93.6245 58.6618 93.4272 58.3874 93.4582L58.4998 94.4519ZM65.0975 92.6328C64.8237 92.6691 64.6313 92.9205 64.6677 93.1943C64.704 93.468 64.9554 93.6604 65.2291 93.6241L65.0975 92.6328ZM71.941 92.668C72.2141 92.6266 72.4017 92.3716 72.3603 92.0986C72.3188 91.8256 72.0639 91.6379 71.7908 91.6794L71.941 92.668ZM78.4659 90.6033C78.1937 90.6497 78.0106 90.908 78.057 91.1802C78.1034 91.4524 78.3617 91.6355 78.6339 91.5891L78.4659 90.6033ZM85.3063 90.3925C85.5776 90.3414 85.7562 90.08 85.7052 89.8086C85.6541 89.5373 85.3927 89.3587 85.1213 89.4098L85.3063 90.3925ZM91.7561 88.1035C91.4856 88.1591 91.3114 88.4234 91.367 88.6939C91.4225 88.9644 91.6869 89.1386 91.9574 89.083L91.7561 88.1035ZM98.5861 87.6656C98.8556 87.6057 99.0256 87.3386 98.9657 87.069C98.9059 86.7995 98.6388 86.6295 98.3692 86.6894L98.5861 87.6656ZM104.96 85.1719C104.691 85.2359 104.525 85.5055 104.589 85.7742C104.653 86.0428 104.923 86.2087 105.192 86.1447L104.96 85.1719ZM111.773 84.5247C112.041 84.4567 112.203 84.1847 112.135 83.917C112.067 83.6494 111.795 83.4875 111.527 83.5554L111.773 84.5247ZM118.071 81.8442C117.804 81.9159 117.646 82.1903 117.718 82.4569C117.79 82.7236 118.064 82.8816 118.331 82.8099L118.071 81.8442ZM124.863 81.0043C125.129 80.9289 125.283 80.6525 125.208 80.3868C125.133 80.1211 124.856 79.9669 124.591 80.0422L124.863 81.0043ZM131.086 78.1534C130.821 78.2322 130.671 78.5107 130.749 78.7753C130.828 79.04 131.107 79.1906 131.371 79.1118L131.086 78.1534ZM137.854 77.1361C138.118 77.054 138.265 76.7736 138.183 76.51C138.101 76.2464 137.82 76.0992 137.557 76.1814L137.854 77.1361ZM144.003 74.1298C143.74 74.2151 143.597 74.4972 143.682 74.7598C143.767 75.0225 144.049 75.1662 144.312 75.0809L144.003 74.1298ZM150.744 72.9496C151.006 72.8612 151.147 72.5775 151.058 72.3159C150.97 72.0542 150.686 71.9138 150.425 72.0021L150.744 72.9496ZM156.821 69.8017C156.561 69.893 156.423 70.1783 156.515 70.4389C156.606 70.6995 156.891 70.8368 157.152 70.7455L156.821 69.8017ZM163.534 68.4721C163.794 68.3781 163.928 68.0913 163.834 67.8317C163.74 67.5721 163.453 67.4378 163.194 67.5319L163.534 68.4721ZM169.541 65.1958C169.282 65.2925 169.151 65.5805 169.248 65.8392C169.345 66.0979 169.633 66.2292 169.891 66.1325L169.541 65.1958ZM176.223 63.7299C176.481 63.6307 176.609 63.3413 176.51 63.0836C176.411 62.8259 176.122 62.6974 175.864 62.7966L176.223 63.7299ZM182.169 60.3351C181.912 60.4367 181.786 60.7272 181.888 60.984C181.989 61.2407 182.28 61.3665 182.537 61.2649L182.169 60.3351ZM188.828 58.7419C189.084 58.638 189.207 58.3464 189.103 58.0905C188.999 57.8347 188.707 57.7115 188.452 57.8154L188.828 58.7419ZM194.712 55.2414C194.457 55.3475 194.336 55.6402 194.442 55.8951C194.548 56.1501 194.841 56.2707 195.096 56.1646L194.712 55.2414ZM200.957 53.6986C201.211 53.5904 201.33 53.2967 201.222 53.0427C201.113 52.7886 200.82 52.6703 200.566 52.7785L200.957 53.6986ZM206.024 50.4168C205.771 50.5282 205.657 50.8234 205.768 51.076C205.879 51.3287 206.175 51.4431 206.427 51.3317L206.024 50.4168ZM211.86 48.8733C212.111 48.7569 212.219 48.4595 212.103 48.2091C211.986 47.9587 211.689 47.8502 211.439 47.9667L211.86 48.8733ZM216.793 45.3931C216.546 45.516 216.445 45.8161 216.568 46.0634C216.691 46.3106 216.991 46.4115 217.238 46.2886L216.793 45.3931ZM222.545 43.5582C222.788 43.4284 222.881 43.1256 222.751 42.8819C222.621 42.6381 222.318 42.5457 222.075 42.6755L222.545 43.5582ZM227.28 39.8144C227.04 39.9505 226.956 40.2556 227.092 40.4959C227.228 40.7362 227.533 40.8207 227.773 40.6846L227.28 39.8144ZM233.716 37.2427C233.954 37.1027 234.034 36.7963 233.894 36.5582C233.754 36.3202 233.447 36.2407 233.209 36.3807L233.716 37.2427ZM239.796 32.3176C239.566 32.4693 239.502 32.7794 239.653 33.0101C239.805 33.2408 240.115 33.3048 240.346 33.153L239.796 32.3176ZM246.668 28.5633C246.882 28.3888 246.914 28.0739 246.739 27.8598C246.565 27.6458 246.25 27.6138 246.036 27.7883L246.668 28.5633ZM251.55 22.47C251.372 22.681 251.398 22.9964 251.609 23.1746C251.82 23.3528 252.136 23.3262 252.314 23.1153L251.55 22.47ZM255.447 15.8487C255.381 15.5806 255.11 15.4169 254.842 15.4831C254.574 15.5493 254.41 15.8203 254.476 16.0884L255.447 15.8487ZM249.388 11.0865C249.631 11.2179 249.934 11.1276 250.066 10.8847C250.197 10.6419 250.107 10.3385 249.864 10.207L249.388 11.0865ZM242.635 7.22353C242.372 7.13769 242.09 7.28086 242.004 7.54332C241.918 7.80578 242.061 8.08814 242.324 8.17399L242.635 7.22353ZM234.901 6.11073C235.17 6.17479 235.44 6.00898 235.504 5.74037C235.568 5.47176 235.402 5.20208 235.133 5.13801L234.901 6.11073ZM227.527 3.54043C227.255 3.49019 226.994 3.66958 226.944 3.94112C226.894 4.21265 227.073 4.4735 227.345 4.52374L227.527 3.54043ZM219.717 3.27236C219.991 3.31172 220.244 3.12205 220.284 2.84873C220.323 2.57541 220.133 2.32193 219.86 2.28257L219.717 3.27236ZM212.753 1.40197C212.478 1.37365 212.233 1.57337 212.204 1.84806C212.176 2.12275 212.376 2.36838 212.65 2.3967L212.753 1.40197ZM206.113 1.84896C206.389 1.86673 206.627 1.65773 206.644 1.38216C206.662 1.10659 206.453 0.868797 206.178 0.851034L206.113 1.84896ZM199.586 0.554426C199.31 0.547394 199.08 0.765479 199.073 1.04153C199.066 1.31758 199.284 1.54707 199.56 1.5541L199.586 0.554426ZM193.001 1.51624C193.277 1.51236 193.498 1.28539 193.494 1.00927C193.49 0.733158 193.263 0.512461 192.987 0.516334L193.001 1.51624ZM186.391 0.740856C186.116 0.755799 185.904 0.991442 185.919 1.26718C185.934 1.54292 186.17 1.75433 186.445 1.73939L186.391 0.740856ZM179.905 2.22737C180.18 2.2012 180.381 1.95714 180.355 1.68224C180.329 1.40734 180.085 1.2057 179.81 1.23187L179.905 2.22737ZM173.254 1.99294C172.981 2.03048 172.789 2.28269 172.827 2.55627C172.865 2.82985 173.117 3.0212 173.39 2.98366L173.254 1.99294ZM166.913 4.01136C167.185 3.96234 167.366 3.7023 167.317 3.43054C167.268 3.15879 167.007 2.97823 166.736 3.02725L166.913 4.01136ZM160.267 4.33738C159.997 4.39799 159.828 4.66552 159.889 4.93493C159.949 5.20434 160.217 5.37361 160.486 5.313L160.267 4.33738ZM154.121 6.89046C154.388 6.81821 154.545 6.54358 154.473 6.27706C154.401 6.01054 154.126 5.85305 153.86 5.9253L154.121 6.89046ZM147.528 7.79216C147.265 7.87608 147.12 8.15738 147.203 8.42046C147.287 8.68354 147.569 8.82878 147.832 8.74485L147.528 7.79216ZM141.631 10.8761C141.891 10.7805 142.023 10.493 141.927 10.234C141.832 9.97488 141.544 9.84234 141.285 9.93793L141.631 10.8761ZM135.145 12.3619C134.89 12.469 134.771 12.7622 134.878 13.0167C134.985 13.2712 135.279 13.3907 135.533 13.2835L135.145 12.3619ZM129.55 15.965C129.799 15.8463 129.905 15.548 129.787 15.2986C129.668 15.0493 129.37 14.9433 129.12 15.062L129.55 15.965ZM123.323 17.9549C123.078 18.0816 122.981 18.3832 123.108 18.6286C123.235 18.8739 123.537 18.97 123.782 18.8433L123.323 17.9549ZM118.227 21.883C118.465 21.7434 118.545 21.4371 118.405 21.1988C118.266 20.9606 117.96 20.8806 117.721 21.0201L118.227 21.883ZM112.333 24.4708C112.107 24.6301 112.054 24.9422 112.213 25.1677C112.372 25.3932 112.684 25.4467 112.91 25.2874L112.333 24.4708ZM108.01 29.2255C108.212 29.0373 108.223 28.721 108.035 28.5188C107.847 28.3167 107.531 28.3053 107.328 28.4935L108.01 29.2255ZM103.081 33.3573C102.927 33.5863 102.987 33.8971 103.216 34.0514C103.445 34.2058 103.756 34.1454 103.91 33.9164L103.081 33.3573ZM101.46 39.5217C101.514 39.251 101.339 38.9875 101.068 38.9333C100.797 38.8791 100.534 39.0546 100.48 39.3254L101.46 39.5217ZM101.087 46.595C101.183 46.854 101.471 46.9861 101.73 46.8902C101.989 46.7943 102.121 46.5066 102.025 46.2477L101.087 46.595ZM106.178 52.6389C105.989 52.4372 105.673 52.4267 105.471 52.6154C105.27 52.804 105.259 53.1204 105.448 53.3221L106.178 52.6389ZM111.514 58.4775C111.741 58.6356 112.053 58.5801 112.211 58.3537C112.369 58.1273 112.313 57.8156 112.087 57.6575L111.514 58.4775ZM118.781 61.6621C118.535 61.5356 118.234 61.6321 118.107 61.8775C117.981 62.123 118.077 62.4245 118.323 62.551L118.781 61.6621ZM124.996 65.5895C125.251 65.6954 125.544 65.5745 125.65 65.3194C125.756 65.0644 125.635 64.7718 125.38 64.6659L124.996 65.5895ZM131.625 67.0994C131.366 67.0047 131.079 67.1382 130.984 67.3976C130.889 67.6569 131.023 67.944 131.282 68.0387L131.625 67.0994ZM137.665 70.2223C137.928 70.3064 138.21 70.1614 138.294 69.8984C138.378 69.6354 138.233 69.354 137.97 69.2698L137.665 70.2223ZM144.394 71.1916C144.128 71.1174 143.853 71.2728 143.778 71.5388C143.704 71.8048 143.86 72.0806 144.126 72.1548L144.394 71.1916ZM150.651 73.8534C150.919 73.9184 151.189 73.7536 151.254 73.4852C151.319 73.2168 151.155 72.9465 150.886 72.8815L150.651 73.8534ZM157.432 74.3557C157.162 74.2993 156.897 74.4726 156.841 74.743C156.784 75.0133 156.958 75.2782 157.228 75.3346L157.432 74.3557ZM163.844 76.6143C164.116 76.6629 164.376 76.4819 164.425 76.21C164.473 75.9382 164.292 75.6785 164.02 75.6299L163.844 76.6143ZM170.644 76.7206C170.371 76.6793 170.116 76.8672 170.075 77.1402C170.034 77.4133 170.222 77.6681 170.495 77.7094L170.644 76.7206ZM177.168 78.6347C177.442 78.6694 177.692 78.4754 177.727 78.2015C177.761 77.9275 177.567 77.6773 177.293 77.6426L177.168 78.6347ZM183.964 78.4112C183.689 78.3825 183.444 78.582 183.415 78.8566C183.386 79.1313 183.586 79.3772 183.86 79.4058L183.964 78.4112ZM190.566 80.0368C190.841 80.06 191.083 79.8557 191.107 79.5805C191.13 79.3054 190.925 79.0635 190.65 79.0403L190.566 80.0368ZM197.348 79.5437C197.073 79.5254 196.835 79.7339 196.816 80.0095C196.798 80.285 197.007 80.5232 197.282 80.5415L197.348 79.5437ZM204.004 80.9332C204.28 80.9471 204.515 80.7348 204.529 80.459C204.542 80.1832 204.33 79.9484 204.054 79.9344L204.004 80.9332ZM210.768 80.2253C210.492 80.2152 210.26 80.4308 210.25 80.7067C210.24 80.9827 210.455 81.2146 210.731 81.2246L210.768 80.2253ZM217.459 81.4283C217.735 81.435 217.964 81.2166 217.971 80.9406C217.978 80.6645 217.76 80.4353 217.483 80.4286L217.459 81.4283ZM224.204 80.5564C223.928 80.5525 223.701 80.7732 223.697 81.0493C223.693 81.3255 223.913 81.5524 224.19 81.5563L224.204 80.5564ZM230.92 81.6208C231.196 81.6223 231.421 81.3996 231.422 81.1235C231.424 80.8474 231.201 80.6223 230.925 80.6208L230.92 81.6208ZM237.646 80.6338C237.37 80.6342 237.146 80.8583 237.147 81.1345C237.147 81.4106 237.371 81.6342 237.647 81.6338L237.646 80.6338ZM244.378 81.6078C244.654 81.6061 244.876 81.3809 244.875 81.1048C244.873 80.8286 244.648 80.6061 244.372 80.6078L244.378 81.6078ZM251.094 80.5557C250.818 80.5582 250.596 80.784 250.599 81.0602C250.601 81.3363 250.827 81.5581 251.103 81.5556L251.094 80.5557ZM257.863 81.4833C258.139 81.4794 258.36 81.2524 258.356 80.9763C258.352 80.7002 258.125 80.4795 257.849 80.4834L257.863 81.4833ZM264.639 80.359C264.363 80.3652 264.144 80.594 264.15 80.8701C264.156 81.1461 264.385 81.3649 264.661 81.3587L264.639 80.359ZM271.458 81.18C271.734 81.1716 271.951 80.9412 271.942 80.6651C271.934 80.3891 271.704 80.1721 271.428 80.1804L271.458 81.18ZM278.215 79.952C277.939 79.9622 277.724 80.1942 277.734 80.4702C277.744 80.7461 277.976 80.9615 278.252 80.9513L278.215 79.952ZM285.045 80.6771C285.321 80.6651 285.535 80.4317 285.523 80.1558C285.511 79.8799 285.277 79.666 285.001 79.678L285.045 80.6771ZM291.786 79.3628C291.51 79.3764 291.298 79.611 291.311 79.8868C291.325 80.1627 291.56 80.3752 291.835 80.3616L291.786 79.3628ZM298.624 80.0093C298.899 79.9943 299.111 79.7586 299.096 79.4829C299.081 79.2072 298.845 78.9958 298.569 79.0108L298.624 80.0093ZM305.351 78.6262C305.076 78.6424 304.865 78.879 304.881 79.1547C304.898 79.4304 305.134 79.6407 305.41 79.6244L305.351 78.6262ZM312.194 79.2113C312.47 79.194 312.679 78.9566 312.662 78.681C312.645 78.4053 312.407 78.196 312.132 78.2133L312.194 79.2113ZM318.911 77.7764C318.635 77.7946 318.427 78.0327 318.445 78.3082C318.463 78.5838 318.701 78.7924 318.977 78.7742L318.911 77.7764ZM325.758 78.3175C326.033 78.2985 326.241 78.0599 326.222 77.7844C326.203 77.5089 325.965 77.3009 325.689 77.3198L325.758 78.3175ZM332.467 76.8478C332.191 76.8672 331.984 77.1063 332.003 77.3818C332.023 77.6572 332.262 77.8648 332.537 77.8453L332.467 76.8478ZM339.316 77.3621C339.591 77.3423 339.798 77.103 339.778 76.8275C339.759 76.5521 339.519 76.3449 339.244 76.3647L339.316 77.3621ZM346.021 75.8747C345.745 75.8947 345.538 76.1342 345.558 76.4096C345.578 76.685 345.818 76.8921 346.093 76.8721L346.021 75.8747ZM352.87 76.3795C353.146 76.3595 353.353 76.12 353.333 75.8446C353.313 75.5692 353.073 75.3621 352.798 75.3821L352.87 76.3795ZM359.575 74.8913C359.3 74.9112 359.093 75.1505 359.113 75.426C359.132 75.7014 359.372 75.9086 359.647 75.8887L359.575 74.8913ZM0.956685 95.4981C2.08305 95.5961 3.21007 95.6863 4.33767 95.7691L4.41084 94.7718C3.28769 94.6893 2.16516 94.5994 1.04331 94.5019L0.956685 95.4981ZM11.1087 96.1758C13.3668 96.2818 15.6267 96.3587 17.8876 96.4073L17.9091 95.4075C15.6565 95.3591 13.4051 95.2825 11.1556 95.1769L11.1087 96.1758ZM24.6698 96.4694C26.93 96.4626 29.1906 96.4286 31.4511 96.3683L31.4245 95.3687C29.1717 95.4287 26.9189 95.4626 24.6668 95.4694L24.6698 96.4694ZM38.2279 96.1101C40.4851 95.9985 42.7416 95.8617 44.9968 95.7006L44.9256 94.7032C42.6775 94.8637 40.4283 95.0001 38.1785 95.1113L38.2279 96.1101ZM51.755 95.146C54.0054 94.9375 56.2538 94.7058 58.4998 94.4519L58.3874 93.4582C56.1481 93.7114 53.9063 93.9424 51.6627 94.1502L51.755 95.146ZM65.2291 93.6241C67.4698 93.3264 69.7073 93.0074 71.941 92.668L71.7908 91.6794C69.5631 92.0178 67.3318 92.336 65.0975 92.6328L65.2291 93.6241ZM78.6339 91.5891C80.8625 91.2094 83.0869 90.8102 85.3063 90.3925L85.1213 89.4098C82.9075 89.8264 80.6888 90.2246 78.4659 90.6033L78.6339 91.5891ZM91.9574 89.083C94.1727 88.6279 96.3825 88.1551 98.5861 87.6656L98.3692 86.6894C96.1707 87.1777 93.9661 87.6494 91.7561 88.1035L91.9574 89.083ZM105.192 86.1447C107.393 85.6202 109.587 85.0799 111.773 84.5247L111.527 83.5554C109.345 84.1095 107.156 84.6486 104.96 85.1719L105.192 86.1447ZM118.331 82.8099C120.517 82.2218 122.695 81.6196 124.863 81.0043L124.591 80.0422C122.426 80.6563 120.252 81.2573 118.071 81.8442L118.331 82.8099ZM131.371 79.1118C133.542 78.4652 135.703 77.8063 137.854 77.1361L137.557 76.1814C135.41 76.8503 133.253 77.508 131.086 78.1534L131.371 79.1118ZM144.312 75.0809C146.468 74.3806 148.612 73.6698 150.744 72.9496L150.425 72.0021C148.296 72.7211 146.155 73.4307 144.003 74.1298L144.312 75.0809ZM157.152 70.7455C159.292 69.9959 161.42 69.2378 163.534 68.4721L163.194 67.5319C161.083 68.2964 158.959 69.0533 156.821 69.8017L157.152 70.7455ZM169.891 66.1325C172.017 65.3378 174.128 64.5366 176.223 63.7299L175.864 62.7966C173.772 63.6022 171.664 64.4023 169.541 65.1958L169.891 66.1325ZM182.537 61.2649C184.651 60.4279 186.749 59.5865 188.828 58.7419L188.452 57.8154C186.375 58.6589 184.28 59.4992 182.169 60.3351L182.537 61.2649ZM195.096 56.1646C196.139 55.7303 197.178 55.2956 198.212 54.8605L197.824 53.9388C196.791 54.3734 195.754 54.8076 194.712 55.2414L195.096 56.1646ZM198.212 54.8605C199.146 54.4672 200.06 54.0805 200.957 53.6986L200.566 52.7785C199.67 53.1597 198.757 53.546 197.824 53.9388L198.212 54.8605ZM206.427 51.3317C208.286 50.5119 210.087 49.6986 211.86 48.8733L211.439 47.9667C209.672 48.7887 207.877 49.5993 206.024 50.4168L206.427 51.3317ZM217.238 46.2886C218.995 45.4156 220.753 44.5117 222.545 43.5582L222.075 42.6755C220.292 43.6246 218.541 44.5242 216.793 45.3931L217.238 46.2886ZM227.773 40.6846C228.623 40.2034 229.485 39.7085 230.362 39.1981L229.859 38.3338C228.985 38.8423 228.127 39.3352 227.28 39.8144L227.773 40.6846ZM230.362 39.1981C231.427 38.5787 232.554 37.9264 233.716 37.2427L233.209 36.3807C232.049 37.0628 230.926 37.7129 229.859 38.3338L230.362 39.1981ZM240.346 33.153C242.509 31.7303 244.659 30.2014 246.668 28.5633L246.036 27.7883C244.061 29.399 241.94 30.9077 239.796 32.3176L240.346 33.153ZM252.314 23.1153C253.181 22.0894 253.966 21.0274 254.649 19.9285L253.8 19.4008C253.146 20.4531 252.39 21.4761 251.55 22.47L252.314 23.1153ZM254.649 19.9285C255.523 18.521 255.769 17.1528 255.447 15.8487L254.476 16.0884C254.723 17.0873 254.557 18.1813 253.8 19.4008L254.649 19.9285ZM249.864 10.207C247.801 9.09046 245.31 8.09869 242.635 7.22353L242.324 8.17399C244.967 9.03865 247.397 10.0087 249.388 11.0865L249.864 10.207ZM235.133 5.13801C232.529 4.51686 229.934 3.98572 227.527 3.54043L227.345 4.52374C229.739 4.96666 232.317 5.49437 234.901 6.11073L235.133 5.13801ZM219.86 2.28257C218.011 2.01634 216.655 1.84775 216.032 1.77148L215.91 2.76408C216.53 2.83985 217.878 3.00749 219.717 3.27236L219.86 2.28257ZM216.032 1.77148C214.939 1.63789 213.847 1.5147 212.753 1.40197L212.65 2.3967C213.738 2.50877 214.824 2.63125 215.91 2.76408L216.032 1.77148ZM206.178 0.851034C203.98 0.709418 201.783 0.610391 199.586 0.554426L199.56 1.5541C201.744 1.60973 203.929 1.70818 206.113 1.84896L206.178 0.851034ZM192.987 0.516334C190.786 0.547203 188.587 0.621886 186.391 0.740856L186.445 1.73939C188.627 1.62115 190.813 1.54692 193.001 1.51624L192.987 0.516334ZM179.81 1.23187C177.619 1.44045 175.433 1.69398 173.254 1.99294L173.39 2.98366C175.555 2.68659 177.728 2.43465 179.905 2.22737L179.81 1.23187ZM166.736 3.02725C164.571 3.41783 162.414 3.85439 160.267 4.33738L160.486 5.313C162.619 4.83316 164.762 4.39944 166.913 4.01136L166.736 3.02725ZM153.86 5.9253C151.737 6.50066 149.626 7.12279 147.528 7.79216L147.832 8.74485C149.916 8.07998 152.013 7.46201 154.121 6.89046L153.86 5.9253ZM141.285 9.93793C139.224 10.6985 137.177 11.5063 135.145 12.3619L135.533 13.2835C137.551 12.4338 139.584 11.6315 141.631 10.8761L141.285 9.93793ZM129.12 15.062C128.128 15.5343 127.139 16.0185 126.155 16.5146L126.606 17.4075C127.583 16.9149 128.564 16.434 129.55 15.965L129.12 15.062ZM126.155 16.5146C125.31 16.9408 124.355 17.4219 123.323 17.9549L123.782 18.8433C124.808 18.313 125.76 17.8342 126.606 17.4075L126.155 16.5146ZM117.721 21.0201C115.942 22.0624 114.11 23.2146 112.333 24.4708L112.91 25.2874C114.659 24.0513 116.466 22.9145 118.227 21.883L117.721 21.0201ZM107.328 28.4935C105.705 30.0046 104.247 31.6278 103.081 33.3573L103.91 33.9164C105.024 32.2646 106.427 30.6984 108.01 29.2255L107.328 28.4935ZM100.48 39.3254C100.266 40.3934 100.18 41.4903 100.242 42.6139L101.241 42.5585C101.183 41.5225 101.262 40.5103 101.46 39.5217L100.48 39.3254ZM100.242 42.6139C100.319 43.9912 100.615 45.32 101.087 46.595L102.025 46.2477C101.584 45.0578 101.311 43.8273 101.241 42.5585L100.242 42.6139ZM105.448 53.3221C107.237 55.2344 109.34 56.9595 111.514 58.4775L112.087 57.6575C109.953 56.1679 107.907 54.4873 106.178 52.6389L105.448 53.3221ZM118.323 62.551C119.593 63.2058 120.802 63.7773 121.895 64.2607L122.3 63.3461C121.224 62.8702 120.033 62.3072 118.781 61.6621L118.323 62.551ZM121.895 64.2607C122.923 64.7152 123.957 65.1581 124.996 65.5895L125.38 64.6659C124.347 64.2374 123.321 63.7975 122.3 63.3461L121.895 64.2607ZM131.282 68.0387C133.391 68.8086 135.519 69.5356 137.665 70.2223L137.97 69.2698C135.836 68.5872 133.721 67.8644 131.625 67.0994L131.282 68.0387ZM144.126 72.1548C146.286 72.7577 148.461 73.3232 150.651 73.8534L150.886 72.8815C148.708 72.3539 146.543 71.7913 144.394 71.1916L144.126 72.1548ZM157.228 75.3346C159.422 75.7928 161.629 76.2186 163.844 76.6143L164.02 75.6299C161.814 75.2358 159.617 74.8118 157.432 74.3557L157.228 75.3346ZM170.495 77.7094C172.712 78.0447 174.937 78.3524 177.168 78.6347L177.293 77.6426C175.07 77.3613 172.853 77.0547 170.644 76.7206L170.495 77.7094ZM183.86 79.4058C186.092 79.6385 188.328 79.8481 190.566 80.0368L190.65 79.0403C188.418 78.8522 186.189 78.6432 183.964 78.4112L183.86 79.4058ZM197.282 80.5415C199.523 80.6902 201.764 80.8201 204.004 80.9332L204.054 79.9344C201.819 79.8216 199.583 79.692 197.348 79.5437L197.282 80.5415ZM210.731 81.2246C212.977 81.3066 215.221 81.3738 217.459 81.4283L217.483 80.4286C215.249 80.3742 213.009 80.3071 210.768 80.2253L210.731 81.2246ZM224.19 81.5563C226.44 81.5878 228.684 81.6086 230.92 81.6208L230.925 80.6208C228.692 80.6086 226.451 80.5879 224.204 80.5564L224.19 81.5563ZM237.647 81.6338C239.902 81.631 242.146 81.6215 244.378 81.6078L244.372 80.6078C242.142 80.6215 239.899 80.631 237.646 80.6338L237.647 81.6338ZM251.103 81.5556C252.227 81.5454 253.348 81.5348 254.464 81.5239L254.454 80.524C253.338 80.5348 252.218 80.5455 251.094 80.5557L251.103 81.5556ZM254.464 81.5239C255.597 81.5129 256.73 81.4993 257.863 81.4833L257.849 80.4834C256.718 80.4994 255.586 80.5129 254.454 80.524L254.464 81.5239ZM264.661 81.3587C266.927 81.3079 269.192 81.2481 271.458 81.18L271.428 80.1804C269.165 80.2485 266.902 80.3083 264.639 80.359L264.661 81.3587ZM278.252 80.9513C280.517 80.8672 282.781 80.7756 285.045 80.6771L285.001 79.678C282.739 79.7764 280.477 79.868 278.215 79.952L278.252 80.9513ZM291.835 80.3616C294.098 80.2501 296.361 80.1324 298.624 80.0093L298.569 79.0108C296.308 79.1338 294.047 79.2514 291.786 79.3628L291.835 80.3616ZM305.41 79.6244C307.672 79.4912 309.933 79.3532 312.194 79.2113L312.132 78.2133C309.872 78.3551 307.612 78.493 305.351 78.6262L305.41 79.6244ZM318.977 78.7742C321.237 78.625 323.498 78.4725 325.758 78.3175L325.689 77.3198C323.43 77.4748 321.171 77.6272 318.911 77.7764L318.977 78.7742ZM332.537 77.8453C334.797 77.6858 337.056 77.5245 339.316 77.3621L339.244 76.3647C336.985 76.5271 334.726 76.6884 332.467 76.8478L332.537 77.8453ZM346.093 76.8721C348.352 76.7081 350.612 76.5436 352.87 76.3795L352.798 75.3821C350.539 75.5463 348.28 75.7107 346.021 75.8747L346.093 76.8721ZM359.647 75.8887C360.777 75.8073 361.906 75.7261 363.036 75.6453L362.964 74.6479C361.835 74.7287 360.705 74.8099 359.575 74.8913L359.647 75.8887Z" fill="white" fill-opacity="0.7"/>
</svg>
