<svg width="173" height="58" viewBox="0 0 173 58" fill="none" xmlns="http://www.w3.org/2000/svg">
<path d="M8.02738 32.4363V33.8696C8.02738 34.0932 7.92589 34.266 7.73307 34.3677C7.54025 34.4693 7.34744 34.4693 7.15462 34.3677C6.9618 34.266 6.86031 34.0932 6.86031 33.8696V33.0157H4.60736V41.4323H4.99301C5.22642 41.4323 5.39894 41.5339 5.50043 41.7271C5.60191 41.91 5.60191 42.1032 5.50043 42.2963C5.39894 42.4793 5.21627 42.5809 4.99301 42.5809H3.03437C2.80096 42.5809 2.62844 42.4793 2.52695 42.2963C2.42547 42.1032 2.42547 41.91 2.52695 41.7271C2.62844 41.5339 2.80096 41.4323 3.03437 41.4323H3.43016V33.0157H1.17722V33.8696C1.17722 34.0932 1.07572 34.266 0.882905 34.3677C0.690086 34.4693 0.497274 34.4693 0.304455 34.3677C0.111635 34.266 0 34.0932 0 33.8696V32.4363C0 32.2839 0.0507457 32.1517 0.162378 32.0297C0.27401 31.9078 0.416086 31.8569 0.588609 31.8569H7.44892C7.60114 31.8569 7.73308 31.9078 7.85486 32.0196C7.96649 32.1314 8.02738 32.2635 8.02738 32.4363Z" fill="#841A10"/>
<path d="M19.1107 32.721C19.0092 32.904 18.8367 33.0057 18.6033 33.0057H18.1364L16.7461 42.3167C16.7157 42.5302 16.5838 42.6827 16.3706 42.7538C16.2793 42.7843 16.2083 42.7945 16.1677 42.7945C15.782 42.7945 15.6501 42.5607 15.5994 42.3777L14.209 37.7933L12.8187 42.3879C12.7375 42.6013 12.5954 42.7335 12.3925 42.7741C12.3722 42.7945 12.3214 42.7945 12.2605 42.7945C11.9561 42.7945 11.7531 42.6318 11.6719 42.3167L10.2613 33.0158H9.79447C9.56106 33.0158 9.38853 32.9142 9.28705 32.7312C9.18557 32.5381 9.18557 32.3449 9.28705 32.162C9.38853 31.9688 9.56106 31.8672 9.79447 31.8672H11.7531C11.9865 31.8672 12.1591 31.9688 12.2605 32.162C12.362 32.3449 12.362 32.5381 12.2605 32.7312C12.1591 32.9142 11.9865 33.0158 11.7531 33.0158H11.4487L12.4229 39.5722L13.6306 35.6282C13.6712 35.4452 13.8132 35.2114 14.1989 35.2114C14.2496 35.2114 14.3207 35.2216 14.4018 35.2521C14.5744 35.3334 14.6961 35.4554 14.757 35.618L15.9647 39.5722L16.9389 33.0158H16.6345C16.4011 33.0158 16.2286 32.9142 16.1271 32.7312C16.0256 32.5381 16.0256 32.3449 16.1271 32.162C16.2286 31.9688 16.4011 31.8672 16.6345 31.8672H18.5931C18.8266 31.8672 18.9991 31.9688 19.1006 32.162C19.2122 32.3449 19.2122 32.5381 19.1107 32.721Z" fill="#841A10"/>
<path d="M26.852 41.7169C26.9535 41.8999 26.9535 42.093 26.852 42.2861C26.7505 42.4691 26.578 42.5708 26.3446 42.5708H22.4273C22.1939 42.5708 22.0213 42.4691 21.9199 42.2861C21.8184 42.093 21.8184 41.8999 21.9199 41.7169C22.0213 41.5238 22.1939 41.4221 22.4273 41.4221H23.7973V33.0056H22.4273C22.1939 33.0056 22.0213 32.9039 21.9199 32.7209C21.8184 32.5278 21.8184 32.3347 21.9199 32.1517C22.0213 31.9586 22.1939 31.8569 22.4273 31.8569H26.3446C26.578 31.8569 26.7505 31.9586 26.852 32.1517C26.9535 32.3347 26.9535 32.5278 26.852 32.7209C26.7505 32.9039 26.578 33.0056 26.3446 33.0056H24.9745V41.4221H26.3446C26.5678 41.4221 26.7505 41.5238 26.852 41.7169Z" fill="#841A10"/>
<path d="M38.9896 32.7209C38.8881 32.9038 38.7156 33.0055 38.4822 33.0055H38.0864V41.9913C38.0864 42.1946 38.0052 42.347 37.853 42.4487C37.7312 42.53 37.6195 42.5605 37.5079 42.5605C37.2846 42.5605 37.1223 42.469 37.0106 42.286L32.2206 34.4896V41.4119H32.6164C32.8498 41.4119 33.0223 41.5135 33.1238 41.7066C33.2253 41.8896 33.2253 42.0827 33.1238 42.2759C33.0223 42.4588 32.8498 42.5605 32.6164 42.5605H30.6578C30.4243 42.5605 30.2518 42.4588 30.1503 42.2759C30.0488 42.0827 30.0488 41.8896 30.1503 41.7066C30.2518 41.5135 30.4243 41.4119 30.6578 41.4119H31.0535V32.9953H30.6578C30.4243 32.9953 30.2518 32.8937 30.1503 32.7107C30.0488 32.5176 30.0488 32.3244 30.1503 32.1415C30.2518 31.9483 30.4243 31.8467 30.6578 31.8467H31.632C31.703 31.8467 31.7639 31.8568 31.8147 31.867C31.9466 31.9178 32.0481 31.9992 32.1191 32.1211L36.9091 39.9176V32.9953H36.5235C36.2901 32.9953 36.1176 32.8937 36.0161 32.7107C35.9146 32.5176 35.9146 32.3244 36.0161 32.1415C36.1176 31.9483 36.2901 31.8467 36.5235 31.8467H38.4822C38.7156 31.8467 38.8881 31.9483 38.9896 32.1415C39.0911 32.3448 39.0911 32.5379 38.9896 32.7209Z" fill="#841A10"/>
<path d="M48.74 39.7245C48.74 40.3445 48.5167 40.8934 48.0905 41.361C47.2989 42.1641 46.1725 42.5808 44.7314 42.5808C43.9703 42.5808 43.2497 42.3572 42.5698 41.9404C41.9 41.5135 41.352 40.9341 40.946 40.2226C40.8953 40.1412 40.875 40.0498 40.875 39.938C40.875 39.7143 40.9765 39.5415 41.1592 39.4297C41.2606 39.3789 41.3621 39.3586 41.4636 39.3586C41.6869 39.3586 41.8493 39.45 41.9609 39.633C42.2958 40.1921 42.7017 40.6292 43.1888 40.9443C43.676 41.2594 44.1935 41.4119 44.7314 41.4119C45.5433 41.4119 46.2334 41.2492 46.7814 40.9239C47.3192 40.5987 47.5729 40.2022 47.5729 39.7143C47.5729 39.0434 47.3395 38.5352 46.8626 38.1794C46.6799 38.0066 46.3348 37.844 45.8173 37.6813C45.0764 37.4475 44.6705 37.3154 44.5487 37.2747L43.8992 37.0816C43.0873 36.8173 42.5799 36.6344 42.3364 36.5225C41.4738 36.0753 41.0069 35.3841 40.946 34.4692C40.946 33.5645 41.3114 32.8937 42.0421 32.4667C42.7525 32.05 43.6252 31.8467 44.6502 31.8467H44.7314C45.6549 31.8467 46.4668 32.111 47.1467 32.6294C47.2482 32.5277 47.3801 32.4769 47.5526 32.4769C47.7049 32.4769 47.8469 32.5379 47.9586 32.6497C48.0804 32.7615 48.1311 32.9038 48.1311 33.0563V34.4896C48.1311 34.7132 48.0296 34.886 47.8368 34.9876C47.644 35.0893 47.4512 35.0893 47.2583 34.9876C47.0655 34.886 46.9539 34.7233 46.9539 34.4896V34.0525C46.6088 33.656 46.2739 33.3816 45.9695 33.2291C45.6549 33.0766 45.2388 32.9953 44.7212 32.9953H44.6198C43.818 32.9953 43.1888 33.1275 42.7525 33.3816C42.3262 33.6357 42.1131 33.9915 42.1131 34.4591C42.1131 34.825 42.377 35.1706 42.9047 35.4857L43.1584 35.5874C43.27 35.628 43.3918 35.6687 43.5237 35.7195C43.6658 35.7703 43.7572 35.8008 43.818 35.8313L44.295 35.9838C44.5792 36.0854 44.7821 36.1363 44.8938 36.1668L45.4722 36.3599C45.9492 36.4819 46.4262 36.6547 46.8727 36.858C47.3091 37.0409 47.7455 37.3764 48.1616 37.8643C48.5472 38.2912 48.74 38.9215 48.74 39.7245Z" fill="#841A10"/>
<path d="M116.097 32.9548C115.996 33.148 115.823 33.2496 115.59 33.2496H114.94L112.261 37.6205V41.6662H112.657C112.89 41.6662 113.063 41.7678 113.164 41.9508C113.266 42.1439 113.266 42.3371 113.164 42.52C113.063 42.7132 112.89 42.8148 112.657 42.8148H110.698C110.465 42.8148 110.292 42.7132 110.191 42.52C110.09 42.3371 110.09 42.1439 110.191 41.9508C110.292 41.7577 110.465 41.656 110.698 41.656H111.084V37.6104L108.405 33.2395H107.755C107.522 33.2395 107.349 33.1378 107.248 32.9447C107.147 32.7617 107.147 32.5686 107.248 32.3754C107.349 32.1925 107.522 32.0908 107.755 32.0908H109.714C109.947 32.0908 110.12 32.1925 110.221 32.3754C110.323 32.5686 110.323 32.7617 110.221 32.9447C110.13 33.1175 109.978 33.2191 109.775 33.2293L111.673 36.3194L113.57 33.2293C113.367 33.2191 113.215 33.1175 113.114 32.9447C113.012 32.7617 113.012 32.5686 113.114 32.3754C113.215 32.1925 113.388 32.0908 113.621 32.0908H115.58C115.813 32.0908 115.986 32.1925 116.087 32.3754C116.199 32.5686 116.199 32.7617 116.097 32.9548Z" fill="#841A10"/>
<path d="M105.51 32.6701V34.1034C105.51 34.327 105.409 34.4998 105.206 34.6015C105.013 34.7031 104.82 34.7031 104.627 34.6015C104.434 34.4998 104.333 34.327 104.333 34.1034V33.2495H102.08V41.6661H102.466C102.699 41.6661 102.872 41.7677 102.973 41.9507C103.075 42.1438 103.075 42.337 102.973 42.5199C102.872 42.7131 102.699 42.8147 102.466 42.8147H100.507C100.274 42.8147 100.101 42.7131 99.9996 42.5199C99.8981 42.337 99.8981 42.1438 99.9996 41.9507C100.101 41.7576 100.274 41.6559 100.507 41.6559H100.893V33.2394H98.6397V34.0932C98.6397 34.3169 98.5382 34.4897 98.3454 34.5913C98.1526 34.693 97.9598 34.6828 97.767 34.5913C97.5741 34.4897 97.4727 34.3169 97.4727 34.0932V32.66C97.4727 32.5075 97.5234 32.3753 97.635 32.2534C97.7467 32.1416 97.8887 32.0806 98.0511 32.0806H104.911C105.064 32.0806 105.206 32.1314 105.317 32.2432C105.439 32.355 105.51 32.4973 105.51 32.6701Z" fill="#841A10"/>
<path d="M95.7302 32.9549C95.6287 33.1481 95.4562 33.2497 95.2228 33.2497H94.827V39.369C94.827 40.3143 94.4718 41.1377 93.7817 41.8086C93.1018 42.4794 92.2696 42.8149 91.3055 42.8149C90.3414 42.8149 89.5092 42.4794 88.809 41.8086C88.129 41.1173 87.784 40.294 87.784 39.369V33.2497H87.3882C87.1548 33.2497 86.9823 33.1481 86.8808 32.9549C86.7793 32.772 86.7793 32.5788 86.8808 32.3857C86.9823 32.2027 87.1548 32.1011 87.3882 32.1011H89.3469C89.5803 32.1011 89.7528 32.2027 89.8543 32.3857C89.9558 32.5788 89.9558 32.772 89.8543 32.9549C89.7528 33.1481 89.5803 33.2497 89.3469 33.2497H88.9612V39.369C88.9612 39.989 89.1946 40.5278 89.6513 40.9852C90.1181 41.4325 90.6662 41.6663 91.3055 41.6663C91.9448 41.6663 92.503 41.4325 92.9597 40.9852C93.4164 40.5278 93.6498 39.989 93.6498 39.369V33.2497H93.254C93.0206 33.2497 92.8481 33.1481 92.7466 32.9549C92.6451 32.772 92.6451 32.5788 92.7466 32.3857C92.8481 32.2027 93.0206 32.1011 93.254 32.1011H95.2126C95.446 32.1011 95.6186 32.2027 95.7201 32.3857C95.8317 32.5687 95.8317 32.7618 95.7302 32.9549Z" fill="#841A10"/>
<path d="M85.5474 41.9509C85.4459 41.7679 85.2734 41.6663 85.04 41.6663H84.5021L81.6808 32.2942C81.6402 32.1011 81.5083 31.8774 81.1125 31.8774C81.0618 31.8774 81.0009 31.8876 80.8893 31.9283C80.7167 31.9994 80.6051 32.1214 80.5442 32.2942L77.723 41.6764H77.1851C76.9517 41.6764 76.7792 41.7781 76.6777 41.961C76.5762 42.1542 76.5762 42.3473 76.6777 42.5303C76.7792 42.7234 76.9517 42.8251 77.1851 42.8251H79.1437C79.3772 42.8251 79.5497 42.7234 79.6512 42.5404C79.7526 42.3473 79.7526 42.1542 79.6512 41.9712C79.5497 41.7882 79.3772 41.6866 79.1437 41.6866H78.9408L79.6106 39.491H82.5942L83.264 41.6866H83.061C82.8276 41.6866 82.6551 41.7882 82.5536 41.9712C82.4521 42.1643 82.4521 42.3575 82.5536 42.5404C82.6551 42.7336 82.8276 42.8352 83.061 42.8352H85.0197C85.2531 42.8352 85.4256 42.7336 85.5271 42.5506C85.6489 42.327 85.6489 42.1338 85.5474 41.9509ZM82.2593 38.3118H79.9759L81.1227 34.4898L82.2593 38.3118Z" fill="#841A10"/>
<path d="M73.7748 34.1035V33.2496H69.0659V36.8785H71.3189V36.4922C71.3189 36.2686 71.4204 36.0958 71.6132 35.9941C71.806 35.8925 71.9988 35.8925 72.1916 35.9941C72.3844 36.0958 72.4961 36.2584 72.4961 36.4922V38.4032C72.4961 38.637 72.3946 38.8098 72.1916 38.9013C71.9988 39.003 71.806 39.003 71.6132 38.9013C71.4204 38.7997 71.3189 38.637 71.3189 38.4032V38.0271H69.0659V41.656H73.7748V40.8022C73.7748 40.5785 73.8763 40.4057 74.0691 40.3041C74.2619 40.2024 74.4547 40.2024 74.6475 40.3041C74.8404 40.4057 74.952 40.5785 74.952 40.8022V42.2354C74.952 42.4082 74.8911 42.5505 74.7693 42.6522C74.6475 42.7538 74.5156 42.8148 74.3634 42.8148H67.5132C67.2798 42.8148 67.1073 42.7132 67.0058 42.52C66.9043 42.3371 66.9043 42.1439 67.0058 41.9508C67.1073 41.7577 67.2798 41.656 67.5132 41.656H67.8989V33.2395H67.5132C67.2798 33.2395 67.1073 33.1378 67.0058 32.9447C66.9043 32.7617 66.9043 32.5686 67.0058 32.3754C67.1073 32.1925 67.2798 32.0908 67.5132 32.0908H74.3634C74.5156 32.0908 74.6577 32.1416 74.7693 32.2535C74.8911 32.3551 74.952 32.4974 74.952 32.6702V34.1035C74.952 34.3271 74.8505 34.4999 74.6475 34.6016C74.4547 34.7032 74.2619 34.7032 74.0691 34.6016C73.8763 34.4999 73.7748 34.3271 73.7748 34.1035Z" fill="#841A10"/>
<path d="M62.8769 36.7769C63.4858 36.2992 63.7902 35.6181 63.7902 34.744C63.7902 33.5038 63.1712 32.7008 61.9534 32.3552C61.4257 32.1824 60.6848 32.1011 59.7715 32.1011H57.3257C57.0923 32.1011 56.9198 32.2027 56.8183 32.3857C56.7168 32.5788 56.7168 32.772 56.8183 32.9549C56.9198 33.1481 57.0923 33.2497 57.3257 33.2497H57.7113V41.6663H57.3257C57.0923 41.6663 56.9198 41.7679 56.8183 41.9509C56.7168 42.144 56.7168 42.3371 56.8183 42.5201C56.9198 42.7132 57.0923 42.8149 57.3257 42.8149H60.7559C61.8519 42.8149 62.8058 42.5303 63.5771 41.9712C64.3687 41.3918 64.7746 40.5684 64.7746 39.5215C64.7645 38.2 64.1353 37.275 62.8769 36.7769ZM59.7715 33.2497C60.8269 33.2497 61.588 33.3514 62.0041 33.5648C62.4101 33.7681 62.6029 34.1544 62.6029 34.744C62.6029 35.3538 62.3898 35.7604 61.9432 36.0146C61.4865 36.2687 60.7559 36.4008 59.7613 36.4008H58.8784V33.2497H59.7715ZM62.8363 41.0869C62.3289 41.463 61.6286 41.6561 60.7559 41.6561H58.8886V37.5495H60.7559C62.6638 37.5495 63.5974 38.1899 63.5974 39.5215C63.5974 40.2025 63.3437 40.7209 62.8363 41.0869Z" fill="#841A10"/>
<path d="M153.025 32.9549C152.923 33.1481 152.751 33.2497 152.517 33.2497H152.122V39.369C152.122 40.3143 151.766 41.1377 151.076 41.8086C150.396 42.4794 149.564 42.8149 148.6 42.8149C147.636 42.8149 146.794 42.4794 146.104 41.8086C145.424 41.1173 145.079 40.294 145.079 39.369V33.2497H144.693C144.459 33.2497 144.287 33.1481 144.185 32.9549C144.084 32.772 144.084 32.5788 144.185 32.3857C144.287 32.2027 144.459 32.1011 144.693 32.1011H146.652C146.885 32.1011 147.057 32.2027 147.159 32.3857C147.26 32.5788 147.26 32.772 147.159 32.9549C147.057 33.1481 146.885 33.2497 146.652 33.2497H146.246V39.369C146.246 39.989 146.479 40.5278 146.946 40.9852C147.403 41.4325 147.961 41.6663 148.6 41.6663C149.239 41.6663 149.798 41.4325 150.254 40.9852C150.721 40.5278 150.954 39.989 150.954 39.369V33.2497H150.559C150.325 33.2497 150.153 33.1481 150.051 32.9549C149.95 32.772 149.95 32.5788 150.051 32.3857C150.153 32.2027 150.325 32.1011 150.559 32.1011H152.517C152.751 32.1011 152.923 32.2027 153.025 32.3857C153.126 32.5687 153.116 32.7618 153.025 32.9549Z" fill="#841A10"/>
<path d="M171.814 34.1035V33.2496H167.115V36.8785H169.368V36.4922C169.368 36.2686 169.47 36.0958 169.673 35.9941C169.865 35.8925 170.058 35.8925 170.251 35.9941C170.444 36.0958 170.545 36.2584 170.545 36.4922V38.4032C170.545 38.637 170.444 38.8098 170.251 38.9013C170.058 39.003 169.865 39.003 169.673 38.9013C169.48 38.7997 169.368 38.637 169.368 38.4032V38.0271H167.115V41.656H171.814V40.8022C171.814 40.5785 171.915 40.4057 172.118 40.3041C172.311 40.2024 172.504 40.2024 172.697 40.3041C172.89 40.4057 173.001 40.5785 173.001 40.8022V42.2354C173.001 42.4082 172.94 42.5505 172.819 42.6522C172.697 42.7538 172.565 42.8148 172.413 42.8148H165.552C165.319 42.8148 165.146 42.7132 165.045 42.52C164.943 42.3371 164.943 42.1439 165.045 41.9508C165.146 41.7577 165.319 41.656 165.552 41.656H165.948V33.2395H165.552C165.319 33.2395 165.146 33.1378 165.045 32.9447C164.943 32.7617 164.943 32.5686 165.045 32.3754C165.146 32.1925 165.319 32.0908 165.552 32.0908H172.413C172.565 32.0908 172.707 32.1416 172.819 32.2535C172.94 32.3551 173.001 32.4974 173.001 32.6702V34.1035C173.001 34.3271 172.9 34.4999 172.697 34.6016C172.504 34.7032 172.311 34.7032 172.118 34.6016C171.915 34.4999 171.814 34.3271 171.814 34.1035Z" fill="#841A10"/>
<path d="M162.78 39.9584C162.78 40.5784 162.557 41.1375 162.12 41.5949C161.329 42.398 160.202 42.8147 158.761 42.8147C158 42.8147 157.279 42.5911 156.599 42.1642C155.93 41.7372 155.382 41.1578 154.966 40.4463C154.915 40.365 154.895 40.2735 154.895 40.1617C154.895 39.938 154.996 39.7652 155.179 39.6534C155.28 39.6026 155.372 39.5823 155.483 39.5823C155.706 39.5823 155.869 39.6738 155.98 39.8567C156.315 40.4158 156.721 40.8529 157.219 41.168C157.706 41.4831 158.223 41.6356 158.761 41.6356C159.573 41.6356 160.263 41.4729 160.801 41.1477C161.339 40.8224 161.592 40.426 161.592 39.938C161.592 39.2672 161.359 38.7589 160.882 38.4133C160.699 38.2405 160.354 38.0677 159.837 37.9051C159.116 37.6814 158.69 37.5391 158.558 37.5086L157.909 37.3155C157.117 37.0614 156.589 36.8784 156.346 36.7564C155.473 36.3092 155.016 35.618 154.955 34.7031C154.955 33.7984 155.321 33.1276 156.051 32.7006C156.762 32.2839 157.635 32.0806 158.66 32.0806H158.741C159.664 32.0806 160.476 32.3449 161.156 32.8633C161.258 32.7616 161.4 32.7108 161.562 32.7108C161.714 32.7108 161.856 32.7616 161.978 32.8836C162.1 33.0056 162.151 33.1377 162.151 33.2902V34.7234C162.151 34.9471 162.049 35.1199 161.846 35.2215C161.653 35.3232 161.461 35.3232 161.268 35.2215C161.075 35.1199 160.973 34.9572 160.973 34.7234V34.2762C160.628 33.8899 160.293 33.6053 159.989 33.463C159.674 33.3105 159.258 33.2292 158.741 33.2292H158.639C157.838 33.2292 157.208 33.3613 156.772 33.6155C156.346 33.8696 156.133 34.2254 156.133 34.7031C156.133 35.0691 156.407 35.4147 156.924 35.7298L157.178 35.8314C157.29 35.8721 157.411 35.9127 157.543 35.9636C157.685 36.0144 157.787 36.0449 157.838 36.0754L158.315 36.238C158.599 36.3295 158.802 36.3905 158.913 36.421L159.492 36.6141C159.969 36.7361 160.446 36.9089 160.892 37.1122C161.329 37.2952 161.765 37.6306 162.181 38.1084C162.587 38.5251 162.78 39.1452 162.78 39.9584Z" fill="#841A10"/>
<path d="M141.245 33.2496C140.453 32.4873 139.509 32.0908 138.413 32.0908C137.317 32.0908 136.363 32.4771 135.582 33.2496C134.79 34.0222 134.395 34.9472 134.395 36.0145V38.881C134.395 39.9483 134.79 40.8835 135.582 41.6458C136.363 42.4082 137.317 42.8046 138.413 42.8046C139.509 42.8046 140.453 42.4184 141.245 41.6458C142.026 40.8733 142.432 39.9483 142.432 38.881V36.0145C142.432 34.9472 142.026 34.0222 141.245 33.2496ZM138.413 41.656C137.652 41.656 136.982 41.3816 136.404 40.8428C135.846 40.2736 135.572 39.6129 135.572 38.881V36.0145C135.572 35.2724 135.856 34.6117 136.404 34.073C136.972 33.5241 137.652 33.2395 138.413 33.2395C139.185 33.2395 139.854 33.5241 140.402 34.073C140.971 34.6016 141.255 35.2521 141.255 36.0043V38.8708C141.255 39.6129 140.971 40.2736 140.402 40.8326C139.854 41.3816 139.185 41.656 138.413 41.656Z" fill="#841A10"/>
<path d="M132.66 41.9507C132.761 42.1438 132.761 42.337 132.66 42.5199C132.558 42.7029 132.386 42.8046 132.152 42.8046H130.194C129.96 42.8046 129.788 42.7029 129.686 42.5098C129.585 42.3268 129.585 42.1337 129.686 41.9405C129.788 41.7576 129.96 41.6559 130.194 41.6559H130.59V38.027H125.881V41.6559H126.277C126.51 41.6559 126.682 41.7576 126.784 41.9405C126.885 42.1337 126.885 42.3268 126.784 42.5098C126.682 42.6927 126.51 42.7944 126.277 42.7944H124.318C124.084 42.7944 123.912 42.6927 123.81 42.4996C123.709 42.3166 123.709 42.1235 123.81 41.9304C123.912 41.7474 124.084 41.6458 124.318 41.6458H124.704V33.2292H124.318C124.084 33.2292 123.912 33.1276 123.81 32.9344C123.709 32.7515 123.709 32.5583 123.81 32.3652C123.912 32.1822 124.084 32.0806 124.318 32.0806H126.277C126.51 32.0806 126.682 32.1822 126.784 32.3652C126.885 32.5583 126.885 32.7515 126.784 32.9344C126.682 33.1276 126.51 33.2292 126.277 33.2292H125.881V36.8581H130.59V33.2292H130.194C129.96 33.2292 129.788 33.1276 129.686 32.9344C129.585 32.7515 129.585 32.5583 129.686 32.3652C129.788 32.1822 129.96 32.0806 130.194 32.0806H132.152C132.386 32.0806 132.558 32.1822 132.66 32.3652C132.761 32.5583 132.761 32.7515 132.66 32.9344C132.558 33.1276 132.386 33.2292 132.152 33.2292H131.757V41.6458H132.152C132.386 41.6559 132.558 41.7576 132.66 41.9507Z" fill="#841A10"/>
<path d="M72.3593 54.8088H69.9947V56.6893H72.6231V57.2586H69.2031V52.0439H72.4811V52.6132H69.9846V54.2599H72.3491V54.8088H72.3593Z" fill="#841A10"/>
<path d="M73.578 56.4354C73.9332 56.6183 74.4406 56.7708 74.9886 56.7708C75.7903 56.7708 76.2571 56.4049 76.2571 55.8763C76.2571 55.3884 75.9324 55.1139 75.1104 54.8395C74.1158 54.5345 73.5069 54.0974 73.5069 53.3656C73.5069 52.5524 74.2883 51.9526 75.4757 51.9526C76.0948 51.9526 76.5514 52.0746 76.8153 52.2068L76.6022 52.7557C76.3992 52.6642 75.9933 52.5117 75.4453 52.5117C74.6131 52.5117 74.2985 52.9386 74.2985 53.2944C74.2985 53.7823 74.6638 54.0263 75.5062 54.3007C76.5311 54.6362 77.0589 55.0631 77.0589 55.8356C77.0589 56.6387 76.3688 57.34 74.9277 57.34C74.3391 57.34 73.6997 57.1977 73.375 57.0046L73.578 56.4354Z" fill="#841A10"/>
<path d="M79.3314 52.6132H77.4844V52.0439H81.9801V52.6132H80.1229V57.2586H79.3314V52.6132Z" fill="#841A10"/>
<path d="M81.9492 56.8517C81.9492 56.5671 82.1725 56.3638 82.4871 56.3638C82.8017 56.3638 83.0148 56.5671 83.0148 56.8517C83.0148 57.1261 82.8118 57.3396 82.4769 57.3396C82.1623 57.3396 81.9492 57.1261 81.9492 56.8517Z" fill="#841A10"/>
<path d="M85.7461 57.2585V56.8417L86.3651 56.3233C87.857 55.1035 88.5369 54.4529 88.547 53.6906C88.547 53.1823 88.2629 52.7046 87.38 52.7046C86.8523 52.7046 86.4057 52.9384 86.1317 53.1315L85.878 52.6538C86.2839 52.359 86.8624 52.1455 87.5322 52.1455C88.7906 52.1455 89.3285 52.8875 89.3285 53.6093C89.3285 54.5343 88.547 55.2865 87.3089 56.3131L86.8421 56.6892V56.7096H89.4706V57.2788H85.7461V57.2585Z" fill="#841A10"/>
<path d="M94.3102 54.6868C94.3102 56.3945 93.5694 57.3399 92.2704 57.3399C91.1236 57.3399 90.3523 56.4149 90.332 54.758C90.332 53.0706 91.1744 52.1456 92.3719 52.1456C93.61 52.1354 94.3102 53.0808 94.3102 54.6868ZM91.1338 54.7681C91.1338 56.0794 91.6006 56.8215 92.3211 56.8215C93.133 56.8215 93.5186 56.0083 93.5186 54.7275C93.5186 53.4874 93.1533 52.6742 92.3313 52.6742C91.631 52.664 91.1338 53.3959 91.1338 54.7681Z" fill="#841A10"/>
<path d="M96.8085 52.8572H96.7882L95.7733 53.3248L95.6211 52.8064L96.8998 52.2168H97.5797V57.2484H96.8085V52.8572Z" fill="#841A10"/>
<path d="M102.204 57.2587V55.8864H99.4844V55.4392L102.103 52.2271H102.955V55.3578H103.777V55.8966H102.955V57.2688H102.204V57.2587ZM102.204 55.3477V53.6705C102.204 53.4062 102.214 53.1419 102.235 52.8776H102.204C102.021 53.1724 101.879 53.3859 101.717 53.6196L100.286 55.3274V55.3477H102.204Z" fill="#841A10"/>
<path d="M91.7208 22.9629H81.2578V23.5321H91.7208V22.9629Z" fill="#841A10"/>
<path d="M82.5883 2.34797C82.5883 2.3378 82.5781 2.3378 82.5781 2.32764C82.5781 2.3378 82.5781 2.3378 82.5883 2.34797Z" fill="#841A10"/>
<path d="M96.2373 11.1712C96.2373 11.7913 96.014 12.3402 95.5776 12.8078C94.786 13.6108 93.6596 14.0174 92.2185 14.0174C91.4574 14.0174 90.7368 13.804 90.0569 13.377C90.0061 13.3465 89.7626 13.1941 89.4886 12.9501C89.4886 12.9501 88.768 12.3199 88.3926 11.5677C88.3621 11.5168 88.3418 11.4457 88.3418 11.4457C88.3012 11.3542 88.2505 11.2526 88.1997 11.1204C88.1287 10.9476 88.0881 10.8155 88.0577 10.7037H87.0834V13.3567H87.5401C87.8344 13.3567 88.0779 13.6007 88.0779 13.8954V13.9971C88.0779 14.2919 87.8344 14.5358 87.5401 14.5358H85.4394C85.1451 14.5358 84.9015 14.2919 84.9015 13.9971V13.8954C84.9015 13.6007 85.1451 13.3567 85.4394 13.3567H85.896V10.7037H84.9218C84.8914 10.8155 84.8406 10.9578 84.7797 11.1204C84.729 11.2424 84.6782 11.3542 84.6376 11.4457C84.6376 11.4457 84.6072 11.5067 84.5869 11.5677C84.2114 12.3199 83.4909 12.9501 83.4909 12.9501C83.2169 13.1941 82.9733 13.3364 82.9226 13.377C82.2528 13.804 81.5221 14.0174 80.761 14.0174C79.3199 14.0174 78.1934 13.6108 77.4018 12.8078C76.9655 12.3402 76.7422 11.7913 76.7422 11.1712C76.7422 10.358 76.9756 9.76848 77.3207 9.32123C77.7164 8.80281 78.163 8.50803 78.6095 8.32506C79.056 8.12177 79.533 7.94896 80.01 7.81682C80.6899 7.61352 81.0147 7.50171 81.177 7.45088C81.2481 7.43055 81.3902 7.37973 81.5728 7.31874C81.7555 7.25775 81.7961 7.24758 81.9483 7.18659C82.1614 7.11544 82.2832 7.06461 82.3137 7.05445C82.4354 7.00363 82.5471 6.96296 82.5775 6.9528C82.8008 6.85115 83.3183 6.49538 83.3589 5.93631C83.3792 5.65169 83.2676 5.42806 83.227 5.35691C83.1255 5.15361 82.953 4.99097 82.7196 4.85883C82.2832 4.60471 81.654 4.47256 80.8523 4.47256H80.7508C80.2332 4.47256 79.8172 4.55388 79.5026 4.70635C79.1474 4.86899 78.8936 5.06213 78.5182 5.52971V5.9668C78.5182 6.19043 78.4167 6.36323 78.2239 6.46488C78.031 6.55637 77.8382 6.55637 77.6454 6.46488C77.4526 6.36323 77.3511 6.19043 77.3511 5.9668V4.53355C77.3511 4.38108 77.412 4.24893 77.5236 4.12695C77.6353 4.00497 77.7773 3.95415 77.9397 3.95415C78.1021 3.95415 78.2442 4.00497 78.3456 4.10662C79.0256 3.58821 79.8375 3.32392 80.761 3.32392H80.8421C81.8671 3.32392 82.7399 3.53739 83.4503 3.95415C84.1708 4.37091 84.5463 5.05196 84.5463 5.94647C84.4956 6.86132 84.0287 7.55253 83.1661 7.99979C82.9226 8.12177 82.4151 8.30473 81.6033 8.55886L80.9538 8.75199C80.4565 8.8943 80.0303 9.03661 79.6751 9.15859C79.1474 9.34156 78.9038 9.43304 78.6399 9.6465C78.5182 9.73799 78.3456 9.8803 78.1934 10.1243C77.8991 10.5918 77.9093 11.0493 77.9295 11.1814C77.9803 11.6795 78.1833 12.0658 78.7211 12.391C79.2691 12.7163 79.9491 12.8789 80.7711 12.8789C81.309 12.8789 81.8265 12.7265 82.3137 12.4114C82.476 12.3097 82.6181 12.1877 82.7602 12.0658C83.3082 11.5778 83.6329 10.9476 83.7344 10.5004C83.7649 10.358 83.7852 10.2666 83.8461 10.1039C83.8765 10.0124 83.9171 9.90063 83.9983 9.79898C84.0186 9.76848 84.049 9.72782 84.0998 9.69733C84.1911 9.62617 84.323 9.58551 84.4651 9.58551H85.9163V1.16896H83.6634V2.02282C83.6634 2.05331 83.6634 2.07364 83.6634 2.10414C83.6634 2.1143 83.6634 2.13463 83.6533 2.14479C83.6533 2.15496 83.6532 2.16513 83.6431 2.17529C83.6431 2.18546 83.633 2.19562 83.633 2.21595C83.633 2.22611 83.6228 2.23628 83.6228 2.24645C83.6228 2.25661 83.6127 2.27694 83.6025 2.28711C83.6025 2.29727 83.5924 2.30743 83.5822 2.3176C83.5721 2.32776 83.5721 2.33793 83.5619 2.34809C83.5518 2.35826 83.5518 2.36842 83.5416 2.37859C83.5315 2.38875 83.5213 2.39892 83.5213 2.40908C83.5112 2.41925 83.501 2.42941 83.4909 2.43958C83.4807 2.44974 83.4706 2.45991 83.4604 2.45991C83.4401 2.48024 83.4198 2.4904 83.3995 2.50057C83.3792 2.51073 83.3488 2.53106 83.3285 2.54123C83.3184 2.54123 83.3082 2.55139 83.2981 2.55139C83.156 2.60222 83.0037 2.60222 82.8617 2.55139H82.8515C82.8515 2.55139 82.8414 2.55139 82.8414 2.54123C82.8414 2.54123 82.8312 2.54123 82.8312 2.53106C82.8211 2.53106 82.8109 2.5209 82.8109 2.5209H82.8008H82.7906C82.7805 2.51073 82.7602 2.50057 82.75 2.50057C82.7399 2.4904 82.7297 2.48024 82.7094 2.48024C82.6993 2.47007 82.679 2.45991 82.6689 2.44974C82.6587 2.43958 82.6486 2.43958 82.6486 2.42941L82.6384 2.41925C82.6384 2.41925 82.6384 2.41925 82.6283 2.40908C82.6181 2.39892 82.608 2.38875 82.608 2.37859C82.608 2.37859 82.608 2.37859 82.608 2.36842L82.5978 2.35826L82.5877 2.34809C82.5775 2.33793 82.5775 2.32776 82.5674 2.3176C82.5572 2.29727 82.5471 2.28711 82.5471 2.26678C82.5471 2.25661 82.5369 2.24644 82.5369 2.23628C82.5268 2.21595 82.5268 2.19562 82.5166 2.16512C82.5065 2.12446 82.5065 2.08381 82.5065 2.03298V0.5794C82.5065 0.426926 82.5572 0.294781 82.6689 0.172802C82.679 0.162637 82.6993 0.142308 82.6993 0.142308C82.6993 0.142308 82.7196 0.132141 82.7297 0.111811C82.75 0.101646 82.7805 0.0813185 82.8211 0.0508238C82.8312 0.0508238 82.8515 0.0406584 82.8718 0.0304935C82.8718 0.0304935 82.9429 0 83.024 0C83.0443 0 83.0646 0 83.0849 0H89.9351C89.9554 0 89.9757 0 89.996 0C90.0772 0.0101649 90.1482 0.0304935 90.1482 0.0304935C90.1787 0.0406584 90.1888 0.0508238 90.199 0.0508238C90.2396 0.0711536 90.2801 0.101646 90.2903 0.111811C90.3106 0.121976 90.3207 0.132143 90.3207 0.142308C90.3207 0.142308 90.3309 0.152472 90.3512 0.172802C90.4628 0.284616 90.5136 0.426926 90.5136 0.5794V2.01265C90.5136 2.05331 90.5136 2.10413 90.5034 2.14479C90.5034 2.16512 90.4933 2.19562 90.4831 2.21595C90.4831 2.22611 90.473 2.23628 90.473 2.24645C90.4628 2.25661 90.4628 2.27694 90.4527 2.28711C90.4527 2.28711 90.4527 2.2871 90.4527 2.29727C90.4425 2.30743 90.4425 2.3176 90.4324 2.32776C90.4222 2.33793 90.4121 2.3481 90.4121 2.35826C90.4019 2.36842 90.3918 2.37859 90.3918 2.38875C90.3918 2.38875 90.3918 2.38875 90.3816 2.39892L90.3715 2.40908C90.3613 2.41925 90.3613 2.41925 90.3512 2.42941C90.341 2.43958 90.3309 2.44974 90.3106 2.45991C90.3004 2.47007 90.2903 2.48024 90.27 2.48024C90.2598 2.4904 90.2396 2.50057 90.2294 2.50057H90.2192H90.2091C90.199 2.50057 90.1888 2.51073 90.1888 2.51073C90.1888 2.51073 90.1787 2.51073 90.1787 2.5209C90.1787 2.5209 90.1685 2.5209 90.1685 2.53106H90.1584C90.0163 2.58189 89.8641 2.58189 89.722 2.53106C89.7118 2.53106 89.7017 2.5209 89.6915 2.5209C89.6712 2.51073 89.6408 2.50057 89.6205 2.48024C89.6002 2.47007 89.5799 2.44974 89.5596 2.43958C89.5495 2.42941 89.5393 2.41925 89.5292 2.41925C89.519 2.40908 89.5089 2.39892 89.4987 2.38875C89.4886 2.37859 89.4784 2.36842 89.4784 2.35826C89.4683 2.3481 89.4581 2.33793 89.4581 2.32776C89.448 2.3176 89.448 2.30743 89.4378 2.29727C89.4378 2.2871 89.4277 2.27694 89.4175 2.26678C89.4074 2.25661 89.4074 2.24644 89.3972 2.22611C89.3972 2.21595 89.3871 2.20579 89.3871 2.19562C89.3871 2.18546 89.3769 2.17529 89.3769 2.15496C89.3769 2.1448 89.3668 2.13463 89.3668 2.12446C89.3668 2.1143 89.3668 2.09397 89.3566 2.08381C89.3566 2.05331 89.3566 2.03298 89.3566 2.00249V1.14863H87.1037V9.56519H88.5549C88.697 9.56519 88.8188 9.60584 88.9203 9.677C88.9608 9.70749 88.9913 9.74815 89.0217 9.77865C89.1131 9.89046 89.1435 9.99211 89.174 10.0836C89.2247 10.2462 89.245 10.3377 89.2856 10.48C89.3871 10.9273 89.7118 11.5575 90.2599 12.0454C90.4019 12.1776 90.5542 12.2894 90.7064 12.391C91.1935 12.7061 91.7111 12.8586 92.2489 12.8586C93.0608 12.8586 93.7509 12.696 94.2989 12.3707C94.8368 12.0454 95.0397 11.6592 95.0905 11.1611C95.1006 11.0289 95.1108 10.5613 94.8266 10.1039C94.6744 9.85997 94.5019 9.71766 94.3801 9.62617C94.1162 9.41271 93.8625 9.31106 93.345 9.13826C92.9999 9.01628 92.5635 8.88413 92.0663 8.73166L91.4168 8.53853C90.6049 8.27424 90.0975 8.09127 89.8539 7.97946C88.9913 7.5322 88.5245 6.84099 88.4737 5.92614C88.4737 5.02147 88.8391 4.35058 89.5698 3.93382C90.2801 3.51706 91.1529 3.3036 92.1779 3.3036H92.2591C93.1826 3.3036 93.9944 3.56788 94.6744 4.08629C94.7759 3.98464 94.9078 3.93382 95.0803 3.93382C95.2427 3.93382 95.3746 3.99481 95.4964 4.10662C95.6182 4.21844 95.6689 4.36075 95.6689 4.51322V5.94647C95.6689 6.1701 95.5675 6.3429 95.3746 6.44455C95.1818 6.5462 94.989 6.5462 94.7962 6.44455C94.6034 6.3429 94.5019 6.1701 94.5019 5.94647V5.50938C94.1264 5.0418 93.8727 4.85883 93.5175 4.68602C93.2029 4.53355 92.7766 4.45223 92.2692 4.45223H92.1678C91.366 4.45223 90.7368 4.58437 90.3004 4.8385C90.067 4.97064 89.9047 5.14345 89.793 5.33658C89.7524 5.4179 89.6408 5.63136 89.6611 5.91598C89.7017 6.47505 90.2192 6.84099 90.4425 6.93247C90.473 6.94264 90.5846 6.99346 90.7064 7.03412C90.7368 7.04428 90.8586 7.09511 91.0717 7.16626C91.224 7.21709 91.2645 7.23742 91.4472 7.29841C91.6299 7.3594 91.772 7.41022 91.843 7.43055C92.0054 7.49154 92.3301 7.59319 93.0101 7.79649C93.4972 7.92863 93.964 8.10144 94.4105 8.30473C94.8571 8.4877 95.2935 8.78248 95.6994 9.30089C96.0038 9.77865 96.2373 10.358 96.2373 11.1712Z" fill="#841A10"/>
<path d="M82.5883 2.34797C82.5883 2.3378 82.5781 2.3378 82.5781 2.32764C82.5781 2.3378 82.5781 2.3378 82.5883 2.34797Z" fill="#841A10"/>
</svg>
