<svg width="193" height="63" viewBox="0 0 193 63" fill="none" xmlns="http://www.w3.org/2000/svg">
<path d="M8.9554 35.6378V37.2125C8.9554 37.4582 8.84218 37.6481 8.62707 37.7598C8.41195 37.8715 8.19685 37.8715 7.98174 37.7598C7.76663 37.6481 7.65341 37.4582 7.65341 37.2125V36.2744H5.14001V45.5217H5.57023C5.83063 45.5217 6.0231 45.6334 6.13631 45.8456C6.24953 46.0466 6.24953 46.2588 6.13631 46.471C6.0231 46.672 5.81931 46.7837 5.57023 46.7837H3.38517C3.12477 46.7837 2.9323 46.672 2.81909 46.471C2.70587 46.2588 2.70587 46.0466 2.81909 45.8456C2.9323 45.6334 3.12477 45.5217 3.38517 45.5217H3.82671V36.2744H1.31331V37.2125C1.31331 37.4582 1.20009 37.6481 0.984975 37.7598C0.769864 37.8715 0.554763 37.8715 0.339652 37.7598C0.124541 37.6481 0 37.4582 0 37.2125V35.6378C0 35.4703 0.0566122 35.3251 0.18115 35.1911C0.305688 35.0571 0.464188 35.0012 0.656656 35.0012H8.31006C8.47989 35.0012 8.62708 35.0571 8.76294 35.1799C8.88748 35.3028 8.9554 35.4479 8.9554 35.6378Z" fill="#F8F8F8"/>
<path d="M21.3177 35.9506C21.2045 36.1516 21.012 36.2633 20.7516 36.2633H20.2308L18.6797 46.4934C18.6458 46.7279 18.4986 46.8954 18.2608 46.9736C18.159 47.0071 18.0797 47.0183 18.0344 47.0183C17.6042 47.0183 17.457 46.7614 17.4004 46.5604L15.8493 41.5235L14.2983 46.5716C14.2077 46.8061 14.0492 46.9513 13.8228 46.996C13.8001 47.0183 13.7435 47.0183 13.6756 47.0183C13.3359 47.0183 13.1095 46.8396 13.0189 46.4934L11.4452 36.2745H10.9244C10.664 36.2745 10.4716 36.1628 10.3583 35.9617C10.2451 35.7496 10.2451 35.5374 10.3583 35.3363C10.4716 35.1241 10.664 35.0125 10.9244 35.0125H13.1095C13.3699 35.0125 13.5624 35.1241 13.6756 35.3363C13.7888 35.5374 13.7888 35.7496 13.6756 35.9617C13.5624 36.1628 13.3699 36.2745 13.1095 36.2745H12.7699L13.8567 43.478L15.204 39.1447C15.2493 38.9437 15.4078 38.6868 15.838 38.6868C15.8946 38.6868 15.9739 38.698 16.0645 38.7315C16.2569 38.8208 16.3928 38.9548 16.4607 39.1335L17.808 43.478L18.8949 36.2745H18.5552C18.2948 36.2745 18.1023 36.1628 17.9891 35.9617C17.8759 35.7496 17.8759 35.5374 17.9891 35.3363C18.1023 35.1241 18.2948 35.0125 18.5552 35.0125H20.7403C21.0007 35.0125 21.1932 35.1241 21.3064 35.3363C21.4309 35.5374 21.4309 35.7495 21.3177 35.9506Z" fill="#F8F8F8"/>
<path d="M29.9583 45.8344C30.0715 46.0354 30.0715 46.2476 29.9583 46.4598C29.8451 46.6608 29.6526 46.7725 29.3922 46.7725H25.0221C24.7617 46.7725 24.5692 46.6608 24.456 46.4598C24.3428 46.2476 24.3428 46.0354 24.456 45.8344C24.5692 45.6222 24.7617 45.5105 25.0221 45.5105H26.5505V36.2632H25.0221C24.7617 36.2632 24.5692 36.1515 24.456 35.9505C24.3428 35.7383 24.3428 35.5261 24.456 35.3251C24.5692 35.1129 24.7617 35.0012 25.0221 35.0012H29.3922C29.6526 35.0012 29.8451 35.1129 29.9583 35.3251C30.0715 35.5261 30.0715 35.7383 29.9583 35.9505C29.8451 36.1515 29.6526 36.2632 29.3922 36.2632H27.8638V45.5105H29.3922C29.6413 45.5105 29.8451 45.6222 29.9583 45.8344Z" fill="#F8F8F8"/>
<path d="M43.4968 35.9504C43.3836 36.1515 43.1911 36.2632 42.9307 36.2632H42.4892V46.1359C42.4892 46.3592 42.3986 46.5267 42.2288 46.6384C42.0929 46.7278 41.9684 46.7613 41.8439 46.7613C41.5948 46.7613 41.4136 46.6608 41.2891 46.4597L35.9453 37.8937V45.4993H36.3868C36.6472 45.4993 36.8397 45.611 36.9529 45.8232C37.0661 46.0242 37.0661 46.2364 36.9529 46.4486C36.8397 46.6496 36.6472 46.7613 36.3868 46.7613H34.2018C33.9414 46.7613 33.7489 46.6496 33.6357 46.4486C33.5225 46.2364 33.5225 46.0242 33.6357 45.8232C33.7489 45.611 33.9414 45.4993 34.2018 45.4993H34.6433V36.252H34.2018C33.9414 36.252 33.7489 36.1403 33.6357 35.9393C33.5225 35.7271 33.5225 35.5149 33.6357 35.3139C33.7489 35.1017 33.9414 34.99 34.2018 34.99H35.2886C35.3679 34.99 35.4358 35.0012 35.4924 35.0123C35.6396 35.0682 35.7528 35.1575 35.8321 35.2915L41.1759 43.8575V36.252H40.7457C40.4853 36.252 40.2928 36.1403 40.1796 35.9393C40.0664 35.7271 40.0664 35.5149 40.1796 35.3139C40.2928 35.1017 40.4853 34.99 40.7457 34.99H42.9307C43.1911 34.99 43.3836 35.1017 43.4968 35.3139C43.61 35.5372 43.61 35.7494 43.4968 35.9504Z" fill="#F8F8F8"/>
<path d="M54.3758 43.6454C54.3758 44.3266 54.1267 44.9297 53.6512 45.4434C52.7681 46.3257 51.5114 46.7836 49.9038 46.7836C49.0547 46.7836 48.2508 46.5379 47.4923 46.08C46.745 45.611 46.1337 44.9744 45.6808 44.1926C45.6242 44.1033 45.6016 44.0027 45.6016 43.8799C45.6016 43.6342 45.7148 43.4443 45.9186 43.3215C46.0318 43.2656 46.145 43.2433 46.2582 43.2433C46.5073 43.2433 46.6884 43.3438 46.813 43.5448C47.1866 44.1591 47.6395 44.6393 48.1829 44.9855C48.7263 45.3318 49.3037 45.4993 49.9038 45.4993C50.8095 45.4993 51.5794 45.3206 52.1908 44.9632C52.7908 44.6058 53.0738 44.1703 53.0738 43.6342C53.0738 42.8971 52.8134 42.3387 52.2813 41.9478C52.0775 41.7579 51.6926 41.5792 51.1152 41.4005C50.2887 41.1437 49.8358 40.9985 49.7 40.9538L48.9754 40.7416C48.0697 40.4512 47.5036 40.2502 47.2319 40.1274C46.2695 39.636 45.7488 38.8765 45.6808 37.8714C45.6808 36.8774 46.0884 36.1403 46.9036 35.6712C47.6961 35.2133 48.6697 34.99 49.8132 34.99H49.9038C50.934 34.99 51.8398 35.2804 52.5983 35.8499C52.7115 35.7383 52.8587 35.6824 53.0512 35.6824C53.221 35.6824 53.3795 35.7494 53.504 35.8723C53.6399 35.9951 53.6965 36.1515 53.6965 36.319V37.8937C53.6965 38.1394 53.5833 38.3293 53.3682 38.441C53.1531 38.5526 52.938 38.5526 52.7229 38.441C52.5078 38.3293 52.3832 38.1506 52.3832 37.8937V37.4135C51.9983 36.9779 51.6247 36.6764 51.285 36.5089C50.934 36.3413 50.4699 36.252 49.8925 36.252H49.7792C48.8848 36.252 48.1829 36.3972 47.6961 36.6764C47.2206 36.9556 46.9828 37.3465 46.9828 37.8602C46.9828 38.2623 47.2772 38.642 47.8659 38.9882L48.1489 39.0999C48.2735 39.1446 48.4093 39.1892 48.5565 39.2451C48.715 39.3009 48.8169 39.3344 48.8848 39.3679L49.4169 39.5355C49.7339 39.6471 49.9604 39.703 50.0849 39.7365L50.7303 39.9487C51.2624 40.0827 51.7945 40.2725 52.2926 40.4959C52.7795 40.6969 53.2663 41.0655 53.7305 41.6016C54.1607 42.0706 54.3758 42.7631 54.3758 43.6454Z" fill="#F8F8F8"/>
<path d="M129.52 36.2074C129.407 36.4195 129.214 36.5312 128.954 36.5312H128.229L125.24 41.3336V45.7785H125.682C125.942 45.7785 126.135 45.8902 126.248 46.0912C126.361 46.3034 126.361 46.5156 126.248 46.7166C126.135 46.9288 125.942 47.0405 125.682 47.0405H123.497C123.236 47.0405 123.044 46.9288 122.931 46.7166C122.817 46.5156 122.817 46.3034 122.931 46.0912C123.044 45.879 123.236 45.7673 123.497 45.7673H123.927V41.3224L120.938 36.5201H120.213C119.953 36.5201 119.761 36.4084 119.647 36.1962C119.534 35.9952 119.534 35.783 119.647 35.5708C119.761 35.3697 119.953 35.2581 120.213 35.2581H122.399C122.659 35.2581 122.851 35.3697 122.965 35.5708C123.078 35.783 123.078 35.9952 122.965 36.1962C122.863 36.386 122.693 36.4977 122.466 36.5089L124.584 39.904L126.701 36.5089C126.474 36.4977 126.305 36.386 126.191 36.1962C126.078 35.9952 126.078 35.783 126.191 35.5708C126.305 35.3697 126.497 35.2581 126.757 35.2581H128.942C129.203 35.2581 129.395 35.3697 129.509 35.5708C129.633 35.783 129.633 35.9952 129.52 36.2074Z" fill="#F8F8F8"/>
<path d="M117.709 35.8946V37.4693C117.709 37.715 117.596 37.9049 117.369 38.0165C117.154 38.1282 116.939 38.1282 116.724 38.0165C116.509 37.9049 116.396 37.715 116.396 37.4693V36.5312H113.882V45.7785H114.312C114.573 45.7785 114.765 45.8901 114.879 46.0912C114.992 46.3034 114.992 46.5156 114.879 46.7166C114.765 46.9288 114.573 47.0405 114.312 47.0405H112.127C111.867 47.0405 111.674 46.9288 111.561 46.7166C111.448 46.5156 111.448 46.3034 111.561 46.0912C111.674 45.879 111.867 45.7673 112.127 45.7673H112.558V36.52H110.044V37.4581C110.044 37.7038 109.931 37.8937 109.716 38.0054C109.501 38.1171 109.286 38.1059 109.071 38.0054C108.855 37.8937 108.742 37.7038 108.742 37.4581V35.8834C108.742 35.7159 108.799 35.5707 108.923 35.4367C109.048 35.3138 109.206 35.2468 109.388 35.2468H117.041C117.211 35.2468 117.369 35.3027 117.494 35.4255C117.63 35.5484 117.709 35.7047 117.709 35.8946Z" fill="#F8F8F8"/>
<path d="M106.797 36.2074C106.684 36.4196 106.492 36.5313 106.231 36.5313H105.79V43.2546C105.79 44.2932 105.393 45.1978 104.623 45.9349C103.865 46.672 102.937 47.0406 101.861 47.0406C100.785 47.0406 99.857 46.672 99.0759 45.9349C98.3173 45.1755 97.9324 44.2709 97.9324 43.2546V36.5313H97.4908C97.2304 36.5313 97.038 36.4196 96.9248 36.2074C96.8115 36.0064 96.8115 35.7942 96.9248 35.582C97.038 35.381 97.2304 35.2693 97.4908 35.2693H99.6759C99.9363 35.2693 100.129 35.381 100.242 35.582C100.355 35.7942 100.355 36.0064 100.242 36.2074C100.129 36.4196 99.9363 36.5313 99.6759 36.5313H99.2457V43.2546C99.2457 43.9358 99.5061 44.5277 100.016 45.0303C100.536 45.5217 101.148 45.7786 101.861 45.7786C102.574 45.7786 103.197 45.5217 103.706 45.0303C104.216 44.5277 104.476 43.9358 104.476 43.2546V36.5313H104.035C103.774 36.5313 103.582 36.4196 103.469 36.2074C103.355 36.0064 103.355 35.7942 103.469 35.582C103.582 35.381 103.774 35.2693 104.035 35.2693H106.22C106.48 35.2693 106.673 35.381 106.786 35.582C106.91 35.783 106.91 35.9952 106.797 36.2074Z" fill="#F8F8F8"/>
<path d="M95.4409 46.0914C95.3277 45.8904 95.1353 45.7787 94.8749 45.7787H94.2748L91.1274 35.4816C91.0821 35.2694 90.9349 35.0237 90.4934 35.0237C90.4368 35.0237 90.3689 35.0348 90.2443 35.0795C90.0519 35.1577 89.9273 35.2917 89.8594 35.4816L86.712 45.7898H86.1119C85.8515 45.7898 85.6591 45.9015 85.5458 46.1026C85.4326 46.3147 85.4326 46.5269 85.5458 46.728C85.6591 46.9402 85.8515 47.0518 86.1119 47.0518H88.297C88.5574 47.0518 88.7499 46.9402 88.8631 46.7391C88.9763 46.5269 88.9763 46.3147 88.8631 46.1137C88.7499 45.9127 88.5574 45.801 88.297 45.801H88.0706L88.8178 43.3887H92.1464L92.8936 45.801H92.6672C92.4068 45.801 92.2143 45.9127 92.1011 46.1137C91.9879 46.3259 91.9879 46.5381 92.1011 46.7391C92.2143 46.9513 92.4068 47.063 92.6672 47.063H94.8522C95.1126 47.063 95.3051 46.9513 95.4183 46.7503C95.5542 46.5046 95.5542 46.2924 95.4409 46.0914ZM91.7727 42.0932H89.2254L90.5047 37.8939L91.7727 42.0932Z" fill="#F8F8F8"/>
<path d="M82.3083 37.4694V36.5312H77.0551V40.5183H79.5685V40.0939C79.5685 39.8482 79.6817 39.6583 79.8968 39.5466C80.1119 39.435 80.327 39.435 80.5421 39.5466C80.7572 39.6583 80.8818 39.837 80.8818 40.0939V42.1935C80.8818 42.4504 80.7686 42.6402 80.5421 42.7408C80.327 42.8524 80.1119 42.8524 79.8968 42.7408C79.6817 42.6291 79.5685 42.4504 79.5685 42.1935V41.7803H77.0551V45.7673H82.3083V44.8292C82.3083 44.5835 82.4215 44.3937 82.6366 44.282C82.8517 44.1703 83.0669 44.1703 83.282 44.282C83.4971 44.3937 83.6216 44.5835 83.6216 44.8292V46.4039C83.6216 46.5938 83.5537 46.7502 83.4178 46.8618C83.282 46.9735 83.1348 47.0405 82.965 47.0405H75.3229C75.0625 47.0405 74.87 46.9288 74.7568 46.7166C74.6436 46.5156 74.6436 46.3034 74.7568 46.0912C74.87 45.879 75.0625 45.7673 75.3229 45.7673H75.7531V36.5201H75.3229C75.0625 36.5201 74.87 36.4084 74.7568 36.1962C74.6436 35.9952 74.6436 35.783 74.7568 35.5708C74.87 35.3697 75.0625 35.2581 75.3229 35.2581H82.965C83.1348 35.2581 83.2933 35.3139 83.4178 35.4367C83.5537 35.5484 83.6216 35.7048 83.6216 35.8946V37.4694C83.6216 37.7151 83.5084 37.9049 83.282 38.0166C83.0669 38.1283 82.8517 38.1283 82.6366 38.0166C82.4215 37.9049 82.3083 37.7151 82.3083 37.4694Z" fill="#F8F8F8"/>
<path d="M70.1486 40.4067C70.8279 39.8818 71.1675 39.1335 71.1675 38.173C71.1675 36.8105 70.4769 35.9282 69.1183 35.5485C68.5296 35.3586 67.7031 35.2693 66.6842 35.2693H63.9557C63.6953 35.2693 63.5028 35.381 63.3896 35.582C63.2764 35.7942 63.2764 36.0064 63.3896 36.2074C63.5028 36.4196 63.6953 36.5313 63.9557 36.5313H64.3859V45.7786H63.9557C63.6953 45.7786 63.5028 45.8903 63.3896 46.0913C63.2764 46.3035 63.2764 46.5157 63.3896 46.7167C63.5028 46.9289 63.6953 47.0406 63.9557 47.0406H67.7824C69.0051 47.0406 70.0693 46.7279 70.9298 46.1136C71.8129 45.477 72.2657 44.5724 72.2657 43.4221C72.2544 41.9702 71.5525 40.9539 70.1486 40.4067ZM66.6842 36.5313C67.8616 36.5313 68.7108 36.643 69.1749 36.8775C69.6278 37.1009 69.8429 37.5253 69.8429 38.173C69.8429 38.8431 69.6052 39.2898 69.107 39.569C68.5975 39.8483 67.7824 39.9934 66.6729 39.9934H65.6879V36.5313H66.6842ZM70.1033 45.142C69.5372 45.5552 68.756 45.7674 67.7824 45.7674H65.6992V41.2554H67.7824C69.9108 41.2554 70.9524 41.959 70.9524 43.4221C70.9524 44.1704 70.6694 44.7399 70.1033 45.142Z" fill="#F8F8F8"/>
<path d="M170.719 36.2077C170.606 36.4199 170.414 36.5315 170.153 36.5315H169.712V43.2548C169.712 44.2934 169.316 45.1981 168.546 45.9352C167.787 46.6723 166.859 47.0408 165.783 47.0408C164.708 47.0408 163.768 46.6723 162.998 45.9352C162.24 45.1757 161.855 44.2711 161.855 43.2548V36.5315H161.424C161.164 36.5315 160.972 36.4199 160.858 36.2077C160.745 36.0066 160.745 35.7944 160.858 35.5822C160.972 35.3812 161.164 35.2695 161.424 35.2695H163.609C163.87 35.2695 164.062 35.3812 164.176 35.5822C164.289 35.7944 164.289 36.0066 164.176 36.2077C164.062 36.4199 163.87 36.5315 163.609 36.5315H163.157V43.2548C163.157 43.9361 163.417 44.528 163.938 45.0306C164.447 45.522 165.07 45.7788 165.783 45.7788C166.497 45.7788 167.119 45.522 167.629 45.0306C168.149 44.528 168.41 43.9361 168.41 43.2548V36.5315H167.968C167.708 36.5315 167.515 36.4199 167.402 36.2077C167.289 36.0066 167.289 35.7944 167.402 35.5822C167.515 35.3812 167.708 35.2695 167.968 35.2695H170.153C170.414 35.2695 170.606 35.3812 170.719 35.5822C170.833 35.7833 170.821 35.9955 170.719 36.2077Z" fill="#F8F8F8"/>
<path d="M191.676 37.4694V36.5312H186.434V40.5183H188.947V40.0939C188.947 39.8482 189.06 39.6583 189.287 39.5466C189.502 39.435 189.717 39.435 189.932 39.5466C190.147 39.6583 190.26 39.837 190.26 40.0939V42.1935C190.26 42.4504 190.147 42.6402 189.932 42.7408C189.717 42.8524 189.502 42.8524 189.287 42.7408C189.072 42.6291 188.947 42.4504 188.947 42.1935V41.7803H186.434V45.7673H191.676V44.8292C191.676 44.5835 191.789 44.3937 192.015 44.282C192.23 44.1703 192.445 44.1703 192.66 44.282C192.876 44.3937 193 44.5835 193 44.8292V46.4039C193 46.5938 192.932 46.7502 192.796 46.8618C192.66 46.9735 192.513 47.0405 192.343 47.0405H184.69C184.43 47.0405 184.237 46.9288 184.124 46.7166C184.011 46.5156 184.011 46.3034 184.124 46.0912C184.237 45.879 184.43 45.7673 184.69 45.7673H185.132V36.5201H184.69C184.43 36.5201 184.237 36.4084 184.124 36.1962C184.011 35.9952 184.011 35.783 184.124 35.5708C184.237 35.3697 184.43 35.2581 184.69 35.2581H192.343C192.513 35.2581 192.672 35.3139 192.796 35.4367C192.932 35.5484 193 35.7048 193 35.8946V37.4694C193 37.7151 192.887 37.9049 192.66 38.0166C192.445 38.1283 192.23 38.1283 192.015 38.0166C191.789 37.9049 191.676 37.7151 191.676 37.4694Z" fill="#F8F8F8"/>
<path d="M181.602 43.9022C181.602 44.5835 181.353 45.1977 180.866 45.7003C179.983 46.5826 178.726 47.0405 177.118 47.0405C176.269 47.0405 175.465 46.7948 174.707 46.3257C173.96 45.8566 173.348 45.22 172.884 44.4383C172.827 44.3489 172.805 44.2484 172.805 44.1256C172.805 43.8799 172.918 43.69 173.122 43.5671C173.235 43.5113 173.337 43.489 173.461 43.489C173.71 43.489 173.892 43.5895 174.016 43.7905C174.39 44.4048 174.843 44.885 175.397 45.2312C175.941 45.5774 176.518 45.745 177.118 45.745C178.024 45.745 178.794 45.5663 179.394 45.2089C179.994 44.8515 180.277 44.4159 180.277 43.8799C180.277 43.1428 180.017 42.5843 179.484 42.2046C179.281 42.0148 178.896 41.8249 178.318 41.6462C177.515 41.4005 177.039 41.2442 176.892 41.2107L176.167 40.9985C175.284 40.7193 174.695 40.5182 174.424 40.3842C173.45 39.8928 172.941 39.1334 172.873 38.1282C172.873 37.1343 173.28 36.3972 174.095 35.9281C174.888 35.4702 175.862 35.2468 177.005 35.2468H177.096C178.126 35.2468 179.032 35.5372 179.79 36.1068C179.903 35.9951 180.062 35.9393 180.243 35.9393C180.413 35.9393 180.571 35.9951 180.707 36.1291C180.843 36.2631 180.9 36.4083 180.9 36.5758V38.1506C180.9 38.3963 180.786 38.5861 180.56 38.6978C180.345 38.8095 180.13 38.8095 179.915 38.6978C179.7 38.5861 179.586 38.4074 179.586 38.1506V37.6592C179.201 37.2348 178.828 36.9221 178.488 36.7657C178.137 36.5982 177.673 36.5088 177.096 36.5088H176.982C176.088 36.5088 175.386 36.654 174.899 36.9332C174.424 37.2124 174.186 37.6033 174.186 38.1282C174.186 38.5303 174.492 38.91 175.069 39.2562L175.352 39.3679C175.477 39.4126 175.612 39.4572 175.76 39.5131C175.918 39.5689 176.031 39.6024 176.088 39.6359L176.62 39.8146C176.937 39.9151 177.164 39.9822 177.288 40.0157L177.933 40.2278C178.465 40.3619 178.998 40.5517 179.496 40.7751C179.983 40.9761 180.469 41.3447 180.934 41.8696C181.386 42.3275 181.602 43.0087 181.602 43.9022Z" fill="#F8F8F8"/>
<path d="M157.576 36.5312C156.693 35.6936 155.64 35.2581 154.417 35.2581C153.194 35.2581 152.13 35.6824 151.258 36.5312C150.375 37.38 149.934 38.3963 149.934 39.569V42.7184C149.934 43.8911 150.375 44.9186 151.258 45.7562C152.13 46.5938 153.194 47.0294 154.417 47.0294C155.64 47.0294 156.693 46.605 157.576 45.7562C158.447 44.9074 158.9 43.8911 158.9 42.7184V39.569C158.9 38.3963 158.447 37.38 157.576 36.5312ZM154.417 45.7673C153.568 45.7673 152.821 45.4658 152.175 44.8739C151.553 44.2485 151.247 43.5225 151.247 42.7184V39.569C151.247 38.7537 151.564 38.0278 152.175 37.4359C152.809 36.8328 153.568 36.5201 154.417 36.5201C155.277 36.5201 156.025 36.8328 156.636 37.4359C157.27 38.0166 157.587 38.7314 157.587 39.5578V42.7073C157.587 43.5225 157.27 44.2485 156.636 44.8627C156.025 45.4658 155.277 45.7673 154.417 45.7673Z" fill="#F8F8F8"/>
<path d="M147.996 46.0912C148.11 46.3034 148.11 46.5156 147.996 46.7166C147.883 46.9176 147.691 47.0293 147.43 47.0293H145.245C144.985 47.0293 144.792 46.9176 144.679 46.7054C144.566 46.5044 144.566 46.2922 144.679 46.08C144.792 45.879 144.985 45.7673 145.245 45.7673H145.687V41.7802H140.434V45.7673H140.875C141.136 45.7673 141.328 45.879 141.441 46.08C141.554 46.2922 141.554 46.5044 141.441 46.7054C141.328 46.9064 141.136 47.0181 140.875 47.0181H138.69C138.43 47.0181 138.237 46.9064 138.124 46.6942C138.011 46.4932 138.011 46.281 138.124 46.0688C138.237 45.8678 138.43 45.7561 138.69 45.7561H139.12V36.5088H138.69C138.43 36.5088 138.237 36.3972 138.124 36.185C138.011 35.9839 138.011 35.7717 138.124 35.5595C138.237 35.3585 138.43 35.2468 138.69 35.2468H140.875C141.136 35.2468 141.328 35.3585 141.441 35.5595C141.554 35.7717 141.554 35.9839 141.441 36.185C141.328 36.3972 141.136 36.5088 140.875 36.5088H140.434V40.4959H145.687V36.5088H145.245C144.985 36.5088 144.792 36.3972 144.679 36.185C144.566 35.9839 144.566 35.7717 144.679 35.5595C144.792 35.3585 144.985 35.2468 145.245 35.2468H147.43C147.691 35.2468 147.883 35.3585 147.996 35.5595C148.11 35.7717 148.11 35.9839 147.996 36.185C147.883 36.3972 147.691 36.5088 147.43 36.5088H146.989V45.7561H147.43C147.691 45.7673 147.883 45.879 147.996 46.0912Z" fill="#F8F8F8"/>
<path d="M80.7241 60.2192H78.0862V62.2853H81.0185V62.9107H77.2031V57.1814H80.86V57.8068H78.0749V59.6161H80.7128V60.2192H80.7241Z" fill="#F8F8F8"/>
<path d="M82.0819 62.006C82.4782 62.207 83.0442 62.3745 83.6556 62.3745C84.55 62.3745 85.0708 61.9725 85.0708 61.3917C85.0708 60.8557 84.7085 60.5541 83.7915 60.2526C82.6819 59.9175 82.0027 59.4373 82.0027 58.6332C82.0027 57.7397 82.8744 57.0808 84.199 57.0808C84.8897 57.0808 85.3991 57.2148 85.6935 57.36L85.4557 57.9631C85.2293 57.8626 84.7764 57.6951 84.1651 57.6951C83.2367 57.6951 82.8857 58.1641 82.8857 58.555C82.8857 59.0911 83.2933 59.3591 84.233 59.6607C85.3765 60.0292 85.9652 60.4983 85.9652 61.3471C85.9652 62.2294 85.1953 63 83.5877 63C82.931 63 82.2178 62.8436 81.8555 62.6314L82.0819 62.006Z" fill="#F8F8F8"/>
<path d="M88.5019 57.8068H86.4414V57.1814H91.4569V57.8068H89.385V62.9107H88.5019V57.8068Z" fill="#F8F8F8"/>
<path d="M91.4219 62.4641C91.4219 62.1513 91.6709 61.928 92.0219 61.928C92.3729 61.928 92.6106 62.1513 92.6106 62.4641C92.6106 62.7656 92.3842 63.0001 92.0106 63.0001C91.6596 63.0001 91.4219 62.7656 91.4219 62.4641Z" fill="#F8F8F8"/>
<path d="M95.6562 62.9106V62.4527L96.3469 61.8831C98.0111 60.5429 98.7697 59.8282 98.781 58.9905C98.781 58.4321 98.464 57.9072 97.479 57.9072C96.8903 57.9072 96.3921 58.1641 96.0865 58.3763L95.8034 57.8514C96.2563 57.5275 96.9016 57.293 97.6488 57.293C99.0527 57.293 99.6528 58.1083 99.6528 58.9012C99.6528 59.9175 98.781 60.744 97.3998 61.8719L96.879 62.2852V62.3075H99.8113V62.9329H95.6562V62.9106Z" fill="#F8F8F8"/>
<path d="M105.212 60.0851C105.212 61.9614 104.385 63 102.936 63C101.657 63 100.796 61.9837 100.773 60.1633C100.773 58.3094 101.713 57.2931 103.049 57.2931C104.43 57.2819 105.212 58.3205 105.212 60.0851ZM101.668 60.1745C101.668 61.6152 102.189 62.4304 102.992 62.4304C103.898 62.4304 104.328 61.537 104.328 60.1298C104.328 58.7673 103.921 57.8738 103.004 57.8738C102.223 57.8626 101.668 58.6668 101.668 60.1745Z" fill="#F8F8F8"/>
<path d="M107.997 58.0747H107.974L106.842 58.5884L106.672 58.0189L108.098 57.3711H108.857V62.8994H107.997V58.0747Z" fill="#F8F8F8"/>
<path d="M114.019 62.9106V61.4029H110.984V60.9115L113.905 57.3823H114.856V60.8221H115.773V61.4141H114.856V62.9218H114.019V62.9106ZM114.019 60.811V58.9682C114.019 58.6778 114.03 58.3875 114.053 58.0971H114.019C113.815 58.421 113.656 58.6555 113.475 58.9124L111.879 60.7886V60.811H114.019Z" fill="#F8F8F8"/>
<path d="M102.325 25.229H90.6523V25.8544H102.325V25.229Z" fill="#F8F8F8"/>
<path d="M92.1363 2.57984C92.1363 2.56861 92.125 2.56861 92.125 2.55737C92.125 2.56861 92.125 2.56861 92.1363 2.57984Z" fill="#F8F8F8"/>
<path d="M107.362 12.2739C107.362 12.9551 107.113 13.5582 106.626 14.072C105.743 14.9542 104.486 15.401 102.879 15.401C102.03 15.401 101.226 15.1664 100.467 14.6974C100.411 14.6639 100.139 14.4963 99.8332 14.2283C99.8332 14.2283 99.0294 13.5359 98.6105 12.7094C98.5765 12.6536 98.5539 12.5754 98.5539 12.5754C98.5086 12.4749 98.452 12.3632 98.3954 12.218C98.3161 12.0282 98.2709 11.883 98.2369 11.7601H97.15V14.675H97.6595C97.9878 14.675 98.2595 14.9431 98.2595 15.267V15.3786C98.2595 15.7025 97.9878 15.9706 97.6595 15.9706H95.3159C94.9876 15.9706 94.7159 15.7025 94.7159 15.3786V15.267C94.7159 14.9431 94.9876 14.675 95.3159 14.675H95.8254V11.7601H94.7385C94.7046 11.883 94.6479 12.0393 94.58 12.218C94.5234 12.352 94.4668 12.4749 94.4215 12.5754C94.4215 12.5754 94.3875 12.6424 94.3649 12.7094C93.946 13.5359 93.1422 14.2283 93.1422 14.2283C92.8365 14.4963 92.5648 14.6527 92.5082 14.6974C91.7609 15.1664 90.9458 15.401 90.0966 15.401C88.489 15.401 87.2323 14.9542 86.3492 14.072C85.8624 13.5582 85.6133 12.9551 85.6133 12.2739C85.6133 11.3804 85.8737 10.7327 86.2586 10.2413C86.7002 9.67167 87.1983 9.3478 87.6965 9.14677C88.1946 8.9234 88.7267 8.73354 89.2588 8.58836C90.0174 8.36499 90.3797 8.24214 90.5608 8.1863C90.6401 8.16397 90.7986 8.10812 91.0024 8.04111C91.2062 7.9741 91.2515 7.96294 91.4213 7.89593C91.659 7.81775 91.7949 7.76191 91.8289 7.75074C91.9647 7.6949 92.0892 7.65023 92.1232 7.63906C92.3723 7.52737 92.9497 7.13649 92.995 6.52223C93.0176 6.20953 92.8931 5.96382 92.8478 5.88565C92.7346 5.66228 92.5421 5.48359 92.2817 5.33841C91.7949 5.0592 91.0929 4.91401 90.1985 4.91401H90.0853C89.5079 4.91401 89.0437 5.00336 88.6928 5.17088C88.2965 5.34957 88.0135 5.56177 87.5946 6.07551V6.55574C87.5946 6.80144 87.4814 6.9913 87.2662 7.10298C87.0511 7.2035 86.836 7.2035 86.6209 7.10298C86.4058 6.9913 86.2926 6.80144 86.2926 6.55574V4.98102C86.2926 4.8135 86.3605 4.66831 86.4851 4.53429C86.6096 4.40028 86.7681 4.34444 86.9492 4.34444C87.1304 4.34444 87.2889 4.40027 87.4021 4.51196C88.1606 3.94238 89.0664 3.652 90.0966 3.652H90.1872C91.3307 3.652 92.3044 3.88654 93.0969 4.34444C93.9007 4.80233 94.3196 5.5506 94.3196 6.53341C94.263 7.53855 93.7422 8.29798 92.7799 8.78939C92.5081 8.9234 91.9421 9.12443 91.0363 9.40364L90.3118 9.61583C89.757 9.77219 89.2815 9.92854 88.8852 10.0626C88.2965 10.2636 88.0248 10.3641 87.7304 10.5986C87.5946 10.6992 87.4021 10.8555 87.2323 11.1235C86.904 11.6373 86.9153 12.1399 86.9379 12.285C86.9945 12.8323 87.221 13.2567 87.821 13.6141C88.4324 13.9714 89.1909 14.1501 90.108 14.1501C90.708 14.1501 91.2854 13.9826 91.8289 13.6364C92.01 13.5247 92.1685 13.3907 92.327 13.2567C92.9384 12.7206 93.3007 12.0282 93.4139 11.5368C93.4478 11.3804 93.4705 11.2799 93.5384 11.1012C93.5724 11.0007 93.6177 10.8778 93.7082 10.7662C93.7309 10.7327 93.7648 10.688 93.8215 10.6545C93.9233 10.5763 94.0705 10.5316 94.229 10.5316H95.848V1.28434H93.3346V2.22247C93.3346 2.25598 93.3346 2.27832 93.3346 2.31182C93.3346 2.32299 93.3346 2.34532 93.3233 2.35649C93.3233 2.36766 93.3233 2.37883 93.312 2.39C93.312 2.40117 93.3007 2.41233 93.3007 2.43467C93.3007 2.44584 93.2893 2.45701 93.2893 2.46818C93.2893 2.47934 93.278 2.50168 93.2667 2.51285C93.2667 2.52402 93.2554 2.53518 93.2441 2.54635C93.2327 2.55752 93.2327 2.56869 93.2214 2.57986C93.2101 2.59102 93.2101 2.60219 93.1988 2.61336C93.1875 2.62453 93.1761 2.6357 93.1761 2.64687C93.1648 2.65803 93.1535 2.6692 93.1422 2.68037C93.1308 2.69154 93.1195 2.70271 93.1082 2.70271C93.0856 2.72504 93.0629 2.73621 93.0403 2.74738C93.0176 2.75855 92.9837 2.78089 92.961 2.79205C92.9497 2.79205 92.9384 2.80322 92.9271 2.80322C92.7685 2.85906 92.5987 2.85906 92.4402 2.80322H92.4289C92.4289 2.80322 92.4176 2.80322 92.4176 2.79205C92.4176 2.79205 92.4062 2.79205 92.4062 2.78088C92.3949 2.78088 92.3836 2.76972 92.3836 2.76972H92.3723H92.361C92.3496 2.75855 92.327 2.74738 92.3157 2.74738C92.3044 2.73621 92.293 2.72504 92.2704 2.72504C92.2591 2.71388 92.2364 2.70271 92.2251 2.69154C92.2138 2.68037 92.2025 2.68037 92.2025 2.6692L92.1912 2.65803C92.1912 2.65803 92.1911 2.65803 92.1798 2.64687C92.1685 2.6357 92.1572 2.62453 92.1572 2.61336C92.1572 2.61336 92.1572 2.61336 92.1572 2.60219L92.1459 2.59103L92.1345 2.57986C92.1232 2.56869 92.1232 2.55752 92.1119 2.54635C92.1006 2.52402 92.0892 2.51285 92.0892 2.49051C92.0892 2.47934 92.0779 2.46817 92.0779 2.457C92.0666 2.43467 92.0666 2.41233 92.0553 2.37883C92.044 2.33415 92.044 2.28948 92.044 2.23364V0.636588C92.044 0.469065 92.1006 0.323876 92.2251 0.189858C92.2364 0.178689 92.2591 0.156354 92.2591 0.156354C92.2591 0.156354 92.2817 0.145183 92.293 0.122847C92.3157 0.111679 92.3496 0.0893449 92.3949 0.0558402C92.4063 0.0558402 92.4289 0.0446715 92.4515 0.0335033C92.4515 0.0335033 92.5308 0 92.6214 0C92.644 0 92.6666 0 92.6893 0H100.331C100.354 0 100.377 0 100.399 0C100.49 0.0111682 100.569 0.0335033 100.569 0.0335033C100.603 0.0446715 100.614 0.0558402 100.626 0.0558402C100.671 0.0781767 100.716 0.111679 100.728 0.122847C100.75 0.134015 100.762 0.145186 100.762 0.156354C100.762 0.156354 100.773 0.167521 100.796 0.189858C100.92 0.312708 100.977 0.469065 100.977 0.636588V2.21131C100.977 2.25598 100.977 2.31182 100.965 2.35649C100.965 2.37883 100.954 2.41233 100.943 2.43467C100.943 2.44584 100.931 2.45701 100.931 2.46818C100.92 2.47934 100.92 2.50168 100.909 2.51285C100.909 2.51285 100.909 2.51285 100.909 2.52402C100.897 2.53518 100.897 2.54635 100.886 2.55752C100.875 2.56869 100.863 2.57986 100.863 2.59103C100.852 2.60219 100.841 2.61336 100.841 2.62453C100.841 2.62453 100.841 2.62453 100.83 2.6357L100.818 2.64687C100.807 2.65803 100.807 2.65804 100.796 2.6692C100.784 2.68037 100.773 2.69154 100.75 2.70271C100.739 2.71387 100.728 2.72504 100.705 2.72504C100.694 2.73621 100.671 2.74738 100.66 2.74738H100.648H100.637C100.626 2.74738 100.614 2.75855 100.614 2.75855C100.614 2.75855 100.603 2.75855 100.603 2.76972C100.603 2.76972 100.592 2.76972 100.592 2.78088H100.58C100.422 2.83672 100.252 2.83672 100.094 2.78088C100.082 2.78088 100.071 2.76972 100.06 2.76972C100.037 2.75855 100.003 2.74738 99.9804 2.72504C99.9578 2.71388 99.9351 2.69154 99.9125 2.68037C99.9012 2.6692 99.8898 2.65803 99.8785 2.65803C99.8672 2.64686 99.8559 2.6357 99.8446 2.62453C99.8332 2.61336 99.8219 2.60219 99.8219 2.59103C99.8106 2.57986 99.7993 2.56869 99.7993 2.55752C99.7879 2.54635 99.788 2.53518 99.7766 2.52402C99.7766 2.51285 99.7653 2.50168 99.754 2.49051C99.7427 2.47934 99.7427 2.46817 99.7313 2.44584C99.7313 2.43467 99.72 2.4235 99.72 2.41233C99.72 2.40117 99.7087 2.39 99.7087 2.36766C99.7087 2.35649 99.6974 2.34532 99.6974 2.33415C99.6974 2.32299 99.6974 2.30065 99.6861 2.28948C99.6861 2.25598 99.6861 2.23364 99.6861 2.20014V1.26201H97.1727V10.5093H98.7916C98.9501 10.5093 99.086 10.554 99.1992 10.6321C99.2445 10.6656 99.2785 10.7103 99.3124 10.7438C99.4143 10.8667 99.4483 10.9784 99.4823 11.0789C99.5389 11.2576 99.5615 11.3581 99.6068 11.5144C99.72 12.0058 100.082 12.6983 100.694 13.2343C100.852 13.3795 101.022 13.5024 101.192 13.6141C101.735 13.9603 102.313 14.1278 102.913 14.1278C103.818 14.1278 104.588 13.9491 105.2 13.5917C105.8 13.2343 106.026 12.8099 106.083 12.2627C106.094 12.1175 106.105 11.6038 105.788 11.1012C105.619 10.8332 105.426 10.6768 105.29 10.5763C104.996 10.3418 104.713 10.2301 104.135 10.0402C103.751 9.90621 103.264 9.76102 102.709 9.59349L101.984 9.3813C101.079 9.09093 100.513 8.8899 100.241 8.76705C99.2785 8.27565 98.7577 7.51621 98.7011 6.51107C98.7011 5.5171 99.1086 4.78 99.9238 4.3221C100.716 3.8642 101.69 3.62967 102.833 3.62967H102.924C103.954 3.62967 104.86 3.92004 105.619 4.48962C105.732 4.37794 105.879 4.3221 106.071 4.3221C106.253 4.3221 106.4 4.38911 106.536 4.51196C106.671 4.63481 106.728 4.79116 106.728 4.95869V6.53341C106.728 6.77911 106.615 6.96896 106.4 7.08065C106.185 7.19233 105.97 7.19233 105.754 7.08065C105.539 6.96896 105.426 6.77911 105.426 6.53341V6.05317C105.007 5.53943 104.724 5.3384 104.328 5.14854C103.977 4.98102 103.501 4.89168 102.935 4.89168H102.822C101.928 4.89168 101.226 5.03686 100.739 5.31607C100.479 5.46126 100.297 5.65112 100.173 5.86331C100.128 5.95266 100.003 6.18719 100.026 6.4999C100.071 7.11415 100.648 7.51621 100.897 7.61672C100.931 7.62789 101.056 7.68373 101.192 7.7284C101.226 7.73957 101.362 7.79541 101.599 7.87359C101.769 7.92943 101.815 7.95177 102.018 8.01878C102.222 8.08579 102.381 8.14163 102.46 8.16396C102.641 8.23097 103.003 8.34266 103.762 8.56602C104.305 8.71121 104.826 8.90107 105.324 9.12443C105.822 9.32546 106.309 9.64934 106.762 10.2189C107.102 10.7438 107.362 11.3804 107.362 12.2739Z" fill="#F8F8F8"/>
<path d="M92.1363 2.57984C92.1363 2.56861 92.125 2.56861 92.125 2.55737C92.125 2.56861 92.125 2.56861 92.1363 2.57984Z" fill="#F8F8F8"/>
</svg>
