<svg width="213" height="114" viewBox="0 0 213 114" fill="none" xmlns="http://www.w3.org/2000/svg">
<g clip-path="url(#clip0_501_16370)">
<g filter="url(#filter0_i_501_16370)">
<mask id="mask0_501_16370" style="mask-type:luminance" maskUnits="userSpaceOnUse" x="0" y="0" width="213" height="114">
<path d="M198.654 3.0002e-06L0 35.0048L13.8269 113.473L212.481 78.4683L198.654 3.0002e-06Z" fill="white"/>
</mask>
<g mask="url(#mask0_501_16370)">
<path d="M198.654 3.0002e-06L0 35.0048L13.8269 113.473L212.481 78.4683L198.654 3.0002e-06Z" fill="#CECECE"/>
<path d="M198.654 3.0002e-06L0 35.0048L13.8269 113.473L212.481 78.4683L198.654 3.0002e-06Z"/>
<path d="M28.0887 77.9433L28.3278 79.3001C28.3656 79.5146 28.2912 79.6965 28.1138 79.8243C27.9364 79.952 27.7423 79.9862 27.5319 79.9268C27.3208 79.8634 27.1895 79.7218 27.1517 79.5073L27.0088 78.6964L24.7476 79.0949L26.1498 87.0524L26.5418 86.9834C26.7729 86.9426 26.9675 87.0088 27.1023 87.1699C27.2322 87.3279 27.2645 87.5112 27.1971 87.7081C27.1207 87.9024 26.9645 88.0304 26.7334 88.0711L24.7734 88.4165C24.5423 88.4572 24.3518 88.3903 24.2178 88.2331C24.083 88.0718 24.0507 87.8885 24.1229 87.6949C24.1945 87.4974 24.3506 87.3695 24.5818 87.3287L24.9779 87.2589L23.5757 79.3014L21.3144 79.6998L21.4573 80.5107C21.4951 80.7252 21.4208 80.9072 21.2433 81.0349C21.07 81.1619 20.8719 81.1968 20.6656 81.1367C20.4545 81.0733 20.3191 80.9325 20.2813 80.7179L20.0422 79.3612C20.0161 79.213 20.0477 79.0789 20.1399 78.95C20.2321 78.8212 20.3662 78.7373 20.5354 78.7075L27.41 77.4961C27.5626 77.4692 27.7078 77.4958 27.8412 77.5769C27.9794 77.6611 28.0605 77.7834 28.0887 77.9433Z" fill="#841A10"/>
<path d="M39.2474 76.259C39.1751 76.4526 39.019 76.5806 38.7878 76.6213L38.3216 76.7034L38.4747 85.7575C38.4767 85.9621 38.37 86.1296 38.1685 86.2414C38.0791 86.2894 38.0146 86.3089 37.9691 86.3169C37.5771 86.386 37.4065 86.1909 37.3337 86.0188L35.1708 81.9297L34.5373 86.5195C34.4948 86.7361 34.3722 86.8863 34.1777 86.9648C34.1597 86.984 34.1115 87.0006 34.0456 87.0122C33.736 87.0668 33.5065 86.9465 33.38 86.6632L30.4236 78.0951L29.9532 78.178C29.7221 78.2188 29.5275 78.1526 29.3976 77.9946C29.2669 77.8326 29.2346 77.6493 29.3027 77.4564C29.3743 77.259 29.5304 77.131 29.7616 77.0903L31.7257 76.7442C31.9568 76.7034 32.1513 76.7696 32.2821 76.9314C32.416 77.0887 32.4483 77.272 32.3769 77.4696C32.3046 77.6632 32.1485 77.7912 31.9174 77.8319L31.6161 77.885L33.6913 83.9149L34.2421 79.9668C34.2524 79.7841 34.3551 79.545 34.7387 79.4774C34.7882 79.4687 34.8564 79.4687 34.9519 79.48C35.1425 79.5229 35.2779 79.6155 35.3673 79.7606L37.2393 83.2858L37.1249 76.9143L36.8237 76.9674C36.5926 77.0081 36.4021 76.9412 36.268 76.784C36.1332 76.6227 36.1009 76.4394 36.1732 76.2458C36.2448 76.0483 36.4009 75.9204 36.632 75.8796L38.5962 75.5335C38.8273 75.4928 39.0178 75.5597 39.1525 75.7208C39.2865 75.8781 39.3181 76.0575 39.2474 76.259Z" fill="#841A10"/>
<path d="M48.5073 83.3987C48.6413 83.556 48.6735 83.7391 48.6021 83.9367C48.5298 84.1303 48.3737 84.2583 48.1426 84.299L44.2143 84.9912C43.979 85.0327 43.7885 84.9658 43.6586 84.8078C43.5238 84.6465 43.4915 84.4634 43.5638 84.2698C43.6312 84.0729 43.7873 83.9449 44.0226 83.9035L45.3967 83.6613L43.9945 75.7038L42.6204 75.9459C42.3851 75.9874 42.1947 75.9205 42.0647 75.7625C41.9299 75.6012 41.8977 75.4181 41.9699 75.2245C42.0373 75.0276 42.1935 74.8996 42.4287 74.8582L46.357 74.166C46.5882 74.1252 46.7828 74.1914 46.9134 74.3534C47.0474 74.5107 47.0797 74.6938 47.0082 74.8914C46.936 75.085 46.7798 75.213 46.5487 75.2537L45.1746 75.4958L46.5768 83.4534L47.9509 83.2113C48.182 83.1705 48.376 83.2328 48.5073 83.3987Z" fill="#841A10"/>
<path d="M59.1863 72.7457C59.114 72.9393 58.9579 73.0674 58.7268 73.1082L58.3307 73.178L59.829 81.6812C59.862 81.8684 59.8097 82.0304 59.6667 82.16C59.5601 82.2553 59.4458 82.3075 59.3386 82.3264C59.1198 82.3649 58.9349 82.3052 58.7975 82.1524L52.6911 75.6268L53.8446 82.173L54.2407 82.1032C54.4716 82.0625 54.6623 82.1295 54.7969 82.2906C54.9269 82.4486 54.9592 82.6319 54.8917 82.8286C54.8155 83.0229 54.6633 83.1502 54.4323 83.1909L52.4682 83.537C52.2371 83.5777 52.0466 83.5108 51.9125 83.3536C51.7777 83.1925 51.7454 83.0092 51.8177 82.8156C51.8893 82.6181 52.0454 82.49 52.2765 82.4493L52.6726 82.3795L51.2705 74.422L50.8743 74.4918C50.6432 74.5326 50.4527 74.4655 50.3186 74.3083C50.1839 74.1472 50.1516 73.9639 50.2238 73.7702C50.2954 73.5728 50.4515 73.4447 50.6826 73.4039L51.6647 73.2309C51.7389 73.2178 51.8023 73.2147 51.8545 73.2216C51.99 73.2419 52.1075 73.3057 52.2058 73.405L58.313 79.9345L57.1595 73.3883L56.7675 73.4574C56.5322 73.4988 56.3417 73.4318 56.2076 73.2745C56.077 73.1127 56.0447 72.9294 56.1128 72.7365C56.1844 72.539 56.3405 72.4111 56.5758 72.3696L58.5358 72.0243C58.7669 71.9835 58.9574 72.0504 59.0922 72.2115C59.2214 72.3657 59.253 72.545 59.1863 72.7457Z" fill="#841A10"/>
<path d="M70.1297 77.6462C70.2335 78.235 70.106 78.792 69.7498 79.305C69.0964 80.2081 68.0261 80.7986 66.5818 81.0531C65.8185 81.1876 65.0558 81.109 64.3083 80.8266C63.5642 80.5396 62.9234 80.0899 62.3919 79.4881C62.3335 79.422 62.2888 79.3374 62.271 79.236C62.2339 79.0254 62.3034 78.8404 62.4718 78.7101C62.5633 78.6499 62.6582 78.609 62.7655 78.5901C62.9842 78.5516 63.1693 78.6113 63.3067 78.764C63.7337 79.2315 64.2198 79.576 64.7597 79.7904C65.2946 80.0016 65.8413 80.0621 66.386 79.9661C67.2031 79.8221 67.8689 79.544 68.3551 79.1407C68.8374 78.7382 69.032 78.322 68.9502 77.858C68.8376 77.2187 68.5233 76.7876 67.9897 76.536C67.7745 76.401 67.4011 76.31 66.8544 76.2495C66.0677 76.1551 65.6461 76.1046 65.512 76.0921L64.8325 76.027C63.9764 75.9246 63.4337 75.8393 63.1711 75.7731C62.2297 75.5007 61.6439 74.9286 61.4384 74.0764C61.2872 73.2187 61.5466 72.5177 62.2063 71.9875C62.8472 71.4725 63.6905 71.1149 64.7138 70.9346L64.7921 70.9208C65.7164 70.7579 66.5776 70.8634 67.3449 71.2348C67.435 71.1183 67.5589 71.0483 67.728 71.0185C67.8847 70.9908 68.0306 71.0215 68.1653 71.1102C68.2995 71.1951 68.3847 71.3169 68.4101 71.4611L68.6499 72.8218C68.6877 73.0362 68.6133 73.2182 68.4352 73.342C68.262 73.469 68.0639 73.504 67.8575 73.4438C67.6471 73.3844 67.5116 73.2435 67.4738 73.0291L67.4003 72.6119C66.9878 72.2987 66.6076 72.0962 66.2774 72.0097C65.9385 71.9207 65.5045 71.9209 64.9845 72.0125L64.8855 72.03C64.0809 72.1717 63.4715 72.4076 63.0733 72.7311C62.686 73.0446 62.5387 73.4162 62.6177 73.8646C62.6789 74.2117 63.0008 74.4926 63.5812 74.6958L63.8534 74.7443C63.9718 74.7636 64.099 74.7854 64.2421 74.8004C64.3906 74.8224 64.4958 74.8401 64.5577 74.8533L65.0624 74.9172C65.3636 74.9605 65.5755 74.9795 65.6951 74.9826L66.3051 75.0641C66.8044 75.0967 67.3071 75.1728 67.7913 75.2885C68.2637 75.3862 68.7525 75.6257 69.2497 76.0084C69.6966 76.3236 69.9944 76.8781 70.1297 77.6462Z" fill="#841A10"/>
<path d="M136.541 59.3319C136.47 59.5294 136.313 59.6575 136.082 59.6982L135.43 59.8131L133.468 64.42L134.142 68.2448L134.538 68.175C134.769 68.1343 134.96 68.2011 135.094 68.3584C135.229 68.5195 135.261 68.7028 135.189 68.8964C135.117 69.0939 134.961 69.222 134.73 69.2627L132.77 69.6081C132.535 69.6495 132.344 69.5825 132.209 69.4214C132.079 69.2634 132.047 69.0801 132.115 68.8872C132.187 68.6897 132.343 68.5618 132.578 68.5204L132.97 68.4513L132.296 64.6264L128.882 60.9671L128.23 61.0819C127.999 61.1226 127.804 61.0563 127.673 60.8945C127.539 60.7372 127.507 60.554 127.579 60.3565C127.651 60.1629 127.807 60.0348 128.038 59.994L129.998 59.6487C130.229 59.6079 130.42 59.675 130.554 59.8322C130.688 59.9934 130.721 60.1766 130.649 60.3702C130.583 60.5546 130.447 60.6751 130.247 60.7224L132.668 63.3068L134.06 60.0505C133.855 60.0744 133.682 60.0085 133.558 59.8576C133.424 59.7004 133.391 59.5171 133.463 59.3196C133.535 59.126 133.691 58.9979 133.922 58.9572L135.886 58.6111C136.118 58.5704 136.312 58.6367 136.442 58.7946C136.582 58.959 136.613 59.1383 136.541 59.3319Z" fill="#841A10"/>
<path d="M125.873 60.9345L126.113 62.2953C126.15 62.5097 126.072 62.6923 125.895 62.8201C125.721 62.9471 125.523 62.982 125.317 62.9219C125.106 62.8586 124.975 62.7169 124.937 62.5025L124.794 61.6916L122.537 62.0894L123.939 70.0468L124.331 69.9777C124.562 69.937 124.752 70.004 124.886 70.1613C125.021 70.3224 125.054 70.5057 124.981 70.6993C124.91 70.8968 124.754 71.0249 124.523 71.0656L122.562 71.411C122.332 71.4517 122.141 71.3847 122.006 71.2236C121.872 71.0663 121.84 70.883 121.912 70.6894C121.984 70.4919 122.14 70.3638 122.371 70.3231L122.763 70.254L121.361 62.2966L119.103 62.6943L119.246 63.5052C119.284 63.7196 119.21 63.9015 119.032 64.0293C118.855 64.157 118.656 64.1881 118.451 64.1318C118.239 64.0685 118.108 63.9268 118.07 63.7125L117.831 62.3517C117.805 62.2075 117.837 62.0732 117.928 61.9406C118.021 61.8157 118.155 61.7318 118.32 61.7027L125.195 60.4913C125.352 60.4637 125.497 60.4903 125.63 60.5714C125.76 60.653 125.845 60.7786 125.873 60.9345Z" fill="#841A10"/>
<path d="M116.119 62.9305C116.048 63.128 115.892 63.2561 115.661 63.2968L115.265 63.3666L116.284 69.1524C116.441 70.0453 116.227 70.8829 115.639 71.6498C115.065 72.4023 114.288 72.8649 113.326 73.0343C112.361 73.2045 111.463 73.037 110.654 72.5282C109.854 71.9939 109.371 71.2791 109.216 70.3979L108.196 64.6122L107.804 64.6813C107.573 64.722 107.382 64.6549 107.248 64.4938C107.114 64.3365 107.081 64.1533 107.153 63.9558C107.225 63.7622 107.381 63.6341 107.612 63.5934L109.572 63.248C109.803 63.2073 109.994 63.2743 110.128 63.4316C110.263 63.5927 110.295 63.776 110.223 63.9696C110.151 64.1671 109.995 64.2952 109.764 64.3359L109.376 64.4042L110.396 70.19C110.499 70.7788 110.825 71.2481 111.362 71.5955C111.904 71.9383 112.495 72.0592 113.139 71.9457C113.774 71.8337 114.297 71.5166 114.688 71.0094C115.075 70.4992 115.219 69.943 115.116 69.3582L114.097 63.5724L113.701 63.6422C113.47 63.6829 113.279 63.6159 113.144 63.4548C113.01 63.2975 112.978 63.1142 113.049 62.9167C113.122 62.7231 113.278 62.595 113.509 62.5543L115.473 62.2082C115.704 62.1675 115.899 62.2338 116.029 62.3918C116.156 62.5584 116.187 62.7376 116.119 62.9305Z" fill="#841A10"/>
<path d="M107.407 73.2414C107.273 73.0841 107.082 73.0172 106.851 73.0579L106.315 73.1525L101.926 64.7845C101.853 64.6125 101.678 64.4181 101.291 64.4865C101.241 64.4952 101.181 64.5178 101.08 64.5679C100.923 64.6679 100.831 64.8007 100.794 64.976L99.5311 74.3478L98.9947 74.4424C98.7636 74.4831 98.6074 74.611 98.5352 74.8047C98.4636 75.0023 98.4959 75.1856 98.63 75.3428C98.7648 75.5039 98.9552 75.5708 99.1864 75.5301L101.146 75.1847C101.377 75.144 101.534 75.016 101.606 74.8224C101.677 74.625 101.645 74.4417 101.51 74.2804C101.376 74.1231 101.186 74.0563 100.955 74.097L100.757 74.1319L101.059 71.936L104.051 71.4089L105.085 73.3691L104.883 73.4048C104.652 73.4455 104.496 73.5735 104.424 73.7671C104.352 73.9647 104.384 74.148 104.518 74.3052C104.653 74.4664 104.844 74.5332 105.075 74.4925L107.039 74.1464C107.27 74.1057 107.43 73.977 107.498 73.7841C107.569 73.5826 107.538 73.4033 107.407 73.2414ZM103.507 70.3791L101.217 70.7826L101.727 66.9623L103.507 70.3791Z" fill="#841A10"/>
<path d="M94.2997 67.901L94.1568 67.0901L89.4402 67.9212L90.0455 71.356L92.3067 70.9576L92.2428 70.595C92.205 70.3806 92.2794 70.1987 92.4575 70.0748C92.6309 69.9478 92.829 69.9129 93.0352 69.973C93.2456 70.0324 93.3811 70.1734 93.4189 70.3878L93.7377 72.1968C93.7761 72.4152 93.6977 72.5979 93.5195 72.7216C93.3463 72.8486 93.1482 72.8835 92.9418 72.8234C92.7314 72.764 92.6001 72.6224 92.5616 72.404L92.4984 72.0453L90.2371 72.4438L90.8424 75.8788L95.559 75.0477L95.4161 74.2366C95.3783 74.0222 95.4526 73.8403 95.63 73.7126C95.8033 73.5856 96.0014 73.5507 96.2078 73.6108C96.4188 73.674 96.5543 73.815 96.5921 74.0294L96.8312 75.3861C96.86 75.5499 96.8214 75.6935 96.719 75.812C96.6212 75.9338 96.4899 76.0091 96.3372 76.036L89.4667 77.2467C89.2316 77.2881 89.0411 77.2212 88.9063 77.0599C88.7764 76.902 88.74 76.7195 88.8122 76.5259C88.8838 76.3283 89.0399 76.2003 89.2751 76.1589L89.667 76.0898L88.2648 68.1323L87.8729 68.2013C87.6377 68.2428 87.4473 68.1759 87.3125 68.0146C87.1825 67.8566 87.1461 67.6742 87.2177 67.4766C87.2899 67.283 87.4461 67.155 87.6812 67.1136L94.5517 65.9029C94.7085 65.8753 94.8535 65.902 94.987 65.983C95.1204 66.0641 95.2098 66.1849 95.2373 66.3408L95.4771 67.7016C95.5149 67.916 95.4364 68.0986 95.259 68.2264C95.0856 68.3534 94.8875 68.3883 94.6812 68.3282C94.4688 68.2571 94.3375 68.1155 94.2997 67.901Z" fill="#841A10"/>
<path d="M83.8108 72.3538C84.3378 71.7946 84.5338 71.0968 84.3875 70.2663C84.1807 69.0927 83.4236 68.4422 82.1528 68.3285C81.5924 68.2624 80.8392 68.3107 79.9232 68.4721L77.468 68.9047C77.2369 68.9455 77.0808 69.0736 77.0044 69.2679C76.9328 69.4654 76.9651 69.6487 77.0992 69.8059C77.234 69.9671 77.4244 70.0339 77.6597 69.9925L78.0517 69.9234L79.4539 77.881L79.0619 77.95C78.8267 77.9915 78.6705 78.1196 78.5983 78.3132C78.5267 78.5107 78.559 78.694 78.6931 78.8513C78.8279 79.0124 79.0183 79.0793 79.2536 79.0378L82.6909 78.4321C83.7925 78.238 84.6949 77.8057 85.3773 77.1387C86.0775 76.4525 86.3438 75.5976 86.1693 74.6073C85.946 73.3643 85.1526 72.6037 83.8108 72.3538ZM80.1149 69.5599C81.1795 69.3723 81.9525 69.3406 82.4126 69.4646C82.85 69.5804 83.1126 69.9121 83.2109 70.4695C83.3118 71.0426 83.1659 71.4704 82.767 71.79C82.3563 72.1156 81.6391 72.3666 80.6446 72.5418L79.7573 72.6982L79.2325 69.7195L80.1156 69.5639L80.1149 69.5599ZM84.493 76.4423C84.048 76.8866 83.3739 77.1902 82.4951 77.3451L80.6258 77.6745L79.9409 73.7873L81.8101 73.458C83.7248 73.1206 84.7644 73.5645 84.9857 74.82C85.1045 75.4704 84.9387 76.002 84.493 76.4423Z" fill="#841A10"/>
<path d="M173.564 52.8079C173.492 53.0056 173.336 53.1336 173.105 53.1744L172.709 53.2441L173.728 59.03C173.886 59.9228 173.668 60.7612 173.083 61.5275C172.51 62.2798 171.732 62.7424 170.77 62.9119C169.805 63.082 168.903 62.9154 168.099 62.4058C167.298 61.8675 166.815 61.1567 166.66 60.2756L165.64 54.4897L165.249 54.5586C165.013 54.6002 164.823 54.5333 164.692 54.3714C164.554 54.2147 164.522 54.0316 164.597 53.8333C164.67 53.6396 164.822 53.5124 165.057 53.4709L167.017 53.1255C167.248 53.0848 167.438 53.1519 167.572 53.3091C167.708 53.4702 167.74 53.6533 167.667 53.8471C167.595 54.0448 167.44 54.1725 167.209 54.2133L166.812 54.2833L167.831 60.0692C167.935 60.6579 168.261 61.1271 168.803 61.4737C169.339 61.8174 169.935 61.9376 170.578 61.8242C171.214 61.7121 171.738 61.3947 172.124 60.8886C172.515 60.3774 172.66 59.8212 172.557 59.2364L171.538 53.4505L171.14 53.5205C170.909 53.5613 170.72 53.4941 170.585 53.333C170.45 53.1758 170.418 52.9927 170.49 52.795C170.563 52.6012 170.717 52.4735 170.949 52.4328L172.913 52.0866C173.144 52.0459 173.339 52.1119 173.47 52.2699C173.604 52.4351 173.631 52.6152 173.564 52.8079Z" fill="#841A10"/>
<path d="M192.59 50.5813L192.447 49.7702L187.734 50.6007L188.339 54.0355L190.597 53.6377L190.533 53.2751C190.495 53.0607 190.573 52.8781 190.752 52.7542C190.925 52.6272 191.124 52.5922 191.33 52.6523C191.541 52.7117 191.671 52.8535 191.709 53.0679L192.028 54.877C192.066 55.0954 191.993 55.2771 191.814 55.4011C191.641 55.5281 191.442 55.5631 191.236 55.503C191.025 55.4436 190.89 55.3025 190.852 55.0841L190.789 54.7255L188.531 55.1234L189.136 58.5582L193.849 57.7278L193.706 56.9168C193.668 56.7024 193.746 56.5198 193.924 56.392C194.097 56.265 194.296 56.23 194.502 56.2901C194.713 56.3533 194.848 56.4944 194.886 56.7088L195.125 58.0657C195.154 58.2295 195.115 58.373 195.014 58.4913C194.916 58.6131 194.784 58.6885 194.631 58.7154L187.757 59.9267C187.526 59.9675 187.331 59.9014 187.201 59.7394C187.067 59.5822 187.034 59.3989 187.107 59.2052C187.178 59.0079 187.334 58.8797 187.565 58.839L187.961 58.7692L186.559 50.8117L186.163 50.8814C185.932 50.9222 185.737 50.8561 185.607 50.6941C185.473 50.5369 185.44 50.3536 185.513 50.156C185.584 49.9624 185.74 49.8344 185.972 49.7937L192.846 48.5824C193.003 48.5547 193.148 48.5813 193.282 48.6623C193.415 48.7433 193.504 48.8644 193.531 49.0204L193.771 50.381C193.809 50.5955 193.731 50.7781 193.553 50.9059C193.38 51.0329 193.181 51.0679 192.975 51.0078C192.762 50.9367 192.628 50.7956 192.59 50.5813Z" fill="#841A10"/>
<path d="M184.517 57.712C184.621 58.3047 184.49 58.8625 184.134 59.3754C183.48 60.2784 182.413 60.8647 180.969 61.1191C180.205 61.2536 179.443 61.175 178.695 60.8886C177.951 60.6056 177.307 60.1564 176.776 59.5545C176.717 59.4886 176.676 59.4033 176.658 59.3019C176.621 59.0914 176.69 58.9063 176.859 58.7762C176.95 58.7158 177.041 58.6756 177.149 58.6566C177.367 58.6182 177.552 58.6781 177.69 58.8305C178.117 59.298 178.602 59.6426 179.147 59.8562C179.681 60.0675 180.229 60.1279 180.773 60.032C181.587 59.8886 182.251 59.6107 182.738 59.2074C183.225 58.8039 183.415 58.3886 183.332 57.9207C183.22 57.2853 182.905 56.8503 182.373 56.6026C182.162 56.4667 181.783 56.3727 181.241 56.3116C180.481 56.2244 180.033 56.1707 179.895 56.1589L179.214 56.0898C178.376 55.9883 177.817 55.9058 177.559 55.8388C176.613 55.5673 176.032 54.9944 175.825 54.1424C175.674 53.2847 175.929 52.5843 176.59 52.054C177.231 51.539 178.073 51.1816 179.097 51.001L179.179 50.9867C180.104 50.8237 180.96 50.9301 181.729 51.3012C181.818 51.1848 181.947 51.114 182.107 51.0858C182.264 51.0581 182.414 51.0841 182.548 51.1728C182.683 51.2616 182.767 51.3835 182.792 51.5239L183.032 52.8845C183.07 53.099 182.992 53.2816 182.813 53.4055C182.64 53.5325 182.443 53.5672 182.235 53.5074C182.026 53.4478 181.894 53.3062 181.856 53.0916L181.782 52.6706C181.37 52.3614 180.99 52.1589 180.656 52.0731C180.318 51.984 179.883 51.9842 179.368 52.0751L179.264 52.0934C178.463 52.2345 177.849 52.4673 177.454 52.79C177.069 53.1073 176.917 53.4796 176.996 53.928C177.057 54.2751 177.383 54.5553 177.963 54.7547L178.232 54.8077C178.35 54.827 178.482 54.848 178.621 54.8637C178.772 54.8813 178.878 54.8989 178.936 54.9167L179.442 54.9844C179.742 55.024 179.954 55.0469 180.071 55.0505L180.68 55.1321C181.179 55.1647 181.682 55.2409 182.17 55.3559C182.642 55.4535 183.131 55.693 183.629 56.0717C184.079 56.3903 184.382 56.9441 184.517 57.712Z" fill="#841A10"/>
<path d="M161.805 55.1694C160.888 54.5832 159.871 54.3846 158.774 54.5779C157.68 54.7707 156.789 55.3096 156.127 56.1699C155.467 57.0378 155.222 57.9856 155.4 58.9993L155.878 61.713C156.056 62.7227 156.612 63.5334 157.528 64.1196C158.44 64.7066 159.458 64.9052 160.559 64.7111C161.653 64.5183 162.541 63.9799 163.206 63.1191C163.862 62.2519 164.111 61.2994 163.934 60.2935L163.456 57.5799C163.277 56.5661 162.718 55.7602 161.805 55.1694ZM160.367 63.6232C159.608 63.757 158.886 63.619 158.219 63.21C157.571 62.7734 157.177 62.1997 157.054 61.5057L156.576 58.7921C156.452 58.0864 156.623 57.4171 157.086 56.8088C157.564 56.186 158.193 55.8019 158.965 55.6658C159.741 55.5292 160.46 55.6756 161.097 56.1061C161.751 56.5054 162.145 57.0713 162.271 57.7886L162.749 60.5022C162.874 61.2079 162.699 61.8819 162.225 62.5042C161.762 63.1123 161.135 63.4879 160.367 63.6232Z" fill="#841A10"/>
<path d="M154.645 64.9185C154.779 65.0796 154.808 65.2636 154.74 65.4604C154.668 65.654 154.512 65.782 154.281 65.8227L152.316 66.1688C152.085 66.2095 151.895 66.1426 151.76 65.9815C151.626 65.8242 151.594 65.6409 151.665 65.4435C151.737 65.2497 151.894 65.1218 152.125 65.081L152.521 65.0112L151.916 61.5764L147.199 62.4075L147.804 65.8423L148.201 65.7725C148.432 65.7318 148.622 65.7987 148.756 65.9561C148.891 66.1172 148.923 66.3005 148.852 66.498C148.78 66.6916 148.623 66.8196 148.392 66.8603L146.432 67.2057C146.197 67.2471 146.007 67.1802 145.876 67.0184C145.738 66.8618 145.705 66.6786 145.781 66.4803C145.849 66.2873 146.005 66.1594 146.24 66.1179L146.633 66.0488L145.23 58.0913L144.838 58.1604C144.603 58.2018 144.413 58.1349 144.282 57.9731C144.144 57.8165 144.111 57.6332 144.187 57.435C144.259 57.2414 144.411 57.114 144.647 57.0726L146.607 56.7272C146.838 56.6865 147.028 56.7535 147.162 56.9108C147.297 57.0719 147.329 57.2552 147.257 57.4488C147.186 57.6463 147.029 57.7743 146.798 57.815L146.402 57.8848L147.008 61.3197L151.724 60.4887L151.119 57.0537L150.723 57.1235C150.491 57.1642 150.301 57.0973 150.166 56.9362C150.032 56.7789 150 56.5956 150.071 56.3982C150.144 56.2046 150.3 56.0765 150.531 56.0357L152.495 55.6896C152.726 55.6489 152.917 55.7159 153.051 55.8732C153.186 56.0343 153.214 56.2183 153.146 56.4112C153.074 56.6087 152.918 56.7366 152.687 56.7774L152.291 56.8472L153.693 64.8047L154.089 64.7349C154.315 64.6911 154.51 64.7572 154.645 64.9185Z" fill="#841A10"/>
<path d="M96.0145 85.4361L93.7859 85.8288L94.1499 87.8947L96.6349 87.4568L96.7442 88.0776L93.5177 88.6462L92.5078 82.9147L95.6062 82.3688L95.7156 82.9894L93.3587 83.4047L93.6781 85.217L95.9067 84.8243L96.0145 85.4361Z" fill="#841A10"/>
<path d="M97.4839 87.0177C97.8498 87.1634 98.3656 87.2501 98.8781 87.1598C99.6352 87.0264 100.008 86.5497 99.9054 85.9697C99.8112 85.4351 99.4502 85.1811 98.6256 85.0226C97.6315 84.8567 96.9677 84.4739 96.8248 83.6629C96.6675 82.7704 97.2917 81.9737 98.4059 81.7773C98.9922 81.674 99.4433 81.7347 99.7211 81.8352L99.6216 82.474C99.4169 82.4027 99.0029 82.3027 98.4865 82.3937C97.7023 82.5319 97.4894 83.0506 97.5588 83.4449C97.653 83.9795 98.0488 84.1807 98.8952 84.3492C99.9322 84.5542 100.507 84.934 100.656 85.7767C100.812 86.6602 100.29 87.5415 98.9393 87.7796C98.3878 87.8768 97.7534 87.8203 97.4108 87.6705L97.4839 87.0177Z" fill="#841A10"/>
<path d="M102.171 81.8567L100.427 82.1639L100.316 81.5342L104.56 80.7864L104.671 81.4161L102.92 81.7247L103.819 86.8264L103.07 86.9585L102.171 81.8567Z" fill="#841A10"/>
<path d="M105.461 86.0842C105.406 85.7716 105.581 85.5119 105.877 85.4598C106.173 85.4077 106.418 85.5933 106.473 85.906C106.527 86.2141 106.373 86.4749 106.054 86.5311C105.758 86.5832 105.516 86.3923 105.461 86.0842Z" fill="#841A10"/>
<path d="M109.123 85.8964L109.042 85.4387L109.528 84.7646C110.704 83.1698 111.215 82.3464 111.076 81.5114C110.977 80.9495 110.614 80.481 109.787 80.6267C109.287 80.7149 108.912 81.0425 108.697 81.3L108.368 80.8161C108.695 80.4267 109.197 80.0907 109.833 79.9785C111.025 79.7685 111.67 80.4957 111.81 81.2887C111.989 82.308 111.393 83.2634 110.426 84.5922L110.055 85.0781L110.059 85.0961L112.544 84.6583L112.653 85.2789L109.124 85.9008L109.123 85.8964Z" fill="#841A10"/>
<path d="M116.708 81.6503C117.039 83.5306 116.523 84.6913 115.3 84.9068C114.221 85.097 113.309 84.216 112.971 82.3882C112.644 80.5352 113.265 79.3749 114.387 79.1772C115.551 78.9673 116.398 79.8879 116.708 81.6503ZM113.721 82.2607C113.974 83.697 114.561 84.4391 115.241 84.3193C116.006 84.1846 116.213 83.2276 115.964 81.814C115.725 80.4549 115.217 79.6193 114.445 79.7554C113.789 79.8756 113.456 80.7565 113.721 82.2607Z" fill="#841A10"/>
<path d="M118.706 79.2284L118.69 79.2312L117.819 79.9219L117.575 79.3763L118.668 78.5156L119.305 78.4034L120.279 83.931L119.557 84.0582L118.706 79.2284Z" fill="#841A10"/>
<path d="M124.654 83.1599L124.389 81.6557L121.818 82.1086L121.731 81.6146L123.575 77.6508L124.382 77.5085L124.988 80.9429L125.764 80.806L125.867 81.3904L125.091 81.5272L125.356 83.0314L124.653 83.1553L124.654 83.1599ZM124.285 81.0667L123.96 79.2226C123.909 78.9327 123.865 78.6412 123.834 78.3479L123.807 78.3527C123.692 78.7046 123.599 78.9686 123.492 79.2489L122.472 81.3673L122.476 81.3855L124.285 81.0667Z" fill="#841A10"/>
<path d="M94.8503 31.4192C94.8452 31.4124 94.841 31.4093 94.8359 31.4025C94.8403 31.4056 94.841 31.4093 94.8452 31.4124C94.8459 31.4161 94.8459 31.4161 94.8503 31.4192Z" fill="#841A10"/>
<path d="M112.049 37.6652C112.16 38.295 112.043 38.8956 111.695 39.4462C111.062 40.4019 110.016 41.0191 108.591 41.2702C107.838 41.4029 107.083 41.3108 106.339 40.9918C106.284 40.9668 106.017 40.858 105.701 40.6583C105.701 40.6583 104.872 40.1463 104.371 39.4467C104.337 39.3965 104.297 39.3384 104.297 39.3384C104.236 39.2539 104.173 39.1569 104.101 39.0353C104.005 38.8746 103.931 38.7405 103.883 38.6321L102.914 38.8028L103.391 41.507L103.847 41.4267C104.14 41.375 104.419 41.5768 104.472 41.8792L104.49 41.98C104.543 42.2823 104.35 42.5675 104.057 42.6191L101.98 42.985C101.687 43.0366 101.408 42.8347 101.355 42.5323L101.337 42.4315C101.284 42.1292 101.477 41.8442 101.77 41.7926L102.226 41.7122L101.75 39.008L100.781 39.1788C100.772 39.2972 100.749 39.4528 100.714 39.6322C100.687 39.7668 100.657 39.8845 100.633 39.984C100.633 39.984 100.616 40.0522 100.601 40.1109C100.369 40.9397 99.7651 41.7043 99.7651 41.7043C99.536 42 99.3224 42.1935 99.2794 42.2357C98.6888 42.79 98.0108 43.1346 97.2575 43.2673C95.8327 43.5184 94.6391 43.2958 93.7173 42.6141C93.2021 42.2156 92.888 41.6952 92.7763 41.0612C92.6305 40.2339 92.7568 39.5926 93.0149 39.0796C93.3164 38.4809 93.7028 38.1011 94.11 37.839C94.5135 37.5557 94.9546 37.2962 95.408 37.0821C96.0467 36.7531 96.345 36.5879 96.4975 36.5004C96.5663 36.4623 96.6959 36.3876 96.8599 36.2936C97.0319 36.1985 97.0705 36.1787 97.2115 36.0975C97.414 35.984 97.5239 35.917 97.5501 35.8994C97.6641 35.8317 97.7658 35.7661 97.7915 35.7442C97.9976 35.6039 98.4462 35.1483 98.3822 34.5708C98.3514 34.2775 98.1983 34.075 98.1435 34.0024C98.0022 33.8196 97.809 33.6761 97.5532 33.5827C97.071 33.3949 96.4244 33.3702 95.6307 33.5101L95.533 33.5273C95.024 33.617 94.6236 33.7741 94.3367 33.9805C94.0121 34.2109 93.7986 34.452 93.511 34.9875L93.5901 35.4369C93.6308 35.6678 93.5642 35.8614 93.3866 35.9966C93.2122 36.1269 93.021 36.1606 92.8118 36.0935C92.6027 36.0264 92.4706 35.8723 92.4299 35.6413L92.1717 34.1759C92.1443 34.0205 92.1769 33.8719 92.2743 33.7335C92.3716 33.5952 92.4955 33.5127 92.6503 33.4854C92.8131 33.4568 92.9563 33.4835 93.0766 33.5705C93.6591 32.9224 94.4138 32.5123 95.3258 32.3516L95.4031 32.338C96.4128 32.1601 97.3176 32.2214 98.0965 32.5214C98.8887 32.8235 99.3756 33.4434 99.5376 34.3629C99.6497 35.3085 99.3132 36.0908 98.5389 36.6992C98.3195 36.8591 97.848 37.137 97.0926 37.5429L96.4875 37.8485C96.0208 38.0824 95.6225 38.2997 95.298 38.4825C94.8127 38.7541 94.587 38.9021 94.3601 39.163C94.259 39.2803 94.1132 39.4531 94.007 39.7317C93.8049 40.2521 93.8967 40.7252 93.9325 40.8575C94.075 41.3561 94.3481 41.715 94.9309 41.9499C95.5316 42.1904 96.2362 42.2351 97.0424 42.093C97.5796 41.9984 98.0644 41.7484 98.4838 41.3413C98.6241 41.2083 98.75 41.0649 98.8695 40.9095C99.3229 40.3144 99.5287 39.6245 99.5532 39.144C99.5606 38.9955 99.5646 38.8995 99.5887 38.7264C99.6043 38.6242 99.6224 38.5127 99.688 38.3843C99.7065 38.3463 99.7283 38.3036 99.7672 38.2621C99.8474 38.1699 99.9622 38.1065 100.105 38.0814L101.538 37.8289L100.028 29.2589L97.7967 29.652L97.9506 30.5254C97.9557 30.5548 97.9609 30.5842 97.9614 30.6101L97.9621 30.6143C97.9651 30.6311 97.9631 30.6444 97.9613 30.6577C97.9636 30.6703 97.9609 30.6794 97.9591 30.6927C97.9572 30.7061 97.9554 30.7194 97.9535 30.7327C97.9517 30.746 97.9497 30.7593 97.9472 30.7684C97.9454 30.7817 97.9395 30.7958 97.9376 30.8091C97.9351 30.8182 97.9291 30.8322 97.9264 30.8414C97.9205 30.8554 97.918 30.8645 97.9113 30.8743C97.9046 30.8842 97.9029 30.8975 97.8962 30.9073C97.8895 30.9171 97.8836 30.9312 97.8769 30.941C97.8702 30.9508 97.8635 30.9607 97.8569 30.9705C97.8502 30.9803 97.8395 30.9909 97.8329 31.0007C97.8155 31.0211 97.7973 31.0373 97.7759 31.0584C97.7544 31.0795 97.7354 31.0915 97.7133 31.1084C97.7018 31.1147 97.6944 31.1204 97.6871 31.126C97.5575 31.2008 97.4035 31.2322 97.2563 31.2062C97.2521 31.2069 97.2514 31.2027 97.2474 31.2034C97.2432 31.2042 97.2385 31.2007 97.2343 31.2014C97.2296 31.1979 97.2254 31.1987 97.2207 31.1952C97.2118 31.1924 97.2029 31.1896 97.194 31.1869L97.19 31.1876C97.1859 31.1883 97.1851 31.1841 97.1811 31.1848C97.177 31.1856 97.1762 31.1814 97.1722 31.1821C97.1544 31.1765 97.1408 31.1703 97.127 31.1641C97.1134 31.1578 97.0998 31.1515 97.086 31.1453C97.0723 31.139 97.0578 31.1286 97.0442 31.1224C97.0345 31.1154 97.0256 31.1126 97.0202 31.1049C97.0153 31.1015 97.0105 31.098 97.0056 31.0945C97.0049 31.0903 97.0009 31.091 97.0002 31.0868C96.9905 31.0799 96.9809 31.0729 96.9713 31.066C96.9713 31.066 96.9705 31.0617 96.9665 31.0625L96.9616 31.059C96.9569 31.0555 96.952 31.052 96.9513 31.0478C96.9465 31.0443 96.9416 31.0409 96.9409 31.0367C96.9312 31.0297 96.925 31.0178 96.9154 31.0109C96.9043 30.9955 96.8939 30.9843 96.8828 30.969C96.8766 30.9571 96.8709 30.9494 96.8647 30.9375C96.8529 30.918 96.8443 30.8935 96.8366 30.8732C96.821 30.8327 96.8096 30.7914 96.8015 30.7452L96.5433 29.2798C96.5159 29.1244 96.5444 28.9765 96.6335 28.8396C96.6435 28.8249 96.6575 28.8094 96.6575 28.8094C96.661 28.8045 96.6716 28.7939 96.6857 28.7785C96.6998 28.763 96.7278 28.7321 96.769 28.7032C96.7805 28.6968 96.7953 28.6856 96.8175 28.6686C96.8175 28.6686 96.8863 28.6305 96.9663 28.6078C96.9866 28.6042 97.0021 28.5971 97.0226 28.5935L103.801 27.3991C103.821 27.3956 103.837 27.3927 103.858 27.3933C103.942 27.3873 104.019 27.3996 104.019 27.3996C104.045 27.4037 104.068 27.4127 104.077 27.4155C104.125 27.4286 104.162 27.4481 104.181 27.4578C104.199 27.4675 104.213 27.4738 104.218 27.4772C104.218 27.4772 104.236 27.487 104.25 27.4974C104.377 27.5963 104.458 27.7249 104.486 27.8802L104.744 29.3456C104.752 29.3918 104.755 29.4345 104.755 29.478C104.755 29.5039 104.751 29.5263 104.75 29.548C104.748 29.5613 104.747 29.5746 104.744 29.5838C104.742 29.5971 104.736 29.6111 104.731 29.6293C104.731 29.6293 104.728 29.6343 104.728 29.6384C104.727 29.6518 104.72 29.6616 104.713 29.6714L104.714 29.6756C104.708 29.6897 104.701 29.6995 104.695 29.7135C104.689 29.7233 104.682 29.7332 104.676 29.743C104.676 29.7472 104.672 29.7479 104.673 29.7521C104.67 29.757 104.666 29.762 104.663 29.7669C104.656 29.7767 104.65 29.7865 104.646 29.7914C104.636 29.8062 104.626 29.8167 104.615 29.8273C104.604 29.8378 104.593 29.8484 104.583 29.8589C104.572 29.8695 104.557 29.8808 104.546 29.8913C104.542 29.892 104.543 29.8962 104.539 29.8969C104.535 29.8977 104.536 29.9019 104.532 29.9026L104.527 29.9033C104.52 29.9089 104.513 29.9146 104.505 29.9202C104.502 29.9251 104.498 29.9258 104.495 29.9308C104.491 29.9357 104.487 29.9364 104.483 29.9371C104.479 29.9378 104.48 29.942 104.476 29.9427C104.346 30.0175 104.191 30.0448 104.043 30.0146C104.031 30.0125 104.022 30.0098 104.013 30.007C103.986 29.9987 103.96 29.9946 103.937 29.9814C103.914 29.9724 103.887 29.9599 103.864 29.9467C103.854 29.9397 103.84 29.9335 103.831 29.9265C103.821 29.9196 103.811 29.9126 103.802 29.9056C103.792 29.8987 103.783 29.8917 103.772 29.8805C103.763 29.8736 103.752 29.8624 103.747 29.8548C103.736 29.8436 103.731 29.8359 103.721 29.8289C103.716 29.8213 103.706 29.8143 103.7 29.8024C103.689 29.7913 103.683 29.7794 103.677 29.7675C103.67 29.7556 103.665 29.7479 103.659 29.7361C103.652 29.7242 103.646 29.7123 103.64 29.7004C103.633 29.6885 103.632 29.6801 103.626 29.6683C103.619 29.6564 103.617 29.6438 103.61 29.6277L103.609 29.6235C103.601 29.599 103.596 29.5696 103.59 29.5403L103.436 28.6669L101.206 29.06L102.716 37.63L104.149 37.3775C104.291 37.3524 104.42 37.3686 104.528 37.4319C104.579 37.4618 104.614 37.4904 104.644 37.5197C104.749 37.6179 104.809 37.72 104.854 37.8073C104.937 37.9659 104.973 38.0547 105.03 38.1875C105.217 38.6308 105.643 39.2095 106.276 39.6131C106.442 39.7181 106.61 39.8141 106.786 39.8868C107.324 40.1255 107.865 40.1947 108.398 40.1008C109.204 39.9588 109.854 39.6709 110.333 39.2446C110.805 38.8238 110.939 38.3932 110.898 37.8765C110.887 37.7442 110.812 37.2683 110.443 36.8441C110.249 36.6228 110.053 36.5102 109.917 36.4302C109.614 36.2586 109.352 36.2008 108.803 36.1113C108.436 36.0506 107.987 35.9825 107.469 35.9223L106.795 35.8417C105.947 35.7186 105.409 35.6185 105.148 35.5432C104.212 35.2362 103.629 34.6161 103.411 33.689C103.249 32.7695 103.494 32.0205 104.135 31.466C104.761 30.9185 105.59 30.5516 106.604 30.373L106.681 30.3593C107.593 30.1986 108.443 30.326 109.212 30.736C109.295 30.6131 109.42 30.5391 109.583 30.5104C109.742 30.4824 109.887 30.5175 110.021 30.615C110.155 30.7083 110.242 30.8402 110.269 30.9957L110.527 32.4611C110.568 32.6919 110.497 32.8863 110.323 33.0166C110.149 33.1468 109.958 33.1847 109.75 33.1219C109.54 33.0506 109.408 32.8964 109.367 32.6656L109.288 32.2162C108.834 31.8113 108.551 31.6577 108.168 31.552C107.828 31.4561 107.398 31.4453 106.889 31.535L106.791 31.5522C105.997 31.6921 105.398 31.9363 105.009 32.2775C104.805 32.4562 104.668 32.6537 104.598 32.8738C104.571 32.9608 104.5 33.2027 104.568 33.4896C104.705 34.0542 105.282 34.329 105.524 34.3904C105.559 34.3972 105.677 34.4241 105.804 34.4536C105.834 34.4611 105.961 34.4865 106.19 34.5242C106.35 34.5521 106.393 34.5577 106.587 34.5883C106.777 34.6197 106.925 34.6458 106.998 34.6587C107.171 34.6888 107.508 34.742 108.221 34.8328C108.72 34.8792 109.224 34.9723 109.7 35.1005C110.172 35.2078 110.665 35.4369 111.153 35.8922C111.565 36.2784 111.903 36.8379 112.049 37.6652Z" fill="#841A10"/>
<path d="M94.8503 31.4192C94.8452 31.4124 94.841 31.4093 94.8359 31.4025C94.8403 31.4056 94.841 31.4093 94.8452 31.4124C94.8459 31.4161 94.8459 31.4161 94.8503 31.4192Z" fill="#841A10"/>
<path d="M95.12 31.5565C95.116 31.5572 95.1073 31.5546 95.1025 31.5512C95.0985 31.552 95.0938 31.5486 95.0938 31.5486C95.0985 31.552 95.1025 31.5512 95.1065 31.5505C95.1113 31.5539 95.116 31.5572 95.12 31.5565Z" fill="#841A10"/>
<path d="M200.134 -0.26122L105.095 54.6483L-1.48438 35.266L200.134 -0.26122Z" stroke="#841A10" stroke-width="0.4"/>
</g>
</g>
</g>
<defs>
<filter id="filter0_i_501_16370" x="0" y="0" width="219.38" height="119.473" filterUnits="userSpaceOnUse" color-interpolation-filters="sRGB">
<feFlood flood-opacity="0" result="BackgroundImageFix"/>
<feBlend mode="normal" in="SourceGraphic" in2="BackgroundImageFix" result="shape"/>
<feColorMatrix in="SourceAlpha" type="matrix" values="0 0 0 0 0 0 0 0 0 0 0 0 0 0 0 0 0 0 127 0" result="hardAlpha"/>
<feOffset dx="7" dy="6"/>
<feGaussianBlur stdDeviation="3.45"/>
<feComposite in2="hardAlpha" operator="arithmetic" k2="-1" k3="1"/>
<feColorMatrix type="matrix" values="0 0 0 0 0 0 0 0 0 0 0 0 0 0 0 0 0 0 0.25 0"/>
<feBlend mode="normal" in2="shape" result="effect1_innerShadow_501_16370"/>
</filter>
<clipPath id="clip0_501_16370">
<rect width="201.714" height="79.6772" fill="white" transform="translate(0 35.0048) rotate(-9.99349)"/>
</clipPath>
</defs>
</svg>
